%TF.GenerationSoftware,KiCad,Pcbnew,(6.0.1)*%
%TF.CreationDate,2022-01-26T21:55:38-08:00*%
%TF.ProjectId,dcs-joystick,6463732d-6a6f-4797-9374-69636b2e6b69,rev?*%
%TF.SameCoordinates,Original*%
%TF.FileFunction,Soldermask,Top*%
%TF.FilePolarity,Negative*%
%FSLAX46Y46*%
G04 Gerber Fmt 4.6, Leading zero omitted, Abs format (unit mm)*
G04 Created by KiCad (PCBNEW (6.0.1)) date 2022-01-26 21:55:38*
%MOMM*%
%LPD*%
G01*
G04 APERTURE LIST*
%ADD10R,1.600000X1.600000*%
%ADD11O,1.600000X1.600000*%
%ADD12R,2.200000X2.200000*%
%ADD13C,2.200000*%
%ADD14C,1.600000*%
G04 APERTURE END LIST*
D10*
%TO.C,U3*%
X124470000Y-83835000D03*
D11*
X124470000Y-86375000D03*
X124470000Y-88915000D03*
X124470000Y-91455000D03*
X124470000Y-93995000D03*
X124470000Y-96535000D03*
X124470000Y-99075000D03*
X124470000Y-101615000D03*
X132090000Y-101615000D03*
X132090000Y-99075000D03*
X132090000Y-96535000D03*
X132090000Y-93995000D03*
X132090000Y-91455000D03*
X132090000Y-88915000D03*
X132090000Y-86375000D03*
X132090000Y-83835000D03*
%TD*%
D10*
%TO.C,RN2*%
X157480000Y-104155000D03*
D11*
X157480000Y-101615000D03*
X157480000Y-99075000D03*
X157480000Y-96535000D03*
X157480000Y-93995000D03*
X157480000Y-91455000D03*
X157480000Y-88915000D03*
X157480000Y-86375000D03*
X157480000Y-83835000D03*
%TD*%
D12*
%TO.C,J4*%
X163830000Y-73025000D03*
D13*
X163830000Y-70485000D03*
X163830000Y-67945000D03*
X163830000Y-65405000D03*
X163830000Y-62865000D03*
X163830000Y-60325000D03*
X163830000Y-57785000D03*
X163830000Y-55245000D03*
%TD*%
D12*
%TO.C,J1*%
X114300000Y-55245000D03*
D13*
X114300000Y-57785000D03*
X114300000Y-60325000D03*
X114300000Y-62865000D03*
X114300000Y-65405000D03*
X114300000Y-67945000D03*
X114300000Y-70485000D03*
X114300000Y-73025000D03*
X114300000Y-75565000D03*
X114300000Y-78105000D03*
%TD*%
D10*
%TO.C,RN1*%
X120650000Y-52690000D03*
D11*
X120650000Y-55230000D03*
X120650000Y-57770000D03*
X120650000Y-60310000D03*
X120650000Y-62850000D03*
X120650000Y-65390000D03*
X120650000Y-67930000D03*
X120650000Y-70470000D03*
X120650000Y-73010000D03*
%TD*%
D12*
%TO.C,J2*%
X163830000Y-101600000D03*
D13*
X163830000Y-99060000D03*
X163830000Y-96520000D03*
X163830000Y-93980000D03*
X163830000Y-91440000D03*
X163830000Y-88900000D03*
X163830000Y-86360000D03*
X163830000Y-83820000D03*
%TD*%
D10*
%TO.C,RN3*%
X120650000Y-81295000D03*
D11*
X120650000Y-83835000D03*
X120650000Y-86375000D03*
X120650000Y-88915000D03*
X120650000Y-91455000D03*
X120650000Y-93995000D03*
X120650000Y-96535000D03*
X120650000Y-99075000D03*
X120650000Y-101615000D03*
%TD*%
D10*
%TO.C,RN4*%
X157480000Y-75580000D03*
D11*
X157480000Y-73040000D03*
X157480000Y-70500000D03*
X157480000Y-67960000D03*
X157480000Y-65420000D03*
X157480000Y-62880000D03*
X157480000Y-60340000D03*
X157480000Y-57800000D03*
X157480000Y-55260000D03*
%TD*%
D12*
%TO.C,J3*%
X114300000Y-83820000D03*
D13*
X114300000Y-86360000D03*
X114300000Y-88900000D03*
X114300000Y-91440000D03*
X114300000Y-93980000D03*
X114300000Y-96520000D03*
X114300000Y-99060000D03*
X114300000Y-101600000D03*
%TD*%
D10*
%TO.C,U4*%
X135265000Y-83850000D03*
D11*
X135265000Y-86390000D03*
X135265000Y-88930000D03*
X135265000Y-91470000D03*
X135265000Y-94010000D03*
X135265000Y-96550000D03*
X135265000Y-99090000D03*
X135265000Y-101630000D03*
X142885000Y-101630000D03*
X142885000Y-99090000D03*
X142885000Y-96550000D03*
X142885000Y-94010000D03*
X142885000Y-91470000D03*
X142885000Y-88930000D03*
X142885000Y-86390000D03*
X142885000Y-83850000D03*
%TD*%
D10*
%TO.C,U2*%
X146060000Y-83835000D03*
D11*
X146060000Y-86375000D03*
X146060000Y-88915000D03*
X146060000Y-91455000D03*
X146060000Y-93995000D03*
X146060000Y-96535000D03*
X146060000Y-99075000D03*
X146060000Y-101615000D03*
X153680000Y-101615000D03*
X153680000Y-99075000D03*
X153680000Y-96535000D03*
X153680000Y-93995000D03*
X153680000Y-91455000D03*
X153680000Y-88915000D03*
X153680000Y-86375000D03*
X153680000Y-83835000D03*
%TD*%
D10*
%TO.C,U1*%
X124470000Y-52720000D03*
D11*
X124470000Y-55260000D03*
X124470000Y-57800000D03*
X124470000Y-60340000D03*
X124470000Y-62880000D03*
X124470000Y-65420000D03*
X124470000Y-67960000D03*
X124470000Y-70500000D03*
X132090000Y-70500000D03*
X132090000Y-67960000D03*
X132090000Y-65420000D03*
X132090000Y-62880000D03*
X132090000Y-60340000D03*
X132090000Y-57800000D03*
X132090000Y-55260000D03*
X132090000Y-52720000D03*
%TD*%
D10*
%TO.C,U5*%
X137160000Y-44450000D03*
D14*
X137160000Y-46990000D03*
X137160000Y-49530000D03*
X137160000Y-52070000D03*
X137160000Y-54610000D03*
X137160000Y-57150000D03*
X137160000Y-59690000D03*
X137160000Y-62230000D03*
X137160000Y-64770000D03*
X137160000Y-67310000D03*
X137160000Y-69850000D03*
X137160000Y-72390000D03*
X152400000Y-72390000D03*
X152400000Y-69850000D03*
X152400000Y-67310000D03*
X152400000Y-64770000D03*
X152400000Y-62230000D03*
X152400000Y-59690000D03*
X152400000Y-57150000D03*
X152400000Y-54610000D03*
X152400000Y-52070000D03*
X152400000Y-49530000D03*
X152400000Y-46990000D03*
X152400000Y-44450000D03*
%TD*%
M02*
