%TF.GenerationSoftware,KiCad,Pcbnew,(6.0.1)*%
%TF.CreationDate,2022-01-26T21:55:38-08:00*%
%TF.ProjectId,dcs-joystick,6463732d-6a6f-4797-9374-69636b2e6b69,rev?*%
%TF.SameCoordinates,Original*%
%TF.FileFunction,Legend,Top*%
%TF.FilePolarity,Positive*%
%FSLAX46Y46*%
G04 Gerber Fmt 4.6, Leading zero omitted, Abs format (unit mm)*
G04 Created by KiCad (PCBNEW (6.0.1)) date 2022-01-26 21:55:38*
%MOMM*%
%LPD*%
G01*
G04 APERTURE LIST*
%ADD10C,0.300000*%
%ADD11C,0.150000*%
%ADD12C,0.120000*%
G04 APERTURE END LIST*
D10*
X124564999Y-107421071D02*
X124564999Y-105921071D01*
X125064999Y-106992500D01*
X125564999Y-105921071D01*
X125564999Y-107421071D01*
X126922142Y-107421071D02*
X126922142Y-106635357D01*
X126850714Y-106492500D01*
X126707857Y-106421071D01*
X126422142Y-106421071D01*
X126279285Y-106492500D01*
X126922142Y-107349642D02*
X126779285Y-107421071D01*
X126422142Y-107421071D01*
X126279285Y-107349642D01*
X126207857Y-107206785D01*
X126207857Y-107063928D01*
X126279285Y-106921071D01*
X126422142Y-106849642D01*
X126779285Y-106849642D01*
X126922142Y-106778214D01*
X127493571Y-107421071D02*
X128279285Y-106421071D01*
X127493571Y-106421071D02*
X128279285Y-107421071D01*
X131207857Y-107421071D02*
X131136428Y-107421071D01*
X130993571Y-107349642D01*
X130779285Y-107135357D01*
X130422142Y-106706785D01*
X130279285Y-106492500D01*
X130207857Y-106278214D01*
X130207857Y-106135357D01*
X130279285Y-105992500D01*
X130422142Y-105921071D01*
X130493571Y-105921071D01*
X130636428Y-105992500D01*
X130707857Y-106135357D01*
X130707857Y-106206785D01*
X130636428Y-106349642D01*
X130564999Y-106421071D01*
X130136428Y-106706785D01*
X130064999Y-106778214D01*
X129993571Y-106921071D01*
X129993571Y-107135357D01*
X130064999Y-107278214D01*
X130136428Y-107349642D01*
X130279285Y-107421071D01*
X130493571Y-107421071D01*
X130636428Y-107349642D01*
X130707857Y-107278214D01*
X130922142Y-106992500D01*
X130993571Y-106778214D01*
X130993571Y-106635357D01*
X133850714Y-107278214D02*
X133779285Y-107349642D01*
X133565000Y-107421071D01*
X133422142Y-107421071D01*
X133207857Y-107349642D01*
X133065000Y-107206785D01*
X132993571Y-107063928D01*
X132922142Y-106778214D01*
X132922142Y-106563928D01*
X132993571Y-106278214D01*
X133065000Y-106135357D01*
X133207857Y-105992500D01*
X133422142Y-105921071D01*
X133565000Y-105921071D01*
X133779285Y-105992500D01*
X133850714Y-106063928D01*
X134707857Y-107421071D02*
X134565000Y-107349642D01*
X134493571Y-107278214D01*
X134422142Y-107135357D01*
X134422142Y-106706785D01*
X134493571Y-106563928D01*
X134565000Y-106492500D01*
X134707857Y-106421071D01*
X134922142Y-106421071D01*
X135065000Y-106492500D01*
X135136428Y-106563928D01*
X135207857Y-106706785D01*
X135207857Y-107135357D01*
X135136428Y-107278214D01*
X135065000Y-107349642D01*
X134922142Y-107421071D01*
X134707857Y-107421071D01*
X135850714Y-106421071D02*
X135850714Y-107421071D01*
X135850714Y-106563928D02*
X135922142Y-106492500D01*
X136065000Y-106421071D01*
X136279285Y-106421071D01*
X136422142Y-106492500D01*
X136493571Y-106635357D01*
X136493571Y-107421071D01*
X137207857Y-106421071D02*
X137207857Y-107421071D01*
X137207857Y-106563928D02*
X137279285Y-106492500D01*
X137422142Y-106421071D01*
X137636428Y-106421071D01*
X137779285Y-106492500D01*
X137850714Y-106635357D01*
X137850714Y-107421071D01*
X138779285Y-107421071D02*
X138636428Y-107349642D01*
X138565000Y-107278214D01*
X138493571Y-107135357D01*
X138493571Y-106706785D01*
X138565000Y-106563928D01*
X138636428Y-106492500D01*
X138779285Y-106421071D01*
X138993571Y-106421071D01*
X139136428Y-106492500D01*
X139207857Y-106563928D01*
X139279285Y-106706785D01*
X139279285Y-107135357D01*
X139207857Y-107278214D01*
X139136428Y-107349642D01*
X138993571Y-107421071D01*
X138779285Y-107421071D01*
X139922142Y-107421071D02*
X139922142Y-106421071D01*
X139922142Y-106706785D02*
X139993571Y-106563928D01*
X140065000Y-106492500D01*
X140207857Y-106421071D01*
X140350714Y-106421071D01*
X140922142Y-105921071D02*
X140779285Y-106206785D01*
X141493571Y-107349642D02*
X141636428Y-107421071D01*
X141922142Y-107421071D01*
X142065000Y-107349642D01*
X142136428Y-107206785D01*
X142136428Y-107135357D01*
X142065000Y-106992500D01*
X141922142Y-106921071D01*
X141707857Y-106921071D01*
X141565000Y-106849642D01*
X141493571Y-106706785D01*
X141493571Y-106635357D01*
X141565000Y-106492500D01*
X141707857Y-106421071D01*
X141922142Y-106421071D01*
X142065000Y-106492500D01*
X143779285Y-105921071D02*
X144707857Y-105921071D01*
X144207857Y-106492500D01*
X144422142Y-106492500D01*
X144565000Y-106563928D01*
X144636428Y-106635357D01*
X144707857Y-106778214D01*
X144707857Y-107135357D01*
X144636428Y-107278214D01*
X144565000Y-107349642D01*
X144422142Y-107421071D01*
X143993571Y-107421071D01*
X143850714Y-107349642D01*
X143779285Y-107278214D01*
X145279285Y-106063928D02*
X145350714Y-105992500D01*
X145493571Y-105921071D01*
X145850714Y-105921071D01*
X145993571Y-105992500D01*
X146065000Y-106063928D01*
X146136428Y-106206785D01*
X146136428Y-106349642D01*
X146065000Y-106563928D01*
X145207857Y-107421071D01*
X146136428Y-107421071D01*
X146779285Y-106849642D02*
X147922142Y-106849642D01*
X148636428Y-107421071D02*
X148636428Y-105921071D01*
X149350714Y-106421071D02*
X149350714Y-107421071D01*
X149350714Y-106563928D02*
X149422142Y-106492500D01*
X149565000Y-106421071D01*
X149779285Y-106421071D01*
X149922142Y-106492500D01*
X149993571Y-106635357D01*
X149993571Y-107421071D01*
X150707857Y-106421071D02*
X150707857Y-107921071D01*
X150707857Y-106492500D02*
X150850714Y-106421071D01*
X151136428Y-106421071D01*
X151279285Y-106492500D01*
X151350714Y-106563928D01*
X151422142Y-106706785D01*
X151422142Y-107135357D01*
X151350714Y-107278214D01*
X151279285Y-107349642D01*
X151136428Y-107421071D01*
X150850714Y-107421071D01*
X150707857Y-107349642D01*
X152707857Y-106421071D02*
X152707857Y-107421071D01*
X152065000Y-106421071D02*
X152065000Y-107206785D01*
X152136428Y-107349642D01*
X152279285Y-107421071D01*
X152493571Y-107421071D01*
X152636428Y-107349642D01*
X152707857Y-107278214D01*
X153207857Y-106421071D02*
X153779285Y-106421071D01*
X153422142Y-105921071D02*
X153422142Y-107206785D01*
X153493571Y-107349642D01*
X153636428Y-107421071D01*
X153779285Y-107421071D01*
X124600714Y-109836071D02*
X124600714Y-108336071D01*
X124957857Y-108336071D01*
X125172142Y-108407500D01*
X125314999Y-108550357D01*
X125386428Y-108693214D01*
X125457857Y-108978928D01*
X125457857Y-109193214D01*
X125386428Y-109478928D01*
X125314999Y-109621785D01*
X125172142Y-109764642D01*
X124957857Y-109836071D01*
X124600714Y-109836071D01*
X126100714Y-109836071D02*
X126100714Y-108836071D01*
X126100714Y-108336071D02*
X126029285Y-108407500D01*
X126100714Y-108478928D01*
X126172142Y-108407500D01*
X126100714Y-108336071D01*
X126100714Y-108478928D01*
X127457857Y-108836071D02*
X127457857Y-110050357D01*
X127386428Y-110193214D01*
X127314999Y-110264642D01*
X127172142Y-110336071D01*
X126957857Y-110336071D01*
X126814999Y-110264642D01*
X127457857Y-109764642D02*
X127314999Y-109836071D01*
X127029285Y-109836071D01*
X126886428Y-109764642D01*
X126814999Y-109693214D01*
X126743571Y-109550357D01*
X126743571Y-109121785D01*
X126814999Y-108978928D01*
X126886428Y-108907500D01*
X127029285Y-108836071D01*
X127314999Y-108836071D01*
X127457857Y-108907500D01*
X128172142Y-109836071D02*
X128172142Y-108836071D01*
X128172142Y-108336071D02*
X128100714Y-108407500D01*
X128172142Y-108478928D01*
X128243571Y-108407500D01*
X128172142Y-108336071D01*
X128172142Y-108478928D01*
X128672142Y-108836071D02*
X129243571Y-108836071D01*
X128886428Y-108336071D02*
X128886428Y-109621785D01*
X128957857Y-109764642D01*
X129100714Y-109836071D01*
X129243571Y-109836071D01*
X130386428Y-109836071D02*
X130386428Y-109050357D01*
X130314999Y-108907500D01*
X130172142Y-108836071D01*
X129886428Y-108836071D01*
X129743571Y-108907500D01*
X130386428Y-109764642D02*
X130243571Y-109836071D01*
X129886428Y-109836071D01*
X129743571Y-109764642D01*
X129672142Y-109621785D01*
X129672142Y-109478928D01*
X129743571Y-109336071D01*
X129886428Y-109264642D01*
X130243571Y-109264642D01*
X130386428Y-109193214D01*
X131314999Y-109836071D02*
X131172142Y-109764642D01*
X131100714Y-109621785D01*
X131100714Y-108336071D01*
X133457857Y-108336071D02*
X133457857Y-109407500D01*
X133386428Y-109621785D01*
X133243571Y-109764642D01*
X133029285Y-109836071D01*
X132886428Y-109836071D01*
X134386428Y-109836071D02*
X134243571Y-109764642D01*
X134172142Y-109693214D01*
X134100714Y-109550357D01*
X134100714Y-109121785D01*
X134172142Y-108978928D01*
X134243571Y-108907500D01*
X134386428Y-108836071D01*
X134600714Y-108836071D01*
X134743571Y-108907500D01*
X134815000Y-108978928D01*
X134886428Y-109121785D01*
X134886428Y-109550357D01*
X134815000Y-109693214D01*
X134743571Y-109764642D01*
X134600714Y-109836071D01*
X134386428Y-109836071D01*
X135386428Y-108836071D02*
X135743571Y-109836071D01*
X136100714Y-108836071D02*
X135743571Y-109836071D01*
X135600714Y-110193214D01*
X135529285Y-110264642D01*
X135386428Y-110336071D01*
X136600714Y-109764642D02*
X136743571Y-109836071D01*
X137029285Y-109836071D01*
X137172142Y-109764642D01*
X137243571Y-109621785D01*
X137243571Y-109550357D01*
X137172142Y-109407500D01*
X137029285Y-109336071D01*
X136815000Y-109336071D01*
X136672142Y-109264642D01*
X136600714Y-109121785D01*
X136600714Y-109050357D01*
X136672142Y-108907500D01*
X136815000Y-108836071D01*
X137029285Y-108836071D01*
X137172142Y-108907500D01*
X137672142Y-108836071D02*
X138243571Y-108836071D01*
X137886428Y-108336071D02*
X137886428Y-109621785D01*
X137957857Y-109764642D01*
X138100714Y-109836071D01*
X138243571Y-109836071D01*
X138743571Y-109836071D02*
X138743571Y-108836071D01*
X138743571Y-108336071D02*
X138672142Y-108407500D01*
X138743571Y-108478928D01*
X138815000Y-108407500D01*
X138743571Y-108336071D01*
X138743571Y-108478928D01*
X140100714Y-109764642D02*
X139957857Y-109836071D01*
X139672142Y-109836071D01*
X139529285Y-109764642D01*
X139457857Y-109693214D01*
X139386428Y-109550357D01*
X139386428Y-109121785D01*
X139457857Y-108978928D01*
X139529285Y-108907500D01*
X139672142Y-108836071D01*
X139957857Y-108836071D01*
X140100714Y-108907500D01*
X140743571Y-109836071D02*
X140743571Y-108336071D01*
X140886428Y-109264642D02*
X141315000Y-109836071D01*
X141315000Y-108836071D02*
X140743571Y-109407500D01*
X143957857Y-109693214D02*
X143886428Y-109764642D01*
X143672142Y-109836071D01*
X143529285Y-109836071D01*
X143315000Y-109764642D01*
X143172142Y-109621785D01*
X143100714Y-109478928D01*
X143029285Y-109193214D01*
X143029285Y-108978928D01*
X143100714Y-108693214D01*
X143172142Y-108550357D01*
X143315000Y-108407500D01*
X143529285Y-108336071D01*
X143672142Y-108336071D01*
X143886428Y-108407500D01*
X143957857Y-108478928D01*
X144815000Y-109836071D02*
X144672142Y-109764642D01*
X144600714Y-109693214D01*
X144529285Y-109550357D01*
X144529285Y-109121785D01*
X144600714Y-108978928D01*
X144672142Y-108907500D01*
X144815000Y-108836071D01*
X145029285Y-108836071D01*
X145172142Y-108907500D01*
X145243571Y-108978928D01*
X145315000Y-109121785D01*
X145315000Y-109550357D01*
X145243571Y-109693214D01*
X145172142Y-109764642D01*
X145029285Y-109836071D01*
X144815000Y-109836071D01*
X145957857Y-108836071D02*
X145957857Y-109836071D01*
X145957857Y-108978928D02*
X146029285Y-108907500D01*
X146172142Y-108836071D01*
X146386428Y-108836071D01*
X146529285Y-108907500D01*
X146600714Y-109050357D01*
X146600714Y-109836071D01*
X147100714Y-108836071D02*
X147672142Y-108836071D01*
X147315000Y-108336071D02*
X147315000Y-109621785D01*
X147386428Y-109764642D01*
X147529285Y-109836071D01*
X147672142Y-109836071D01*
X148172142Y-109836071D02*
X148172142Y-108836071D01*
X148172142Y-109121785D02*
X148243571Y-108978928D01*
X148315000Y-108907500D01*
X148457857Y-108836071D01*
X148600714Y-108836071D01*
X149315000Y-109836071D02*
X149172142Y-109764642D01*
X149100714Y-109693214D01*
X149029285Y-109550357D01*
X149029285Y-109121785D01*
X149100714Y-108978928D01*
X149172142Y-108907500D01*
X149315000Y-108836071D01*
X149529285Y-108836071D01*
X149672142Y-108907500D01*
X149743571Y-108978928D01*
X149815000Y-109121785D01*
X149815000Y-109550357D01*
X149743571Y-109693214D01*
X149672142Y-109764642D01*
X149529285Y-109836071D01*
X149315000Y-109836071D01*
X150672142Y-109836071D02*
X150529285Y-109764642D01*
X150457857Y-109621785D01*
X150457857Y-108336071D01*
X151457857Y-109836071D02*
X151315000Y-109764642D01*
X151243571Y-109621785D01*
X151243571Y-108336071D01*
X152600714Y-109764642D02*
X152457857Y-109836071D01*
X152172142Y-109836071D01*
X152029285Y-109764642D01*
X151957857Y-109621785D01*
X151957857Y-109050357D01*
X152029285Y-108907500D01*
X152172142Y-108836071D01*
X152457857Y-108836071D01*
X152600714Y-108907500D01*
X152672142Y-109050357D01*
X152672142Y-109193214D01*
X151957857Y-109336071D01*
X153315000Y-109836071D02*
X153315000Y-108836071D01*
X153315000Y-109121785D02*
X153386428Y-108978928D01*
X153457857Y-108907500D01*
X153600714Y-108836071D01*
X153743571Y-108836071D01*
X123742142Y-80053571D02*
X123742142Y-78553571D01*
X124456428Y-79053571D02*
X124456428Y-80053571D01*
X124456428Y-79196428D02*
X124527857Y-79125000D01*
X124670714Y-79053571D01*
X124885000Y-79053571D01*
X125027857Y-79125000D01*
X125099285Y-79267857D01*
X125099285Y-80053571D01*
X125813571Y-79053571D02*
X125813571Y-80553571D01*
X125813571Y-79125000D02*
X125956428Y-79053571D01*
X126242142Y-79053571D01*
X126385000Y-79125000D01*
X126456428Y-79196428D01*
X126527857Y-79339285D01*
X126527857Y-79767857D01*
X126456428Y-79910714D01*
X126385000Y-79982142D01*
X126242142Y-80053571D01*
X125956428Y-80053571D01*
X125813571Y-79982142D01*
X127813571Y-79053571D02*
X127813571Y-80053571D01*
X127170714Y-79053571D02*
X127170714Y-79839285D01*
X127242142Y-79982142D01*
X127385000Y-80053571D01*
X127599285Y-80053571D01*
X127742142Y-79982142D01*
X127813571Y-79910714D01*
X128313571Y-79053571D02*
X128885000Y-79053571D01*
X128527857Y-78553571D02*
X128527857Y-79839285D01*
X128599285Y-79982142D01*
X128742142Y-80053571D01*
X128885000Y-80053571D01*
X129313571Y-79982142D02*
X129456428Y-80053571D01*
X129742142Y-80053571D01*
X129885000Y-79982142D01*
X129956428Y-79839285D01*
X129956428Y-79767857D01*
X129885000Y-79625000D01*
X129742142Y-79553571D01*
X129527857Y-79553571D01*
X129385000Y-79482142D01*
X129313571Y-79339285D01*
X129313571Y-79267857D01*
X129385000Y-79125000D01*
X129527857Y-79053571D01*
X129742142Y-79053571D01*
X129885000Y-79125000D01*
X131813571Y-80053571D02*
X132099285Y-80053571D01*
X132242142Y-79982142D01*
X132313571Y-79910714D01*
X132456428Y-79696428D01*
X132527857Y-79410714D01*
X132527857Y-78839285D01*
X132456428Y-78696428D01*
X132385000Y-78625000D01*
X132242142Y-78553571D01*
X131956428Y-78553571D01*
X131813571Y-78625000D01*
X131742142Y-78696428D01*
X131670714Y-78839285D01*
X131670714Y-79196428D01*
X131742142Y-79339285D01*
X131813571Y-79410714D01*
X131956428Y-79482142D01*
X132242142Y-79482142D01*
X132385000Y-79410714D01*
X132456428Y-79339285D01*
X132527857Y-79196428D01*
X133170714Y-79482142D02*
X134313571Y-79482142D01*
X135813571Y-80053571D02*
X134956428Y-80053571D01*
X135385000Y-80053571D02*
X135385000Y-78553571D01*
X135242142Y-78767857D01*
X135099285Y-78910714D01*
X134956428Y-78982142D01*
X137099285Y-78553571D02*
X136813571Y-78553571D01*
X136670714Y-78625000D01*
X136599285Y-78696428D01*
X136456428Y-78910714D01*
X136385000Y-79196428D01*
X136385000Y-79767857D01*
X136456428Y-79910714D01*
X136527857Y-79982142D01*
X136670714Y-80053571D01*
X136956428Y-80053571D01*
X137099285Y-79982142D01*
X137170714Y-79910714D01*
X137242142Y-79767857D01*
X137242142Y-79410714D01*
X137170714Y-79267857D01*
X137099285Y-79196428D01*
X136956428Y-79125000D01*
X136670714Y-79125000D01*
X136527857Y-79196428D01*
X136456428Y-79267857D01*
X136385000Y-79410714D01*
X139530714Y-80053571D02*
X139530714Y-78553571D01*
X140245000Y-79053571D02*
X140245000Y-80053571D01*
X140245000Y-79196428D02*
X140316428Y-79125000D01*
X140459285Y-79053571D01*
X140673571Y-79053571D01*
X140816428Y-79125000D01*
X140887857Y-79267857D01*
X140887857Y-80053571D01*
X141602142Y-79053571D02*
X141602142Y-80553571D01*
X141602142Y-79125000D02*
X141745000Y-79053571D01*
X142030714Y-79053571D01*
X142173571Y-79125000D01*
X142245000Y-79196428D01*
X142316428Y-79339285D01*
X142316428Y-79767857D01*
X142245000Y-79910714D01*
X142173571Y-79982142D01*
X142030714Y-80053571D01*
X141745000Y-80053571D01*
X141602142Y-79982142D01*
X143602142Y-79053571D02*
X143602142Y-80053571D01*
X142959285Y-79053571D02*
X142959285Y-79839285D01*
X143030714Y-79982142D01*
X143173571Y-80053571D01*
X143387857Y-80053571D01*
X143530714Y-79982142D01*
X143602142Y-79910714D01*
X144102142Y-79053571D02*
X144673571Y-79053571D01*
X144316428Y-78553571D02*
X144316428Y-79839285D01*
X144387857Y-79982142D01*
X144530714Y-80053571D01*
X144673571Y-80053571D01*
X145102142Y-79982142D02*
X145245000Y-80053571D01*
X145530714Y-80053571D01*
X145673571Y-79982142D01*
X145745000Y-79839285D01*
X145745000Y-79767857D01*
X145673571Y-79625000D01*
X145530714Y-79553571D01*
X145316428Y-79553571D01*
X145173571Y-79482142D01*
X145102142Y-79339285D01*
X145102142Y-79267857D01*
X145173571Y-79125000D01*
X145316428Y-79053571D01*
X145530714Y-79053571D01*
X145673571Y-79125000D01*
X148316428Y-80053571D02*
X147459285Y-80053571D01*
X147887857Y-80053571D02*
X147887857Y-78553571D01*
X147745000Y-78767857D01*
X147602142Y-78910714D01*
X147459285Y-78982142D01*
X148816428Y-78553571D02*
X149816428Y-78553571D01*
X149173571Y-80053571D01*
X150387857Y-79482142D02*
X151530714Y-79482142D01*
X152173571Y-78696428D02*
X152245000Y-78625000D01*
X152387857Y-78553571D01*
X152745000Y-78553571D01*
X152887857Y-78625000D01*
X152959285Y-78696428D01*
X153030714Y-78839285D01*
X153030714Y-78982142D01*
X152959285Y-79196428D01*
X152102142Y-80053571D01*
X153030714Y-80053571D01*
X154316428Y-79053571D02*
X154316428Y-80053571D01*
X153959285Y-78482142D02*
X153602142Y-79553571D01*
X154530714Y-79553571D01*
X139530714Y-77513571D02*
X139530714Y-76013571D01*
X140245000Y-76513571D02*
X140245000Y-77513571D01*
X140245000Y-76656428D02*
X140316428Y-76585000D01*
X140459285Y-76513571D01*
X140673571Y-76513571D01*
X140816428Y-76585000D01*
X140887857Y-76727857D01*
X140887857Y-77513571D01*
X141602142Y-76513571D02*
X141602142Y-78013571D01*
X141602142Y-76585000D02*
X141745000Y-76513571D01*
X142030714Y-76513571D01*
X142173571Y-76585000D01*
X142245000Y-76656428D01*
X142316428Y-76799285D01*
X142316428Y-77227857D01*
X142245000Y-77370714D01*
X142173571Y-77442142D01*
X142030714Y-77513571D01*
X141745000Y-77513571D01*
X141602142Y-77442142D01*
X143602142Y-76513571D02*
X143602142Y-77513571D01*
X142959285Y-76513571D02*
X142959285Y-77299285D01*
X143030714Y-77442142D01*
X143173571Y-77513571D01*
X143387857Y-77513571D01*
X143530714Y-77442142D01*
X143602142Y-77370714D01*
X144102142Y-76513571D02*
X144673571Y-76513571D01*
X144316428Y-76013571D02*
X144316428Y-77299285D01*
X144387857Y-77442142D01*
X144530714Y-77513571D01*
X144673571Y-77513571D01*
X145102142Y-77442142D02*
X145245000Y-77513571D01*
X145530714Y-77513571D01*
X145673571Y-77442142D01*
X145745000Y-77299285D01*
X145745000Y-77227857D01*
X145673571Y-77085000D01*
X145530714Y-77013571D01*
X145316428Y-77013571D01*
X145173571Y-76942142D01*
X145102142Y-76799285D01*
X145102142Y-76727857D01*
X145173571Y-76585000D01*
X145316428Y-76513571D01*
X145530714Y-76513571D01*
X145673571Y-76585000D01*
X147459285Y-76156428D02*
X147530714Y-76085000D01*
X147673571Y-76013571D01*
X148030714Y-76013571D01*
X148173571Y-76085000D01*
X148245000Y-76156428D01*
X148316428Y-76299285D01*
X148316428Y-76442142D01*
X148245000Y-76656428D01*
X147387857Y-77513571D01*
X148316428Y-77513571D01*
X149673571Y-76013571D02*
X148959285Y-76013571D01*
X148887857Y-76727857D01*
X148959285Y-76656428D01*
X149102142Y-76585000D01*
X149459285Y-76585000D01*
X149602142Y-76656428D01*
X149673571Y-76727857D01*
X149745000Y-76870714D01*
X149745000Y-77227857D01*
X149673571Y-77370714D01*
X149602142Y-77442142D01*
X149459285Y-77513571D01*
X149102142Y-77513571D01*
X148959285Y-77442142D01*
X148887857Y-77370714D01*
X150387857Y-76942142D02*
X151530714Y-76942142D01*
X152102142Y-76013571D02*
X153030714Y-76013571D01*
X152530714Y-76585000D01*
X152745000Y-76585000D01*
X152887857Y-76656428D01*
X152959285Y-76727857D01*
X153030714Y-76870714D01*
X153030714Y-77227857D01*
X152959285Y-77370714D01*
X152887857Y-77442142D01*
X152745000Y-77513571D01*
X152316428Y-77513571D01*
X152173571Y-77442142D01*
X152102142Y-77370714D01*
X153602142Y-76156428D02*
X153673571Y-76085000D01*
X153816428Y-76013571D01*
X154173571Y-76013571D01*
X154316428Y-76085000D01*
X154387857Y-76156428D01*
X154459285Y-76299285D01*
X154459285Y-76442142D01*
X154387857Y-76656428D01*
X153530714Y-77513571D01*
X154459285Y-77513571D01*
X123742142Y-77513571D02*
X123742142Y-76013571D01*
X124456428Y-76513571D02*
X124456428Y-77513571D01*
X124456428Y-76656428D02*
X124527857Y-76585000D01*
X124670714Y-76513571D01*
X124885000Y-76513571D01*
X125027857Y-76585000D01*
X125099285Y-76727857D01*
X125099285Y-77513571D01*
X125813571Y-76513571D02*
X125813571Y-78013571D01*
X125813571Y-76585000D02*
X125956428Y-76513571D01*
X126242142Y-76513571D01*
X126385000Y-76585000D01*
X126456428Y-76656428D01*
X126527857Y-76799285D01*
X126527857Y-77227857D01*
X126456428Y-77370714D01*
X126385000Y-77442142D01*
X126242142Y-77513571D01*
X125956428Y-77513571D01*
X125813571Y-77442142D01*
X127813571Y-76513571D02*
X127813571Y-77513571D01*
X127170714Y-76513571D02*
X127170714Y-77299285D01*
X127242142Y-77442142D01*
X127385000Y-77513571D01*
X127599285Y-77513571D01*
X127742142Y-77442142D01*
X127813571Y-77370714D01*
X128313571Y-76513571D02*
X128885000Y-76513571D01*
X128527857Y-76013571D02*
X128527857Y-77299285D01*
X128599285Y-77442142D01*
X128742142Y-77513571D01*
X128885000Y-77513571D01*
X129313571Y-77442142D02*
X129456428Y-77513571D01*
X129742142Y-77513571D01*
X129885000Y-77442142D01*
X129956428Y-77299285D01*
X129956428Y-77227857D01*
X129885000Y-77085000D01*
X129742142Y-77013571D01*
X129527857Y-77013571D01*
X129385000Y-76942142D01*
X129313571Y-76799285D01*
X129313571Y-76727857D01*
X129385000Y-76585000D01*
X129527857Y-76513571D01*
X129742142Y-76513571D01*
X129885000Y-76585000D01*
X132527857Y-77513571D02*
X131670714Y-77513571D01*
X132099285Y-77513571D02*
X132099285Y-76013571D01*
X131956428Y-76227857D01*
X131813571Y-76370714D01*
X131670714Y-76442142D01*
X133170714Y-76942142D02*
X134313571Y-76942142D01*
X135242142Y-76656428D02*
X135099285Y-76585000D01*
X135027857Y-76513571D01*
X134956428Y-76370714D01*
X134956428Y-76299285D01*
X135027857Y-76156428D01*
X135099285Y-76085000D01*
X135242142Y-76013571D01*
X135527857Y-76013571D01*
X135670714Y-76085000D01*
X135742142Y-76156428D01*
X135813571Y-76299285D01*
X135813571Y-76370714D01*
X135742142Y-76513571D01*
X135670714Y-76585000D01*
X135527857Y-76656428D01*
X135242142Y-76656428D01*
X135099285Y-76727857D01*
X135027857Y-76799285D01*
X134956428Y-76942142D01*
X134956428Y-77227857D01*
X135027857Y-77370714D01*
X135099285Y-77442142D01*
X135242142Y-77513571D01*
X135527857Y-77513571D01*
X135670714Y-77442142D01*
X135742142Y-77370714D01*
X135813571Y-77227857D01*
X135813571Y-76942142D01*
X135742142Y-76799285D01*
X135670714Y-76727857D01*
X135527857Y-76656428D01*
D11*
%TO.C,U3*%
X123698095Y-103592380D02*
X123698095Y-104401904D01*
X123745714Y-104497142D01*
X123793333Y-104544761D01*
X123888571Y-104592380D01*
X124079047Y-104592380D01*
X124174285Y-104544761D01*
X124221904Y-104497142D01*
X124269523Y-104401904D01*
X124269523Y-103592380D01*
X124650476Y-103592380D02*
X125269523Y-103592380D01*
X124936190Y-103973333D01*
X125079047Y-103973333D01*
X125174285Y-104020952D01*
X125221904Y-104068571D01*
X125269523Y-104163809D01*
X125269523Y-104401904D01*
X125221904Y-104497142D01*
X125174285Y-104544761D01*
X125079047Y-104592380D01*
X124793333Y-104592380D01*
X124698095Y-104544761D01*
X124650476Y-104497142D01*
%TO.C,RN2*%
X156789523Y-81732380D02*
X156456190Y-81256190D01*
X156218095Y-81732380D02*
X156218095Y-80732380D01*
X156599047Y-80732380D01*
X156694285Y-80780000D01*
X156741904Y-80827619D01*
X156789523Y-80922857D01*
X156789523Y-81065714D01*
X156741904Y-81160952D01*
X156694285Y-81208571D01*
X156599047Y-81256190D01*
X156218095Y-81256190D01*
X157218095Y-81732380D02*
X157218095Y-80732380D01*
X157789523Y-81732380D01*
X157789523Y-80732380D01*
X158218095Y-80827619D02*
X158265714Y-80780000D01*
X158360952Y-80732380D01*
X158599047Y-80732380D01*
X158694285Y-80780000D01*
X158741904Y-80827619D01*
X158789523Y-80922857D01*
X158789523Y-81018095D01*
X158741904Y-81160952D01*
X158170476Y-81732380D01*
X158789523Y-81732380D01*
%TO.C,J4*%
X159122380Y-64468333D02*
X159836666Y-64468333D01*
X159979523Y-64515952D01*
X160074761Y-64611190D01*
X160122380Y-64754047D01*
X160122380Y-64849285D01*
X159455714Y-63563571D02*
X160122380Y-63563571D01*
X159074761Y-63801666D02*
X159789047Y-64039761D01*
X159789047Y-63420714D01*
%TO.C,J1*%
X117912380Y-67008333D02*
X118626666Y-67008333D01*
X118769523Y-67055952D01*
X118864761Y-67151190D01*
X118912380Y-67294047D01*
X118912380Y-67389285D01*
X118912380Y-66008333D02*
X118912380Y-66579761D01*
X118912380Y-66294047D02*
X117912380Y-66294047D01*
X118055238Y-66389285D01*
X118150476Y-66484523D01*
X118198095Y-66579761D01*
%TO.C,RN1*%
X119959523Y-50602380D02*
X119626190Y-50126190D01*
X119388095Y-50602380D02*
X119388095Y-49602380D01*
X119769047Y-49602380D01*
X119864285Y-49650000D01*
X119911904Y-49697619D01*
X119959523Y-49792857D01*
X119959523Y-49935714D01*
X119911904Y-50030952D01*
X119864285Y-50078571D01*
X119769047Y-50126190D01*
X119388095Y-50126190D01*
X120388095Y-50602380D02*
X120388095Y-49602380D01*
X120959523Y-50602380D01*
X120959523Y-49602380D01*
X121959523Y-50602380D02*
X121388095Y-50602380D01*
X121673809Y-50602380D02*
X121673809Y-49602380D01*
X121578571Y-49745238D01*
X121483333Y-49840476D01*
X121388095Y-49888095D01*
%TO.C,J2*%
X159122380Y-93043333D02*
X159836666Y-93043333D01*
X159979523Y-93090952D01*
X160074761Y-93186190D01*
X160122380Y-93329047D01*
X160122380Y-93424285D01*
X159217619Y-92614761D02*
X159170000Y-92567142D01*
X159122380Y-92471904D01*
X159122380Y-92233809D01*
X159170000Y-92138571D01*
X159217619Y-92090952D01*
X159312857Y-92043333D01*
X159408095Y-92043333D01*
X159550952Y-92090952D01*
X160122380Y-92662380D01*
X160122380Y-92043333D01*
%TO.C,RN3*%
X119959523Y-79207380D02*
X119626190Y-78731190D01*
X119388095Y-79207380D02*
X119388095Y-78207380D01*
X119769047Y-78207380D01*
X119864285Y-78255000D01*
X119911904Y-78302619D01*
X119959523Y-78397857D01*
X119959523Y-78540714D01*
X119911904Y-78635952D01*
X119864285Y-78683571D01*
X119769047Y-78731190D01*
X119388095Y-78731190D01*
X120388095Y-79207380D02*
X120388095Y-78207380D01*
X120959523Y-79207380D01*
X120959523Y-78207380D01*
X121340476Y-78207380D02*
X121959523Y-78207380D01*
X121626190Y-78588333D01*
X121769047Y-78588333D01*
X121864285Y-78635952D01*
X121911904Y-78683571D01*
X121959523Y-78778809D01*
X121959523Y-79016904D01*
X121911904Y-79112142D01*
X121864285Y-79159761D01*
X121769047Y-79207380D01*
X121483333Y-79207380D01*
X121388095Y-79159761D01*
X121340476Y-79112142D01*
%TO.C,RN4*%
X156789523Y-53157380D02*
X156456190Y-52681190D01*
X156218095Y-53157380D02*
X156218095Y-52157380D01*
X156599047Y-52157380D01*
X156694285Y-52205000D01*
X156741904Y-52252619D01*
X156789523Y-52347857D01*
X156789523Y-52490714D01*
X156741904Y-52585952D01*
X156694285Y-52633571D01*
X156599047Y-52681190D01*
X156218095Y-52681190D01*
X157218095Y-53157380D02*
X157218095Y-52157380D01*
X157789523Y-53157380D01*
X157789523Y-52157380D01*
X158694285Y-52490714D02*
X158694285Y-53157380D01*
X158456190Y-52109761D02*
X158218095Y-52824047D01*
X158837142Y-52824047D01*
%TO.C,J3*%
X117912380Y-93043333D02*
X118626666Y-93043333D01*
X118769523Y-93090952D01*
X118864761Y-93186190D01*
X118912380Y-93329047D01*
X118912380Y-93424285D01*
X117912380Y-92662380D02*
X117912380Y-92043333D01*
X118293333Y-92376666D01*
X118293333Y-92233809D01*
X118340952Y-92138571D01*
X118388571Y-92090952D01*
X118483809Y-92043333D01*
X118721904Y-92043333D01*
X118817142Y-92090952D01*
X118864761Y-92138571D01*
X118912380Y-92233809D01*
X118912380Y-92519523D01*
X118864761Y-92614761D01*
X118817142Y-92662380D01*
%TO.C,U4*%
X134493095Y-103592380D02*
X134493095Y-104401904D01*
X134540714Y-104497142D01*
X134588333Y-104544761D01*
X134683571Y-104592380D01*
X134874047Y-104592380D01*
X134969285Y-104544761D01*
X135016904Y-104497142D01*
X135064523Y-104401904D01*
X135064523Y-103592380D01*
X135969285Y-103925714D02*
X135969285Y-104592380D01*
X135731190Y-103544761D02*
X135493095Y-104259047D01*
X136112142Y-104259047D01*
%TO.C,U2*%
X145288095Y-103592380D02*
X145288095Y-104401904D01*
X145335714Y-104497142D01*
X145383333Y-104544761D01*
X145478571Y-104592380D01*
X145669047Y-104592380D01*
X145764285Y-104544761D01*
X145811904Y-104497142D01*
X145859523Y-104401904D01*
X145859523Y-103592380D01*
X146288095Y-103687619D02*
X146335714Y-103640000D01*
X146430952Y-103592380D01*
X146669047Y-103592380D01*
X146764285Y-103640000D01*
X146811904Y-103687619D01*
X146859523Y-103782857D01*
X146859523Y-103878095D01*
X146811904Y-104020952D01*
X146240476Y-104592380D01*
X146859523Y-104592380D01*
%TO.C,U1*%
X125603095Y-49842380D02*
X125603095Y-50651904D01*
X125650714Y-50747142D01*
X125698333Y-50794761D01*
X125793571Y-50842380D01*
X125984047Y-50842380D01*
X126079285Y-50794761D01*
X126126904Y-50747142D01*
X126174523Y-50651904D01*
X126174523Y-49842380D01*
X127174523Y-50842380D02*
X126603095Y-50842380D01*
X126888809Y-50842380D02*
X126888809Y-49842380D01*
X126793571Y-49985238D01*
X126698333Y-50080476D01*
X126603095Y-50128095D01*
%TO.C,U5*%
X133858095Y-43902380D02*
X133858095Y-44711904D01*
X133905714Y-44807142D01*
X133953333Y-44854761D01*
X134048571Y-44902380D01*
X134239047Y-44902380D01*
X134334285Y-44854761D01*
X134381904Y-44807142D01*
X134429523Y-44711904D01*
X134429523Y-43902380D01*
X135381904Y-43902380D02*
X134905714Y-43902380D01*
X134858095Y-44378571D01*
X134905714Y-44330952D01*
X135000952Y-44283333D01*
X135239047Y-44283333D01*
X135334285Y-44330952D01*
X135381904Y-44378571D01*
X135429523Y-44473809D01*
X135429523Y-44711904D01*
X135381904Y-44807142D01*
X135334285Y-44854761D01*
X135239047Y-44902380D01*
X135000952Y-44902380D01*
X134905714Y-44854761D01*
X134858095Y-44807142D01*
D12*
%TO.C,U3*%
X125630000Y-102945000D02*
X130930000Y-102945000D01*
X127280000Y-82505000D02*
X125630000Y-82505000D01*
X130930000Y-102945000D02*
X130930000Y-82505000D01*
X130930000Y-82505000D02*
X129280000Y-82505000D01*
X125630000Y-82505000D02*
X125630000Y-102945000D01*
X127280000Y-82505000D02*
G75*
G03*
X129280000Y-82505000I1000000J0D01*
G01*
%TO.C,RN2*%
X158880000Y-105595000D02*
X158880000Y-82395000D01*
X158880000Y-82395000D02*
X156080000Y-82395000D01*
X156080000Y-82395000D02*
X156080000Y-105595000D01*
X156080000Y-105595000D02*
X158880000Y-105595000D01*
X156080000Y-102885000D02*
X158880000Y-102885000D01*
%TO.C,J4*%
X167230000Y-74825000D02*
X167230000Y-74325000D01*
X160670000Y-74585000D02*
X160670000Y-53684000D01*
X160670000Y-53684000D02*
X166990000Y-53684000D01*
X161130000Y-74585000D02*
X161130000Y-53684000D01*
X166490000Y-74825000D02*
X167230000Y-74825000D01*
X166990000Y-74585000D02*
X166990000Y-53684000D01*
X166430000Y-74585000D02*
X166430000Y-53684000D01*
X160670000Y-74585000D02*
X166990000Y-74585000D01*
%TO.C,J1*%
X110900000Y-53445000D02*
X110900000Y-53945000D01*
X111640000Y-53445000D02*
X110900000Y-53445000D01*
X117460000Y-79665000D02*
X111140000Y-79665000D01*
X117460000Y-53685000D02*
X117460000Y-79665000D01*
X117000000Y-53685000D02*
X117000000Y-79665000D01*
X117460000Y-53685000D02*
X111140000Y-53685000D01*
X111700000Y-53685000D02*
X111700000Y-79665000D01*
X111140000Y-53685000D02*
X111140000Y-79665000D01*
%TO.C,RN1*%
X119250000Y-51250000D02*
X119250000Y-74450000D01*
X122050000Y-53960000D02*
X119250000Y-53960000D01*
X122050000Y-74450000D02*
X122050000Y-51250000D01*
X122050000Y-51250000D02*
X119250000Y-51250000D01*
X119250000Y-74450000D02*
X122050000Y-74450000D01*
%TO.C,J2*%
X161130000Y-103160000D02*
X161130000Y-82259000D01*
X167230000Y-103400000D02*
X167230000Y-102900000D01*
X166430000Y-103160000D02*
X166430000Y-82259000D01*
X166990000Y-103160000D02*
X166990000Y-82259000D01*
X160670000Y-103160000D02*
X166990000Y-103160000D01*
X160670000Y-82259000D02*
X166990000Y-82259000D01*
X160670000Y-103160000D02*
X160670000Y-82259000D01*
X166490000Y-103400000D02*
X167230000Y-103400000D01*
%TO.C,RN3*%
X122050000Y-79855000D02*
X119250000Y-79855000D01*
X119250000Y-103055000D02*
X122050000Y-103055000D01*
X119250000Y-79855000D02*
X119250000Y-103055000D01*
X122050000Y-103055000D02*
X122050000Y-79855000D01*
X122050000Y-82565000D02*
X119250000Y-82565000D01*
%TO.C,RN4*%
X158880000Y-77020000D02*
X158880000Y-53820000D01*
X156080000Y-53820000D02*
X156080000Y-77020000D01*
X158880000Y-53820000D02*
X156080000Y-53820000D01*
X156080000Y-77020000D02*
X158880000Y-77020000D01*
X156080000Y-74310000D02*
X158880000Y-74310000D01*
%TO.C,J3*%
X117460000Y-82260000D02*
X117460000Y-103161000D01*
X117000000Y-82260000D02*
X117000000Y-103161000D01*
X111140000Y-82260000D02*
X111140000Y-103161000D01*
X117460000Y-82260000D02*
X111140000Y-82260000D01*
X111640000Y-82020000D02*
X110900000Y-82020000D01*
X110900000Y-82020000D02*
X110900000Y-82520000D01*
X111700000Y-82260000D02*
X111700000Y-103161000D01*
X117460000Y-103161000D02*
X111140000Y-103161000D01*
%TO.C,U4*%
X138075000Y-82520000D02*
X136425000Y-82520000D01*
X136425000Y-82520000D02*
X136425000Y-102960000D01*
X136425000Y-102960000D02*
X141725000Y-102960000D01*
X141725000Y-82520000D02*
X140075000Y-82520000D01*
X141725000Y-102960000D02*
X141725000Y-82520000D01*
X138075000Y-82520000D02*
G75*
G03*
X140075000Y-82520000I1000000J0D01*
G01*
%TO.C,U2*%
X152520000Y-102945000D02*
X152520000Y-82505000D01*
X147220000Y-102945000D02*
X152520000Y-102945000D01*
X148870000Y-82505000D02*
X147220000Y-82505000D01*
X152520000Y-82505000D02*
X150870000Y-82505000D01*
X147220000Y-82505000D02*
X147220000Y-102945000D01*
X148870000Y-82505000D02*
G75*
G03*
X150870000Y-82505000I1000000J0D01*
G01*
%TO.C,U1*%
X130930000Y-71830000D02*
X130930000Y-51390000D01*
X125630000Y-51390000D02*
X125630000Y-71830000D01*
X127280000Y-51390000D02*
X125630000Y-51390000D01*
X125630000Y-71830000D02*
X130930000Y-71830000D01*
X130930000Y-51390000D02*
X129280000Y-51390000D01*
X127280000Y-51390000D02*
G75*
G03*
X129280000Y-51390000I1000000J0D01*
G01*
%TO.C,U5*%
X151240000Y-73720000D02*
X151240000Y-43120000D01*
X138320000Y-43120000D02*
X138320000Y-73720000D01*
X151240000Y-43120000D02*
X145780000Y-43120000D01*
X138320000Y-73720000D02*
X151240000Y-73720000D01*
X143780000Y-43120000D02*
X138320000Y-43120000D01*
X143780000Y-43120000D02*
G75*
G03*
X145780000Y-43120000I1000000J0D01*
G01*
%TD*%
M02*
