%TF.GenerationSoftware,KiCad,Pcbnew,(6.0.1)*%
%TF.CreationDate,2022-01-26T21:55:38-08:00*%
%TF.ProjectId,dcs-joystick,6463732d-6a6f-4797-9374-69636b2e6b69,rev?*%
%TF.SameCoordinates,Original*%
%TF.FileFunction,Copper,L2,Bot*%
%TF.FilePolarity,Positive*%
%FSLAX46Y46*%
G04 Gerber Fmt 4.6, Leading zero omitted, Abs format (unit mm)*
G04 Created by KiCad (PCBNEW (6.0.1)) date 2022-01-26 21:55:38*
%MOMM*%
%LPD*%
G01*
G04 APERTURE LIST*
%TA.AperFunction,ComponentPad*%
%ADD10R,1.600000X1.600000*%
%TD*%
%TA.AperFunction,ComponentPad*%
%ADD11O,1.600000X1.600000*%
%TD*%
%TA.AperFunction,ComponentPad*%
%ADD12R,2.200000X2.200000*%
%TD*%
%TA.AperFunction,ComponentPad*%
%ADD13C,2.200000*%
%TD*%
%TA.AperFunction,ComponentPad*%
%ADD14C,1.600000*%
%TD*%
%TA.AperFunction,ViaPad*%
%ADD15C,0.800000*%
%TD*%
%TA.AperFunction,Conductor*%
%ADD16C,0.250000*%
%TD*%
%TA.AperFunction,Conductor*%
%ADD17C,0.500000*%
%TD*%
G04 APERTURE END LIST*
D10*
%TO.P,U3,1,~{PL}*%
%TO.N,LOAD*%
X124470000Y-83835000D03*
D11*
%TO.P,U3,2,CP*%
%TO.N,SCLK*%
X124470000Y-86375000D03*
%TO.P,U3,3,D4*%
%TO.N,/D4_1*%
X124470000Y-88915000D03*
%TO.P,U3,4,D5*%
%TO.N,/D5_1*%
X124470000Y-91455000D03*
%TO.P,U3,5,D6*%
%TO.N,/D6_1*%
X124470000Y-93995000D03*
%TO.P,U3,6,D7*%
%TO.N,/D7_1*%
X124470000Y-96535000D03*
%TO.P,U3,7,~{Q7}*%
%TO.N,9-16*%
X124470000Y-99075000D03*
%TO.P,U3,8,GND*%
%TO.N,GNDREF*%
X124470000Y-101615000D03*
%TO.P,U3,9,Q7*%
%TO.N,unconnected-(U3-Pad9)*%
X132090000Y-101615000D03*
%TO.P,U3,10,DS*%
%TO.N,17-24*%
X132090000Y-99075000D03*
%TO.P,U3,11,D0*%
%TO.N,/D0_1*%
X132090000Y-96535000D03*
%TO.P,U3,12,D1*%
%TO.N,/D1_1*%
X132090000Y-93995000D03*
%TO.P,U3,13,D2*%
%TO.N,/D2_1*%
X132090000Y-91455000D03*
%TO.P,U3,14,D3*%
%TO.N,/D3_1*%
X132090000Y-88915000D03*
%TO.P,U3,15,~{CE}*%
%TO.N,GNDREF*%
X132090000Y-86375000D03*
%TO.P,U3,16,VCC*%
%TO.N,+5V*%
X132090000Y-83835000D03*
%TD*%
D10*
%TO.P,RN2,1,common*%
%TO.N,+5V*%
X157480000Y-104155000D03*
D11*
%TO.P,RN2,2,R1*%
%TO.N,/D0_2*%
X157480000Y-101615000D03*
%TO.P,RN2,3,R2*%
%TO.N,/D1_2*%
X157480000Y-99075000D03*
%TO.P,RN2,4,R3*%
%TO.N,/D2_2*%
X157480000Y-96535000D03*
%TO.P,RN2,5,R4*%
%TO.N,/D3_2*%
X157480000Y-93995000D03*
%TO.P,RN2,6,R5*%
%TO.N,/D4_2*%
X157480000Y-91455000D03*
%TO.P,RN2,7,R6*%
%TO.N,/D5_2*%
X157480000Y-88915000D03*
%TO.P,RN2,8,R7*%
%TO.N,/D6_2*%
X157480000Y-86375000D03*
%TO.P,RN2,9,R8*%
%TO.N,/D7_2*%
X157480000Y-83835000D03*
%TD*%
D12*
%TO.P,J4,1,Pin_1*%
%TO.N,/D0_3*%
X163830000Y-73025000D03*
D13*
%TO.P,J4,2,Pin_2*%
%TO.N,/D1_3*%
X163830000Y-70485000D03*
%TO.P,J4,3,Pin_3*%
%TO.N,/D2_3*%
X163830000Y-67945000D03*
%TO.P,J4,4,Pin_4*%
%TO.N,/D3_3*%
X163830000Y-65405000D03*
%TO.P,J4,5,Pin_5*%
%TO.N,/D4_3*%
X163830000Y-62865000D03*
%TO.P,J4,6,Pin_6*%
%TO.N,/D5_3*%
X163830000Y-60325000D03*
%TO.P,J4,7,Pin_7*%
%TO.N,/D6_3*%
X163830000Y-57785000D03*
%TO.P,J4,8,Pin_8*%
%TO.N,/D7_3*%
X163830000Y-55245000D03*
%TD*%
D12*
%TO.P,J1,1,Pin_1*%
%TO.N,/D0_0*%
X114300000Y-55245000D03*
D13*
%TO.P,J1,2,Pin_2*%
%TO.N,/D1_0*%
X114300000Y-57785000D03*
%TO.P,J1,3,Pin_3*%
%TO.N,/D2_0*%
X114300000Y-60325000D03*
%TO.P,J1,4,Pin_4*%
%TO.N,/D3_0*%
X114300000Y-62865000D03*
%TO.P,J1,5,Pin_5*%
%TO.N,/D4_0*%
X114300000Y-65405000D03*
%TO.P,J1,6,Pin_6*%
%TO.N,/D5_0*%
X114300000Y-67945000D03*
%TO.P,J1,7,Pin_7*%
%TO.N,/D6_0*%
X114300000Y-70485000D03*
%TO.P,J1,8,Pin_8*%
%TO.N,/D7_0*%
X114300000Y-73025000D03*
%TO.P,J1,9,Pin_9*%
%TO.N,GNDREF*%
X114300000Y-75565000D03*
%TO.P,J1,10,Pin_10*%
X114300000Y-78105000D03*
%TD*%
D10*
%TO.P,RN1,1,common*%
%TO.N,+5V*%
X120650000Y-52690000D03*
D11*
%TO.P,RN1,2,R1*%
%TO.N,/D0_0*%
X120650000Y-55230000D03*
%TO.P,RN1,3,R2*%
%TO.N,/D1_0*%
X120650000Y-57770000D03*
%TO.P,RN1,4,R3*%
%TO.N,/D2_0*%
X120650000Y-60310000D03*
%TO.P,RN1,5,R4*%
%TO.N,/D3_0*%
X120650000Y-62850000D03*
%TO.P,RN1,6,R5*%
%TO.N,/D4_0*%
X120650000Y-65390000D03*
%TO.P,RN1,7,R6*%
%TO.N,/D5_0*%
X120650000Y-67930000D03*
%TO.P,RN1,8,R7*%
%TO.N,/D6_0*%
X120650000Y-70470000D03*
%TO.P,RN1,9,R8*%
%TO.N,/D7_0*%
X120650000Y-73010000D03*
%TD*%
D12*
%TO.P,J2,1,Pin_1*%
%TO.N,/D0_2*%
X163830000Y-101600000D03*
D13*
%TO.P,J2,2,Pin_2*%
%TO.N,/D1_2*%
X163830000Y-99060000D03*
%TO.P,J2,3,Pin_3*%
%TO.N,/D2_2*%
X163830000Y-96520000D03*
%TO.P,J2,4,Pin_4*%
%TO.N,/D3_2*%
X163830000Y-93980000D03*
%TO.P,J2,5,Pin_5*%
%TO.N,/D4_2*%
X163830000Y-91440000D03*
%TO.P,J2,6,Pin_6*%
%TO.N,/D5_2*%
X163830000Y-88900000D03*
%TO.P,J2,7,Pin_7*%
%TO.N,/D6_2*%
X163830000Y-86360000D03*
%TO.P,J2,8,Pin_8*%
%TO.N,/D7_2*%
X163830000Y-83820000D03*
%TD*%
D10*
%TO.P,RN3,1,common*%
%TO.N,+5V*%
X120650000Y-81295000D03*
D11*
%TO.P,RN3,2,R1*%
%TO.N,/D0_1*%
X120650000Y-83835000D03*
%TO.P,RN3,3,R2*%
%TO.N,/D1_1*%
X120650000Y-86375000D03*
%TO.P,RN3,4,R3*%
%TO.N,/D2_1*%
X120650000Y-88915000D03*
%TO.P,RN3,5,R4*%
%TO.N,/D3_1*%
X120650000Y-91455000D03*
%TO.P,RN3,6,R5*%
%TO.N,/D4_1*%
X120650000Y-93995000D03*
%TO.P,RN3,7,R6*%
%TO.N,/D5_1*%
X120650000Y-96535000D03*
%TO.P,RN3,8,R7*%
%TO.N,/D6_1*%
X120650000Y-99075000D03*
%TO.P,RN3,9,R8*%
%TO.N,/D7_1*%
X120650000Y-101615000D03*
%TD*%
D10*
%TO.P,RN4,1,common*%
%TO.N,+5V*%
X157480000Y-75580000D03*
D11*
%TO.P,RN4,2,R1*%
%TO.N,/D0_3*%
X157480000Y-73040000D03*
%TO.P,RN4,3,R2*%
%TO.N,/D1_3*%
X157480000Y-70500000D03*
%TO.P,RN4,4,R3*%
%TO.N,/D2_3*%
X157480000Y-67960000D03*
%TO.P,RN4,5,R4*%
%TO.N,/D3_3*%
X157480000Y-65420000D03*
%TO.P,RN4,6,R5*%
%TO.N,/D4_3*%
X157480000Y-62880000D03*
%TO.P,RN4,7,R6*%
%TO.N,/D5_3*%
X157480000Y-60340000D03*
%TO.P,RN4,8,R7*%
%TO.N,/D6_3*%
X157480000Y-57800000D03*
%TO.P,RN4,9,R8*%
%TO.N,/D7_3*%
X157480000Y-55260000D03*
%TD*%
D12*
%TO.P,J3,1,Pin_1*%
%TO.N,/D0_1*%
X114300000Y-83820000D03*
D13*
%TO.P,J3,2,Pin_2*%
%TO.N,/D1_1*%
X114300000Y-86360000D03*
%TO.P,J3,3,Pin_3*%
%TO.N,/D2_1*%
X114300000Y-88900000D03*
%TO.P,J3,4,Pin_4*%
%TO.N,/D3_1*%
X114300000Y-91440000D03*
%TO.P,J3,5,Pin_5*%
%TO.N,/D4_1*%
X114300000Y-93980000D03*
%TO.P,J3,6,Pin_6*%
%TO.N,/D5_1*%
X114300000Y-96520000D03*
%TO.P,J3,7,Pin_7*%
%TO.N,/D6_1*%
X114300000Y-99060000D03*
%TO.P,J3,8,Pin_8*%
%TO.N,/D7_1*%
X114300000Y-101600000D03*
%TD*%
D10*
%TO.P,U4,1,~{PL}*%
%TO.N,LOAD*%
X135265000Y-83850000D03*
D11*
%TO.P,U4,2,CP*%
%TO.N,SCLK*%
X135265000Y-86390000D03*
%TO.P,U4,3,D4*%
%TO.N,/D4_3*%
X135265000Y-88930000D03*
%TO.P,U4,4,D5*%
%TO.N,/D5_3*%
X135265000Y-91470000D03*
%TO.P,U4,5,D6*%
%TO.N,/D6_3*%
X135265000Y-94010000D03*
%TO.P,U4,6,D7*%
%TO.N,/D7_3*%
X135265000Y-96550000D03*
%TO.P,U4,7,~{Q7}*%
%TO.N,25-32*%
X135265000Y-99090000D03*
%TO.P,U4,8,GND*%
%TO.N,GNDREF*%
X135265000Y-101630000D03*
%TO.P,U4,9,Q7*%
%TO.N,unconnected-(U4-Pad9)*%
X142885000Y-101630000D03*
%TO.P,U4,10,DS*%
%TO.N,unconnected-(U4-Pad10)*%
X142885000Y-99090000D03*
%TO.P,U4,11,D0*%
%TO.N,/D0_3*%
X142885000Y-96550000D03*
%TO.P,U4,12,D1*%
%TO.N,/D1_3*%
X142885000Y-94010000D03*
%TO.P,U4,13,D2*%
%TO.N,/D2_3*%
X142885000Y-91470000D03*
%TO.P,U4,14,D3*%
%TO.N,/D3_3*%
X142885000Y-88930000D03*
%TO.P,U4,15,~{CE}*%
%TO.N,GNDREF*%
X142885000Y-86390000D03*
%TO.P,U4,16,VCC*%
%TO.N,+5V*%
X142885000Y-83850000D03*
%TD*%
D10*
%TO.P,U2,1,~{PL}*%
%TO.N,LOAD*%
X146060000Y-83835000D03*
D11*
%TO.P,U2,2,CP*%
%TO.N,SCLK*%
X146060000Y-86375000D03*
%TO.P,U2,3,D4*%
%TO.N,/D4_2*%
X146060000Y-88915000D03*
%TO.P,U2,4,D5*%
%TO.N,/D5_2*%
X146060000Y-91455000D03*
%TO.P,U2,5,D6*%
%TO.N,/D6_2*%
X146060000Y-93995000D03*
%TO.P,U2,6,D7*%
%TO.N,/D7_2*%
X146060000Y-96535000D03*
%TO.P,U2,7,~{Q7}*%
%TO.N,17-24*%
X146060000Y-99075000D03*
%TO.P,U2,8,GND*%
%TO.N,GNDREF*%
X146060000Y-101615000D03*
%TO.P,U2,9,Q7*%
%TO.N,unconnected-(U2-Pad9)*%
X153680000Y-101615000D03*
%TO.P,U2,10,DS*%
%TO.N,25-32*%
X153680000Y-99075000D03*
%TO.P,U2,11,D0*%
%TO.N,/D0_2*%
X153680000Y-96535000D03*
%TO.P,U2,12,D1*%
%TO.N,/D1_2*%
X153680000Y-93995000D03*
%TO.P,U2,13,D2*%
%TO.N,/D2_2*%
X153680000Y-91455000D03*
%TO.P,U2,14,D3*%
%TO.N,/D3_2*%
X153680000Y-88915000D03*
%TO.P,U2,15,~{CE}*%
%TO.N,GNDREF*%
X153680000Y-86375000D03*
%TO.P,U2,16,VCC*%
%TO.N,+5V*%
X153680000Y-83835000D03*
%TD*%
D10*
%TO.P,U1,1,~{PL}*%
%TO.N,LOAD*%
X124470000Y-52720000D03*
D11*
%TO.P,U1,2,CP*%
%TO.N,SCLK*%
X124470000Y-55260000D03*
%TO.P,U1,3,D4*%
%TO.N,/D4_0*%
X124470000Y-57800000D03*
%TO.P,U1,4,D5*%
%TO.N,/D5_0*%
X124470000Y-60340000D03*
%TO.P,U1,5,D6*%
%TO.N,/D6_0*%
X124470000Y-62880000D03*
%TO.P,U1,6,D7*%
%TO.N,/D7_0*%
X124470000Y-65420000D03*
%TO.P,U1,7,~{Q7}*%
%TO.N,unconnected-(U1-Pad7)*%
X124470000Y-67960000D03*
%TO.P,U1,8,GND*%
%TO.N,GNDREF*%
X124470000Y-70500000D03*
%TO.P,U1,9,Q7*%
%TO.N,MISO*%
X132090000Y-70500000D03*
%TO.P,U1,10,DS*%
%TO.N,9-16*%
X132090000Y-67960000D03*
%TO.P,U1,11,D0*%
%TO.N,/D0_0*%
X132090000Y-65420000D03*
%TO.P,U1,12,D1*%
%TO.N,/D1_0*%
X132090000Y-62880000D03*
%TO.P,U1,13,D2*%
%TO.N,/D2_0*%
X132090000Y-60340000D03*
%TO.P,U1,14,D3*%
%TO.N,/D3_0*%
X132090000Y-57800000D03*
%TO.P,U1,15,~{CE}*%
%TO.N,GNDREF*%
X132090000Y-55260000D03*
%TO.P,U1,16,VCC*%
%TO.N,+5V*%
X132090000Y-52720000D03*
%TD*%
D10*
%TO.P,U5,1,1*%
%TO.N,unconnected-(U5-Pad1)*%
X137160000Y-44450000D03*
D14*
%TO.P,U5,2,0*%
%TO.N,unconnected-(U5-Pad2)*%
X137160000Y-46990000D03*
%TO.P,U5,3,GND*%
%TO.N,GNDREF*%
X137160000Y-49530000D03*
%TO.P,U5,4,GND*%
X137160000Y-52070000D03*
%TO.P,U5,5,2*%
%TO.N,unconnected-(U5-Pad5)*%
X137160000Y-54610000D03*
%TO.P,U5,6,3*%
%TO.N,unconnected-(U5-Pad6)*%
X137160000Y-57150000D03*
%TO.P,U5,7,4*%
%TO.N,unconnected-(U5-Pad7)*%
X137160000Y-59690000D03*
%TO.P,U5,8,5*%
%TO.N,unconnected-(U5-Pad8)*%
X137160000Y-62230000D03*
%TO.P,U5,9,6*%
%TO.N,unconnected-(U5-Pad9)*%
X137160000Y-64770000D03*
%TO.P,U5,10,7*%
%TO.N,LOAD*%
X137160000Y-67310000D03*
%TO.P,U5,11,8*%
%TO.N,unconnected-(U5-Pad11)*%
X137160000Y-69850000D03*
%TO.P,U5,12,9*%
%TO.N,unconnected-(U5-Pad12)*%
X137160000Y-72390000D03*
%TO.P,U5,13,10*%
%TO.N,unconnected-(U5-Pad13)*%
X152400000Y-72390000D03*
%TO.P,U5,14,16*%
%TO.N,SCLK*%
X152400000Y-69850000D03*
%TO.P,U5,15,14*%
%TO.N,MISO*%
X152400000Y-67310000D03*
%TO.P,U5,16,15*%
%TO.N,unconnected-(U5-Pad16)*%
X152400000Y-64770000D03*
%TO.P,U5,17,18*%
%TO.N,unconnected-(U5-Pad17)*%
X152400000Y-62230000D03*
%TO.P,U5,18,19*%
%TO.N,unconnected-(U5-Pad18)*%
X152400000Y-59690000D03*
%TO.P,U5,19,20*%
%TO.N,unconnected-(U5-Pad19)*%
X152400000Y-57150000D03*
%TO.P,U5,20,21*%
%TO.N,unconnected-(U5-Pad20)*%
X152400000Y-54610000D03*
%TO.P,U5,21,VCC*%
%TO.N,unconnected-(U5-Pad21)*%
X152400000Y-52070000D03*
%TO.P,U5,22,RST*%
%TO.N,unconnected-(U5-Pad22)*%
X152400000Y-49530000D03*
%TO.P,U5,23,GND*%
%TO.N,GNDREF*%
X152400000Y-46990000D03*
%TO.P,U5,24,RAW*%
%TO.N,+5V*%
X152400000Y-44450000D03*
%TD*%
D15*
%TO.N,/D7_3*%
X136209000Y-95206900D03*
X148607500Y-64467200D03*
%TO.N,/D6_3*%
X139171200Y-89197700D03*
X150289800Y-64907600D03*
%TO.N,/D5_3*%
X139863200Y-87899000D03*
X155577900Y-62771400D03*
%TO.N,/D4_3*%
X141437800Y-85887300D03*
X145968900Y-76749200D03*
%TO.N,/D3_3*%
X144367900Y-87195300D03*
X154269300Y-70955300D03*
%TO.N,/D1_3*%
X143986300Y-92717500D03*
X148448200Y-84822700D03*
%TO.N,/D3_1*%
X122425200Y-89972500D03*
X129483200Y-88139900D03*
%TO.N,/D2_1*%
X122560000Y-88702500D03*
X126433200Y-87869000D03*
%TO.N,/D7_2*%
X152118200Y-89323600D03*
X155502400Y-83942200D03*
%TO.N,/D5_2*%
X151731900Y-87569300D03*
X155684900Y-88016400D03*
%TO.N,/D4_2*%
X147933600Y-88804200D03*
X155782000Y-91180800D03*
%TO.N,/D4_0*%
X123026200Y-58834300D03*
X118435400Y-64702300D03*
%TO.N,/D3_0*%
X130112900Y-56668500D03*
X122125600Y-61568200D03*
%TO.N,9-16*%
X129837000Y-70155100D03*
X127071000Y-95617300D03*
%TO.N,SCLK*%
X125877500Y-86678500D03*
X127335700Y-57488300D03*
%TD*%
D16*
%TO.N,/D7_3*%
X163815000Y-55260000D02*
X163830000Y-55245000D01*
X157480000Y-55260000D02*
X163815000Y-55260000D01*
X135991200Y-95424700D02*
X136209000Y-95206900D01*
X135265000Y-95424700D02*
X135991200Y-95424700D01*
X157303100Y-56385300D02*
X157480000Y-56385300D01*
X152583800Y-61104600D02*
X157303100Y-56385300D01*
X151834200Y-61104600D02*
X152583800Y-61104600D01*
X148607500Y-64331300D02*
X151834200Y-61104600D01*
X148607500Y-64467200D02*
X148607500Y-64331300D01*
X157480000Y-55260000D02*
X157480000Y-56385300D01*
X135265000Y-96550000D02*
X135265000Y-95424700D01*
%TO.N,/D6_3*%
X158620300Y-57785000D02*
X158605300Y-57800000D01*
X163830000Y-57785000D02*
X158620300Y-57785000D01*
X157480000Y-57800000D02*
X158605300Y-57800000D01*
X139171200Y-89424200D02*
X139171200Y-89197700D01*
X135710700Y-92884700D02*
X139171200Y-89424200D01*
X135265000Y-92884700D02*
X135710700Y-92884700D01*
X157303100Y-58925300D02*
X157480000Y-58925300D01*
X152583800Y-63644600D02*
X157303100Y-58925300D01*
X151552800Y-63644600D02*
X152583800Y-63644600D01*
X150289800Y-64907600D02*
X151552800Y-63644600D01*
X157480000Y-57800000D02*
X157480000Y-58925300D01*
X135265000Y-94010000D02*
X135265000Y-92884700D01*
%TO.N,/D5_3*%
X157480000Y-60340000D02*
X158605300Y-60340000D01*
X163815000Y-60340000D02*
X163830000Y-60325000D01*
X158605300Y-60340000D02*
X163815000Y-60340000D01*
X156884000Y-61465300D02*
X157480000Y-61465300D01*
X155577900Y-62771400D02*
X156884000Y-61465300D01*
X157480000Y-60340000D02*
X157480000Y-61465300D01*
X135265000Y-91470000D02*
X136390300Y-91470000D01*
X136390300Y-90952900D02*
X136390300Y-91470000D01*
X139444200Y-87899000D02*
X136390300Y-90952900D01*
X139863200Y-87899000D02*
X139444200Y-87899000D01*
%TO.N,/D4_3*%
X163815000Y-62880000D02*
X163830000Y-62865000D01*
X157480000Y-62880000D02*
X163815000Y-62880000D01*
X157303100Y-64005300D02*
X157480000Y-64005300D01*
X152583800Y-68724600D02*
X157303100Y-64005300D01*
X151860800Y-68724600D02*
X152583800Y-68724600D01*
X145968900Y-74616500D02*
X151860800Y-68724600D01*
X145968900Y-76749200D02*
X145968900Y-74616500D01*
X157480000Y-62880000D02*
X157480000Y-64005300D01*
X135265000Y-88930000D02*
X136390300Y-88930000D01*
X140255200Y-87069900D02*
X141437800Y-85887300D01*
X138250400Y-87069900D02*
X140255200Y-87069900D01*
X136390300Y-88930000D02*
X138250400Y-87069900D01*
%TO.N,/D3_3*%
X163815000Y-65420000D02*
X163830000Y-65405000D01*
X157480000Y-65420000D02*
X163815000Y-65420000D01*
X143758500Y-87804700D02*
X144367900Y-87195300D01*
X142885000Y-87804700D02*
X143758500Y-87804700D01*
X157198700Y-66545300D02*
X157480000Y-66545300D01*
X154269300Y-69474700D02*
X157198700Y-66545300D01*
X154269300Y-70955300D02*
X154269300Y-69474700D01*
X157480000Y-65420000D02*
X157480000Y-66545300D01*
X142885000Y-88930000D02*
X142885000Y-87804700D01*
%TO.N,/D2_3*%
X163815000Y-67960000D02*
X163830000Y-67945000D01*
X157480000Y-67960000D02*
X163815000Y-67960000D01*
X157303100Y-69085300D02*
X157480000Y-69085300D01*
X147722900Y-78665500D02*
X157303100Y-69085300D01*
X147722900Y-86317900D02*
X147722900Y-78665500D01*
X146523500Y-87517300D02*
X147722900Y-86317900D01*
X145835700Y-87517300D02*
X146523500Y-87517300D01*
X144010300Y-89342700D02*
X145835700Y-87517300D01*
X144010300Y-89468100D02*
X144010300Y-89342700D01*
X143133700Y-90344700D02*
X144010300Y-89468100D01*
X142885000Y-90344700D02*
X143133700Y-90344700D01*
X142885000Y-91470000D02*
X142885000Y-90344700D01*
X157480000Y-67960000D02*
X157480000Y-69085300D01*
%TO.N,/D1_3*%
X157480000Y-70500000D02*
X158605300Y-70500000D01*
X163815000Y-70500000D02*
X163830000Y-70485000D01*
X158605300Y-70500000D02*
X163815000Y-70500000D01*
X143819100Y-92884700D02*
X143986300Y-92717500D01*
X142885000Y-92884700D02*
X143819100Y-92884700D01*
X157198700Y-71625300D02*
X157480000Y-71625300D01*
X148448200Y-80375800D02*
X157198700Y-71625300D01*
X148448200Y-84822700D02*
X148448200Y-80375800D01*
X157480000Y-70500000D02*
X157480000Y-71625300D01*
X142885000Y-94010000D02*
X142885000Y-92884700D01*
%TO.N,/D0_3*%
X157480000Y-73040000D02*
X158605300Y-73040000D01*
X158620300Y-73025000D02*
X162404700Y-73025000D01*
X158605300Y-73040000D02*
X158620300Y-73025000D01*
X163830000Y-73025000D02*
X162404700Y-73025000D01*
X156776700Y-74165300D02*
X157480000Y-74165300D01*
X151026900Y-79915100D02*
X156776700Y-74165300D01*
X151026900Y-86758500D02*
X151026900Y-79915100D01*
X147600400Y-90185000D02*
X151026900Y-86758500D01*
X145720400Y-90185000D02*
X147600400Y-90185000D01*
X144725300Y-91180100D02*
X145720400Y-90185000D01*
X144725300Y-93865700D02*
X144725300Y-91180100D01*
X143166300Y-95424700D02*
X144725300Y-93865700D01*
X142885000Y-95424700D02*
X143166300Y-95424700D01*
X142885000Y-96550000D02*
X142885000Y-95424700D01*
X157480000Y-73040000D02*
X157480000Y-74165300D01*
%TO.N,/D7_1*%
X123760800Y-97660300D02*
X124470000Y-97660300D01*
X120931400Y-100489700D02*
X123760800Y-97660300D01*
X120650000Y-100489700D02*
X120931400Y-100489700D01*
X120650000Y-101615000D02*
X120650000Y-100489700D01*
X124470000Y-96535000D02*
X124470000Y-97660300D01*
X119509700Y-101600000D02*
X119524700Y-101615000D01*
X114300000Y-101600000D02*
X119509700Y-101600000D01*
X120650000Y-101615000D02*
X119524700Y-101615000D01*
%TO.N,/D6_1*%
X119509700Y-99060000D02*
X119524700Y-99075000D01*
X114300000Y-99060000D02*
X119509700Y-99060000D01*
X120650000Y-99075000D02*
X120087400Y-99075000D01*
X120087400Y-99075000D02*
X119524700Y-99075000D01*
X124042100Y-95120300D02*
X124470000Y-95120300D01*
X120087400Y-99075000D02*
X124042100Y-95120300D01*
X124470000Y-93995000D02*
X124470000Y-95120300D01*
%TO.N,/D5_1*%
X119509700Y-96520000D02*
X119524700Y-96535000D01*
X114300000Y-96520000D02*
X119509700Y-96520000D01*
X120650000Y-96535000D02*
X120087400Y-96535000D01*
X120087400Y-96535000D02*
X119524700Y-96535000D01*
X124042100Y-92580300D02*
X124470000Y-92580300D01*
X120087400Y-96535000D02*
X124042100Y-92580300D01*
X124470000Y-91455000D02*
X124470000Y-92580300D01*
%TO.N,/D4_1*%
X119509700Y-93980000D02*
X119524700Y-93995000D01*
X114300000Y-93980000D02*
X119509700Y-93980000D01*
X120650000Y-93995000D02*
X120226200Y-93995000D01*
X120226200Y-93995000D02*
X119524700Y-93995000D01*
X124180900Y-90040300D02*
X124470000Y-90040300D01*
X120226200Y-93995000D02*
X124180900Y-90040300D01*
X124470000Y-88915000D02*
X124470000Y-90040300D01*
%TO.N,/D3_1*%
X130189600Y-88139900D02*
X130964700Y-88915000D01*
X129483200Y-88139900D02*
X130189600Y-88139900D01*
X132090000Y-88915000D02*
X130964700Y-88915000D01*
X121775300Y-90622400D02*
X122425200Y-89972500D01*
X121775300Y-91455000D02*
X121775300Y-90622400D01*
X120650000Y-91455000D02*
X121775300Y-91455000D01*
X119509700Y-91440000D02*
X119524700Y-91455000D01*
X114300000Y-91440000D02*
X119509700Y-91440000D01*
X120650000Y-91455000D02*
X119524700Y-91455000D01*
%TO.N,/D2_1*%
X122347500Y-88915000D02*
X122560000Y-88702500D01*
X120650000Y-88915000D02*
X122347500Y-88915000D01*
X130019200Y-91455000D02*
X132090000Y-91455000D01*
X126433200Y-87869000D02*
X130019200Y-91455000D01*
X119509700Y-88900000D02*
X119524700Y-88915000D01*
X114300000Y-88900000D02*
X119509700Y-88900000D01*
X120650000Y-88915000D02*
X119524700Y-88915000D01*
%TO.N,/D1_1*%
X130964700Y-93743100D02*
X130964700Y-93995000D01*
X124721900Y-87500300D02*
X130964700Y-93743100D01*
X122900600Y-87500300D02*
X124721900Y-87500300D01*
X121775300Y-86375000D02*
X122900600Y-87500300D01*
X120650000Y-86375000D02*
X121775300Y-86375000D01*
X132090000Y-93995000D02*
X130964700Y-93995000D01*
X119509700Y-86360000D02*
X119524700Y-86375000D01*
X114300000Y-86360000D02*
X119509700Y-86360000D01*
X120650000Y-86375000D02*
X119524700Y-86375000D01*
%TO.N,/D0_1*%
X132090000Y-96535000D02*
X130964700Y-96535000D01*
X120650000Y-83835000D02*
X119524700Y-83835000D01*
X114300000Y-83835000D02*
X119524700Y-83835000D01*
X114300000Y-83820000D02*
X114300000Y-83835000D01*
X130964700Y-96816300D02*
X130964700Y-96535000D01*
X124722800Y-103058200D02*
X130964700Y-96816300D01*
X113697000Y-103058200D02*
X124722800Y-103058200D01*
X112871100Y-102232300D02*
X113697000Y-103058200D01*
X112871100Y-85263900D02*
X112871100Y-102232300D01*
X114300000Y-83835000D02*
X112871100Y-85263900D01*
%TO.N,/D7_2*%
X158620300Y-83820000D02*
X158605300Y-83835000D01*
X163830000Y-83820000D02*
X158620300Y-83820000D01*
X157486500Y-83835000D02*
X158605300Y-83835000D01*
X157486500Y-83835000D02*
X157480000Y-83835000D01*
X152118200Y-89773500D02*
X152118200Y-89323600D01*
X146482000Y-95409700D02*
X152118200Y-89773500D01*
X146060000Y-95409700D02*
X146482000Y-95409700D01*
X156247500Y-83942200D02*
X156354700Y-83835000D01*
X155502400Y-83942200D02*
X156247500Y-83942200D01*
X157480000Y-83835000D02*
X156354700Y-83835000D01*
X146060000Y-96535000D02*
X146060000Y-95409700D01*
%TO.N,/D6_2*%
X158620300Y-86360000D02*
X158605300Y-86375000D01*
X163830000Y-86360000D02*
X158620300Y-86360000D01*
X157480000Y-86375000D02*
X158605300Y-86375000D01*
X146060000Y-93995000D02*
X147185300Y-93995000D01*
X147185300Y-93230800D02*
X147185300Y-93995000D01*
X152851500Y-87564600D02*
X147185300Y-93230800D01*
X154788700Y-87564600D02*
X152851500Y-87564600D01*
X155978300Y-86375000D02*
X154788700Y-87564600D01*
X157480000Y-86375000D02*
X155978300Y-86375000D01*
%TO.N,/D5_2*%
X158620300Y-88900000D02*
X158605300Y-88915000D01*
X163830000Y-88900000D02*
X158620300Y-88900000D01*
X158042700Y-88915000D02*
X158605300Y-88915000D01*
X158042700Y-88915000D02*
X157480000Y-88915000D01*
X151071000Y-87569300D02*
X151731900Y-87569300D01*
X147185300Y-91455000D02*
X151071000Y-87569300D01*
X156354700Y-88686200D02*
X156354700Y-88915000D01*
X155684900Y-88016400D02*
X156354700Y-88686200D01*
X157480000Y-88915000D02*
X156354700Y-88915000D01*
X146060000Y-91455000D02*
X147185300Y-91455000D01*
%TO.N,/D4_2*%
X158620300Y-91440000D02*
X158605300Y-91455000D01*
X163830000Y-91440000D02*
X158620300Y-91440000D01*
X157480000Y-91455000D02*
X158605300Y-91455000D01*
X147822800Y-88915000D02*
X147933600Y-88804200D01*
X146060000Y-88915000D02*
X147822800Y-88915000D01*
X156080500Y-91180800D02*
X156354700Y-91455000D01*
X155782000Y-91180800D02*
X156080500Y-91180800D01*
X157480000Y-91455000D02*
X156354700Y-91455000D01*
%TO.N,/D3_2*%
X153680000Y-88915000D02*
X153680000Y-90040300D01*
X157480000Y-93995000D02*
X157480000Y-92869700D01*
X158620300Y-93980000D02*
X158605300Y-93995000D01*
X163830000Y-93980000D02*
X158620300Y-93980000D01*
X157480000Y-93995000D02*
X158605300Y-93995000D01*
X156432700Y-92869700D02*
X157480000Y-92869700D01*
X154914100Y-91351100D02*
X156432700Y-92869700D01*
X154914100Y-91092400D02*
X154914100Y-91351100D01*
X153862000Y-90040300D02*
X154914100Y-91092400D01*
X153680000Y-90040300D02*
X153862000Y-90040300D01*
%TO.N,/D2_2*%
X156790800Y-95409700D02*
X157480000Y-95409700D01*
X153961400Y-92580300D02*
X156790800Y-95409700D01*
X153680000Y-92580300D02*
X153961400Y-92580300D01*
X153680000Y-91455000D02*
X153680000Y-92580300D01*
X157480000Y-96535000D02*
X157480000Y-95409700D01*
X158620300Y-96520000D02*
X158605300Y-96535000D01*
X163830000Y-96520000D02*
X158620300Y-96520000D01*
X157480000Y-96535000D02*
X158605300Y-96535000D01*
%TO.N,/D1_2*%
X156790800Y-97949700D02*
X157480000Y-97949700D01*
X153961400Y-95120300D02*
X156790800Y-97949700D01*
X153680000Y-95120300D02*
X153961400Y-95120300D01*
X153680000Y-93995000D02*
X153680000Y-95120300D01*
X157480000Y-99075000D02*
X157480000Y-97949700D01*
X158620300Y-99060000D02*
X158605300Y-99075000D01*
X163830000Y-99060000D02*
X158620300Y-99060000D01*
X157480000Y-99075000D02*
X158605300Y-99075000D01*
%TO.N,/D0_2*%
X156790800Y-100489700D02*
X157480000Y-100489700D01*
X153961400Y-97660300D02*
X156790800Y-100489700D01*
X153680000Y-97660300D02*
X153961400Y-97660300D01*
X153680000Y-96535000D02*
X153680000Y-97660300D01*
X157480000Y-101615000D02*
X157480000Y-100489700D01*
X158620300Y-101600000D02*
X158605300Y-101615000D01*
X163830000Y-101600000D02*
X158620300Y-101600000D01*
X157480000Y-101615000D02*
X158605300Y-101615000D01*
%TO.N,/D7_0*%
X120650000Y-73010000D02*
X120650000Y-72447300D01*
X114877700Y-72447300D02*
X114300000Y-73025000D01*
X120650000Y-72447300D02*
X114877700Y-72447300D01*
X123867300Y-69230000D02*
X120650000Y-72447300D01*
X124856700Y-69230000D02*
X123867300Y-69230000D01*
X125620900Y-68465800D02*
X124856700Y-69230000D01*
X125620900Y-67414900D02*
X125620900Y-68465800D01*
X124751300Y-66545300D02*
X125620900Y-67414900D01*
X124470000Y-66545300D02*
X124751300Y-66545300D01*
X124470000Y-65420000D02*
X124470000Y-66545300D01*
%TO.N,/D6_0*%
X120931300Y-69344700D02*
X120650000Y-69344700D01*
X123344700Y-66931300D02*
X120931300Y-69344700D01*
X123344700Y-64849200D02*
X123344700Y-66931300D01*
X124188600Y-64005300D02*
X123344700Y-64849200D01*
X124470000Y-64005300D02*
X124188600Y-64005300D01*
X124470000Y-62880000D02*
X124470000Y-64005300D01*
X120650000Y-70470000D02*
X120650000Y-69907300D01*
X120650000Y-69907300D02*
X120650000Y-69344700D01*
X114877700Y-69907300D02*
X114300000Y-70485000D01*
X120650000Y-69907300D02*
X114877700Y-69907300D01*
%TO.N,/D5_0*%
X114315000Y-67930000D02*
X114300000Y-67945000D01*
X120650000Y-67930000D02*
X114315000Y-67930000D01*
X120931400Y-66804700D02*
X120650000Y-66804700D01*
X121775300Y-65960800D02*
X120931400Y-66804700D01*
X121775300Y-63878700D02*
X121775300Y-65960800D01*
X124188700Y-61465300D02*
X121775300Y-63878700D01*
X124470000Y-61465300D02*
X124188700Y-61465300D01*
X124470000Y-60340000D02*
X124470000Y-61465300D01*
X120650000Y-67930000D02*
X120650000Y-66804700D01*
%TO.N,/D4_0*%
X123344700Y-58515800D02*
X123026200Y-58834300D01*
X123344700Y-57800000D02*
X123344700Y-58515800D01*
X124470000Y-57800000D02*
X123344700Y-57800000D01*
X118435400Y-64702300D02*
X118435400Y-65046100D01*
X119180800Y-65046100D02*
X118435400Y-65046100D01*
X119524700Y-65390000D02*
X119180800Y-65046100D01*
X114658900Y-65046100D02*
X114300000Y-65405000D01*
X118435400Y-65046100D02*
X114658900Y-65046100D01*
X120650000Y-65390000D02*
X119524700Y-65390000D01*
%TO.N,/D3_0*%
X114315000Y-62850000D02*
X114300000Y-62865000D01*
X120650000Y-62850000D02*
X114315000Y-62850000D01*
X130964700Y-57520300D02*
X130112900Y-56668500D01*
X130964700Y-57800000D02*
X130964700Y-57520300D01*
X121775300Y-61918500D02*
X121775300Y-62850000D01*
X122125600Y-61568200D02*
X121775300Y-61918500D01*
X120650000Y-62850000D02*
X121775300Y-62850000D01*
X132090000Y-57800000D02*
X130964700Y-57800000D01*
%TO.N,/D2_0*%
X132090000Y-60340000D02*
X132090000Y-61465300D01*
X114315000Y-60310000D02*
X114300000Y-60325000D01*
X120650000Y-60310000D02*
X114315000Y-60310000D01*
X120650000Y-60310000D02*
X121775300Y-60310000D01*
X132371400Y-61465300D02*
X132090000Y-61465300D01*
X133215300Y-62309200D02*
X132371400Y-61465300D01*
X133215300Y-63348000D02*
X133215300Y-62309200D01*
X132551600Y-64011700D02*
X133215300Y-63348000D01*
X129892200Y-64011700D02*
X132551600Y-64011700D01*
X125028000Y-59147500D02*
X129892200Y-64011700D01*
X123738800Y-59147500D02*
X125028000Y-59147500D01*
X122576300Y-60310000D02*
X123738800Y-59147500D01*
X121775300Y-60310000D02*
X122576300Y-60310000D01*
%TO.N,/D1_0*%
X132090000Y-62880000D02*
X130964700Y-62880000D01*
X114315000Y-57770000D02*
X114300000Y-57785000D01*
X120650000Y-57770000D02*
X114315000Y-57770000D01*
X120650000Y-57770000D02*
X121775300Y-57770000D01*
X130964700Y-62598700D02*
X130964700Y-62880000D01*
X125040700Y-56674700D02*
X130964700Y-62598700D01*
X122870600Y-56674700D02*
X125040700Y-56674700D01*
X121775300Y-57770000D02*
X122870600Y-56674700D01*
%TO.N,/D0_0*%
X114300000Y-55245000D02*
X115725300Y-55245000D01*
X115740300Y-55230000D02*
X120650000Y-55230000D01*
X115725300Y-55245000D02*
X115740300Y-55230000D01*
X122900000Y-54105300D02*
X121775300Y-55230000D01*
X126449200Y-54105300D02*
X122900000Y-54105300D01*
X131558500Y-59214600D02*
X126449200Y-54105300D01*
X132564100Y-59214600D02*
X131558500Y-59214600D01*
X133728600Y-60379100D02*
X132564100Y-59214600D01*
X133728600Y-63781400D02*
X133728600Y-60379100D01*
X132090000Y-65420000D02*
X133728600Y-63781400D01*
X120650000Y-55230000D02*
X121775300Y-55230000D01*
%TO.N,25-32*%
X137581900Y-97898400D02*
X136390300Y-99090000D01*
X151378100Y-97898400D02*
X137581900Y-97898400D01*
X152554700Y-99075000D02*
X151378100Y-97898400D01*
X153680000Y-99075000D02*
X152554700Y-99075000D01*
X135265000Y-99090000D02*
X136390300Y-99090000D01*
%TO.N,17-24*%
X134416100Y-100275800D02*
X133215300Y-99075000D01*
X143733900Y-100275800D02*
X134416100Y-100275800D01*
X144934700Y-99075000D02*
X143733900Y-100275800D01*
X146060000Y-99075000D02*
X144934700Y-99075000D01*
X132090000Y-99075000D02*
X133215300Y-99075000D01*
D17*
%TO.N,+5V*%
X132090000Y-83835000D02*
X133340300Y-83835000D01*
X142885000Y-83850000D02*
X141634700Y-83850000D01*
X157480000Y-75580000D02*
X158730300Y-75580000D01*
X153680000Y-80630300D02*
X157480000Y-76830300D01*
X153680000Y-83835000D02*
X153680000Y-80630300D01*
X157480000Y-75580000D02*
X157480000Y-76830300D01*
X123120700Y-51469600D02*
X121900300Y-52690000D01*
X129589300Y-51469600D02*
X123120700Y-51469600D01*
X130839700Y-52720000D02*
X129589300Y-51469600D01*
X132090000Y-52720000D02*
X130839700Y-52720000D01*
X120650000Y-52690000D02*
X121900300Y-52690000D01*
X132090000Y-52720000D02*
X133340300Y-52720000D01*
X135260300Y-50800000D02*
X133340300Y-52720000D01*
X146050000Y-50800000D02*
X135260300Y-50800000D01*
X152400000Y-44450000D02*
X146050000Y-50800000D01*
X158730300Y-75580000D02*
X165398400Y-75580000D01*
X164177800Y-104155000D02*
X157480000Y-104155000D01*
X165398400Y-102934400D02*
X164177800Y-104155000D01*
X165398400Y-75580000D02*
X165398400Y-102934400D01*
X165398400Y-54578700D02*
X165398400Y-75580000D01*
X155269700Y-44450000D02*
X165398400Y-54578700D01*
X152400000Y-44450000D02*
X155269700Y-44450000D01*
X115297300Y-81295000D02*
X120650000Y-81295000D01*
X112749600Y-78747300D02*
X115297300Y-81295000D01*
X112749600Y-53910100D02*
X112749600Y-78747300D01*
X113969700Y-52690000D02*
X112749600Y-53910100D01*
X120650000Y-52690000D02*
X113969700Y-52690000D01*
X129574300Y-85100400D02*
X130839700Y-83835000D01*
X123477000Y-85100400D02*
X129574300Y-85100400D01*
X121900300Y-83523700D02*
X123477000Y-85100400D01*
X121900300Y-83295900D02*
X121900300Y-83523700D01*
X121149700Y-82545300D02*
X121900300Y-83295900D01*
X120650000Y-82545300D02*
X121149700Y-82545300D01*
X120650000Y-81295000D02*
X120650000Y-82545300D01*
X132090000Y-83835000D02*
X130839700Y-83835000D01*
X133340300Y-84223500D02*
X133340300Y-83835000D01*
X134217200Y-85100400D02*
X133340300Y-84223500D01*
X140384300Y-85100400D02*
X134217200Y-85100400D01*
X141634700Y-83850000D02*
X140384300Y-85100400D01*
D16*
%TO.N,9-16*%
X130964700Y-69027400D02*
X129837000Y-70155100D01*
X130964700Y-67960000D02*
X130964700Y-69027400D01*
X127071000Y-96474000D02*
X124470000Y-99075000D01*
X127071000Y-95617300D02*
X127071000Y-96474000D01*
X132090000Y-67960000D02*
X130964700Y-67960000D01*
%TO.N,MISO*%
X132090000Y-70500000D02*
X133215300Y-70500000D01*
X135279900Y-68435400D02*
X133215300Y-70500000D01*
X151274600Y-68435400D02*
X135279900Y-68435400D01*
X152400000Y-67310000D02*
X151274600Y-68435400D01*
%TO.N,SCLK*%
X125595300Y-55747900D02*
X125595300Y-55260000D01*
X127335700Y-57488300D02*
X125595300Y-55747900D01*
X124470000Y-55260000D02*
X125595300Y-55260000D01*
X125595300Y-86396300D02*
X125595300Y-86375000D01*
X125877500Y-86678500D02*
X125595300Y-86396300D01*
X130499500Y-86678500D02*
X125877500Y-86678500D01*
X131369600Y-87548600D02*
X130499500Y-86678500D01*
X132981100Y-87548600D02*
X131369600Y-87548600D01*
X134139700Y-86390000D02*
X132981100Y-87548600D01*
X124470000Y-86375000D02*
X125595300Y-86375000D01*
X134702400Y-86390000D02*
X134139700Y-86390000D01*
X134702400Y-86390000D02*
X135265000Y-86390000D01*
X145354900Y-85120000D02*
X146060000Y-85825100D01*
X141179200Y-85120000D02*
X145354900Y-85120000D01*
X139909200Y-86390000D02*
X141179200Y-85120000D01*
X135265000Y-86390000D02*
X139909200Y-86390000D01*
X146060000Y-86375000D02*
X146060000Y-85825100D01*
X146147100Y-85825100D02*
X146060000Y-85825100D01*
X147272500Y-84699700D02*
X146147100Y-85825100D01*
X147272500Y-74977500D02*
X147272500Y-84699700D01*
X152400000Y-69850000D02*
X147272500Y-74977500D01*
%TO.N,LOAD*%
X124470000Y-83835000D02*
X125595300Y-83835000D01*
X125595300Y-83835000D02*
X129874700Y-79555600D01*
X134139700Y-83820600D02*
X134139700Y-83850000D01*
X129874700Y-79555600D02*
X134139700Y-83820600D01*
X135265000Y-83850000D02*
X134139700Y-83850000D01*
X137515600Y-82724700D02*
X136390300Y-83850000D01*
X143824400Y-82724700D02*
X137515600Y-82724700D01*
X144934700Y-83835000D02*
X143824400Y-82724700D01*
X146060000Y-83835000D02*
X144934700Y-83835000D01*
X135265000Y-83850000D02*
X136390300Y-83850000D01*
X127780300Y-52720000D02*
X124470000Y-52720000D01*
X131590300Y-56530000D02*
X127780300Y-52720000D01*
X132486700Y-56530000D02*
X131590300Y-56530000D01*
X134540200Y-58583500D02*
X132486700Y-56530000D01*
X134540200Y-67310000D02*
X134540200Y-58583500D01*
X137160000Y-67310000D02*
X134540200Y-67310000D01*
X130925400Y-78504900D02*
X129874700Y-79555600D01*
X130925400Y-70010400D02*
X130925400Y-78504900D01*
X131850400Y-69085400D02*
X130925400Y-70010400D01*
X132764800Y-69085400D02*
X131850400Y-69085400D01*
X134540200Y-67310000D02*
X132764800Y-69085400D01*
%TD*%
%TA.AperFunction,Conductor*%
%TO.N,GNDREF*%
G36*
X135793621Y-43708002D02*
G01*
X135840114Y-43761658D01*
X135851500Y-43814000D01*
X135851500Y-45298134D01*
X135858255Y-45360316D01*
X135909385Y-45496705D01*
X135996739Y-45613261D01*
X136113295Y-45700615D01*
X136249684Y-45751745D01*
X136260474Y-45752917D01*
X136262606Y-45753803D01*
X136265222Y-45754425D01*
X136265121Y-45754848D01*
X136326035Y-45780155D01*
X136366463Y-45838517D01*
X136368922Y-45909471D01*
X136332629Y-45970490D01*
X136323969Y-45977489D01*
X136320207Y-45980646D01*
X136315700Y-45983802D01*
X136153802Y-46145700D01*
X136022477Y-46333251D01*
X136020154Y-46338233D01*
X136020151Y-46338238D01*
X135976957Y-46430869D01*
X135925716Y-46540757D01*
X135924294Y-46546065D01*
X135924293Y-46546067D01*
X135901700Y-46630385D01*
X135866457Y-46761913D01*
X135846502Y-46990000D01*
X135866457Y-47218087D01*
X135867881Y-47223400D01*
X135867881Y-47223402D01*
X135923791Y-47432057D01*
X135925716Y-47439243D01*
X135928039Y-47444224D01*
X135928039Y-47444225D01*
X136020151Y-47641762D01*
X136020154Y-47641767D01*
X136022477Y-47646749D01*
X136036265Y-47666440D01*
X136144652Y-47821232D01*
X136153802Y-47834300D01*
X136315700Y-47996198D01*
X136320208Y-47999355D01*
X136320211Y-47999357D01*
X136373017Y-48036332D01*
X136503251Y-48127523D01*
X136508233Y-48129846D01*
X136508238Y-48129849D01*
X136543049Y-48146081D01*
X136596334Y-48192998D01*
X136615795Y-48261275D01*
X136595253Y-48329235D01*
X136543049Y-48374471D01*
X136508489Y-48390586D01*
X136498994Y-48396069D01*
X136446952Y-48432509D01*
X136438576Y-48442988D01*
X136445644Y-48456434D01*
X137147188Y-49157978D01*
X137161132Y-49165592D01*
X137162965Y-49165461D01*
X137169580Y-49161210D01*
X137875077Y-48455713D01*
X137881507Y-48443938D01*
X137872211Y-48431923D01*
X137821006Y-48396069D01*
X137811511Y-48390586D01*
X137776951Y-48374471D01*
X137723666Y-48327554D01*
X137704205Y-48259277D01*
X137724747Y-48191317D01*
X137776951Y-48146081D01*
X137811762Y-48129849D01*
X137811767Y-48129846D01*
X137816749Y-48127523D01*
X137946983Y-48036332D01*
X137999789Y-47999357D01*
X137999792Y-47999355D01*
X138004300Y-47996198D01*
X138166198Y-47834300D01*
X138175349Y-47821232D01*
X138283735Y-47666440D01*
X138297523Y-47646749D01*
X138299846Y-47641767D01*
X138299849Y-47641762D01*
X138391961Y-47444225D01*
X138391961Y-47444224D01*
X138394284Y-47439243D01*
X138396210Y-47432057D01*
X138452119Y-47223402D01*
X138452119Y-47223400D01*
X138453543Y-47218087D01*
X138473498Y-46990000D01*
X138453543Y-46761913D01*
X138418300Y-46630385D01*
X138395707Y-46546067D01*
X138395706Y-46546065D01*
X138394284Y-46540757D01*
X138343043Y-46430869D01*
X138299849Y-46338238D01*
X138299846Y-46338233D01*
X138297523Y-46333251D01*
X138166198Y-46145700D01*
X138004300Y-45983802D01*
X137999789Y-45980643D01*
X137995576Y-45977108D01*
X137996527Y-45975974D01*
X137956529Y-45925929D01*
X137949224Y-45855310D01*
X137981258Y-45791951D01*
X138042462Y-45755970D01*
X138059517Y-45752918D01*
X138070316Y-45751745D01*
X138206705Y-45700615D01*
X138323261Y-45613261D01*
X138410615Y-45496705D01*
X138461745Y-45360316D01*
X138468500Y-45298134D01*
X138468500Y-43814000D01*
X138488502Y-43745879D01*
X138542158Y-43699386D01*
X138594500Y-43688000D01*
X151113776Y-43688000D01*
X151181897Y-43708002D01*
X151228390Y-43761658D01*
X151238494Y-43831932D01*
X151227971Y-43867250D01*
X151165716Y-44000757D01*
X151106457Y-44221913D01*
X151086502Y-44450000D01*
X151086981Y-44455475D01*
X151100755Y-44612913D01*
X151086766Y-44682518D01*
X151064329Y-44712990D01*
X145772724Y-50004595D01*
X145710412Y-50038621D01*
X145683629Y-50041500D01*
X138541292Y-50041500D01*
X138473171Y-50021498D01*
X138426678Y-49967842D01*
X138416574Y-49897568D01*
X138419585Y-49882889D01*
X138451625Y-49763312D01*
X138453528Y-49752519D01*
X138472517Y-49535475D01*
X138472517Y-49524525D01*
X138453528Y-49307481D01*
X138451625Y-49296688D01*
X138395236Y-49086239D01*
X138391490Y-49075947D01*
X138299414Y-48878489D01*
X138293931Y-48868994D01*
X138257491Y-48816952D01*
X138247012Y-48808576D01*
X138233566Y-48815644D01*
X137249095Y-49800115D01*
X137186783Y-49834141D01*
X137115968Y-49829076D01*
X137070905Y-49800115D01*
X136085713Y-48814923D01*
X136073938Y-48808493D01*
X136061923Y-48817789D01*
X136026069Y-48868994D01*
X136020586Y-48878489D01*
X135928510Y-49075947D01*
X135924764Y-49086239D01*
X135868375Y-49296688D01*
X135866472Y-49307481D01*
X135847483Y-49524525D01*
X135847483Y-49535475D01*
X135866472Y-49752519D01*
X135868375Y-49763312D01*
X135900415Y-49882889D01*
X135898725Y-49953865D01*
X135858931Y-50012661D01*
X135793666Y-50040609D01*
X135778708Y-50041500D01*
X135327370Y-50041500D01*
X135308420Y-50040067D01*
X135294185Y-50037901D01*
X135294181Y-50037901D01*
X135286951Y-50036801D01*
X135279659Y-50037394D01*
X135279656Y-50037394D01*
X135234282Y-50041085D01*
X135224067Y-50041500D01*
X135216007Y-50041500D01*
X135202717Y-50043049D01*
X135187793Y-50044789D01*
X135183418Y-50045222D01*
X135117961Y-50050546D01*
X135117958Y-50050547D01*
X135110663Y-50051140D01*
X135103699Y-50053396D01*
X135097740Y-50054587D01*
X135091885Y-50055971D01*
X135084619Y-50056818D01*
X135015973Y-50081735D01*
X135011845Y-50083152D01*
X134949364Y-50103393D01*
X134949362Y-50103394D01*
X134942401Y-50105649D01*
X134936146Y-50109445D01*
X134930672Y-50111951D01*
X134925242Y-50114670D01*
X134918363Y-50117167D01*
X134912243Y-50121180D01*
X134912242Y-50121180D01*
X134857324Y-50157186D01*
X134853620Y-50159523D01*
X134791193Y-50197405D01*
X134782816Y-50204803D01*
X134782792Y-50204776D01*
X134779800Y-50207429D01*
X134776567Y-50210132D01*
X134770448Y-50214144D01*
X134765416Y-50219456D01*
X134717172Y-50270383D01*
X134714794Y-50272825D01*
X133193152Y-51794467D01*
X133130842Y-51828491D01*
X133060027Y-51823427D01*
X133014964Y-51794466D01*
X132934300Y-51713802D01*
X132929792Y-51710645D01*
X132929789Y-51710643D01*
X132823343Y-51636109D01*
X132746749Y-51582477D01*
X132741767Y-51580154D01*
X132741762Y-51580151D01*
X132544225Y-51488039D01*
X132544224Y-51488039D01*
X132539243Y-51485716D01*
X132533935Y-51484294D01*
X132533933Y-51484293D01*
X132323402Y-51427881D01*
X132323400Y-51427881D01*
X132318087Y-51426457D01*
X132090000Y-51406502D01*
X131861913Y-51426457D01*
X131856600Y-51427881D01*
X131856598Y-51427881D01*
X131646067Y-51484293D01*
X131646065Y-51484294D01*
X131640757Y-51485716D01*
X131635776Y-51488039D01*
X131635775Y-51488039D01*
X131438238Y-51580151D01*
X131438233Y-51580154D01*
X131433251Y-51582477D01*
X131356657Y-51636109D01*
X131250211Y-51710643D01*
X131250208Y-51710645D01*
X131245700Y-51713802D01*
X131165037Y-51794465D01*
X131102725Y-51828491D01*
X131031910Y-51823426D01*
X130986847Y-51794465D01*
X130173067Y-50980685D01*
X130160680Y-50966273D01*
X130152146Y-50954677D01*
X130147808Y-50948782D01*
X130142230Y-50944043D01*
X130142227Y-50944040D01*
X130107532Y-50914565D01*
X130100016Y-50907635D01*
X130094321Y-50901940D01*
X130088180Y-50897082D01*
X130072049Y-50884319D01*
X130068645Y-50881528D01*
X130018597Y-50839009D01*
X130018595Y-50839008D01*
X130013015Y-50834267D01*
X130006499Y-50830939D01*
X130001450Y-50827572D01*
X129996321Y-50824405D01*
X129990584Y-50819866D01*
X129924425Y-50788945D01*
X129920525Y-50787039D01*
X129855492Y-50753831D01*
X129848384Y-50752092D01*
X129842741Y-50749993D01*
X129836978Y-50748076D01*
X129830350Y-50744978D01*
X129758883Y-50730113D01*
X129754599Y-50729143D01*
X129720258Y-50720740D01*
X129683690Y-50711792D01*
X129678088Y-50711444D01*
X129678085Y-50711444D01*
X129672536Y-50711100D01*
X129672538Y-50711064D01*
X129668545Y-50710825D01*
X129664353Y-50710451D01*
X129657185Y-50708960D01*
X129593420Y-50710685D01*
X129579779Y-50711054D01*
X129576372Y-50711100D01*
X123187769Y-50711100D01*
X123168821Y-50709667D01*
X123161480Y-50708550D01*
X123154583Y-50707501D01*
X123154581Y-50707501D01*
X123147351Y-50706401D01*
X123140059Y-50706994D01*
X123140056Y-50706994D01*
X123094682Y-50710685D01*
X123084467Y-50711100D01*
X123076407Y-50711100D01*
X123063117Y-50712649D01*
X123048193Y-50714389D01*
X123043818Y-50714822D01*
X122978361Y-50720146D01*
X122978358Y-50720147D01*
X122971063Y-50720740D01*
X122964099Y-50722996D01*
X122958140Y-50724187D01*
X122952285Y-50725571D01*
X122945019Y-50726418D01*
X122876373Y-50751335D01*
X122872245Y-50752752D01*
X122809764Y-50772993D01*
X122809762Y-50772994D01*
X122802801Y-50775249D01*
X122796546Y-50779045D01*
X122791072Y-50781551D01*
X122785642Y-50784270D01*
X122778763Y-50786767D01*
X122717716Y-50826791D01*
X122714027Y-50829118D01*
X122705543Y-50834267D01*
X122656393Y-50864091D01*
X122656388Y-50864095D01*
X122651592Y-50867005D01*
X122643216Y-50874403D01*
X122643193Y-50874377D01*
X122640203Y-50877026D01*
X122636964Y-50879734D01*
X122630848Y-50883744D01*
X122625821Y-50889051D01*
X122625817Y-50889054D01*
X122577572Y-50939983D01*
X122575194Y-50942425D01*
X121990266Y-51527353D01*
X121927954Y-51561379D01*
X121857139Y-51556314D01*
X121815250Y-51529393D01*
X121813261Y-51526739D01*
X121696705Y-51439385D01*
X121560316Y-51388255D01*
X121498134Y-51381500D01*
X119801866Y-51381500D01*
X119739684Y-51388255D01*
X119603295Y-51439385D01*
X119486739Y-51526739D01*
X119399385Y-51643295D01*
X119348255Y-51779684D01*
X119346649Y-51794466D01*
X119343972Y-51819108D01*
X119316730Y-51884670D01*
X119258366Y-51925096D01*
X119218709Y-51931500D01*
X114036770Y-51931500D01*
X114017820Y-51930067D01*
X114003585Y-51927901D01*
X114003581Y-51927901D01*
X113996351Y-51926801D01*
X113989059Y-51927394D01*
X113989056Y-51927394D01*
X113943682Y-51931085D01*
X113933467Y-51931500D01*
X113925407Y-51931500D01*
X113921773Y-51931924D01*
X113921767Y-51931924D01*
X113908742Y-51933443D01*
X113897180Y-51934791D01*
X113892832Y-51935221D01*
X113820064Y-51941140D01*
X113813103Y-51943395D01*
X113807163Y-51944582D01*
X113801288Y-51945971D01*
X113794019Y-51946818D01*
X113725370Y-51971736D01*
X113721242Y-51973153D01*
X113658764Y-51993393D01*
X113658762Y-51993394D01*
X113651801Y-51995649D01*
X113645546Y-51999445D01*
X113640072Y-52001951D01*
X113634642Y-52004670D01*
X113627763Y-52007167D01*
X113621643Y-52011180D01*
X113621642Y-52011180D01*
X113566724Y-52047186D01*
X113563020Y-52049523D01*
X113500593Y-52087405D01*
X113492216Y-52094803D01*
X113492192Y-52094776D01*
X113489200Y-52097429D01*
X113485967Y-52100132D01*
X113479848Y-52104144D01*
X113474816Y-52109456D01*
X113426572Y-52160383D01*
X113424194Y-52162825D01*
X112260689Y-53326330D01*
X112246277Y-53338716D01*
X112234682Y-53347249D01*
X112234677Y-53347254D01*
X112228782Y-53351592D01*
X112224043Y-53357170D01*
X112224040Y-53357173D01*
X112194565Y-53391868D01*
X112187635Y-53399384D01*
X112181940Y-53405079D01*
X112179660Y-53407961D01*
X112164319Y-53427351D01*
X112161528Y-53430755D01*
X112120732Y-53478775D01*
X112114267Y-53486385D01*
X112110939Y-53492901D01*
X112107572Y-53497950D01*
X112104405Y-53503079D01*
X112099866Y-53508816D01*
X112068945Y-53574975D01*
X112067042Y-53578869D01*
X112033831Y-53643908D01*
X112032092Y-53651016D01*
X112029993Y-53656659D01*
X112028076Y-53662422D01*
X112024978Y-53669050D01*
X112023488Y-53676212D01*
X112023488Y-53676213D01*
X112010114Y-53740512D01*
X112009144Y-53744796D01*
X111991792Y-53815710D01*
X111991100Y-53826864D01*
X111991064Y-53826862D01*
X111990825Y-53830855D01*
X111990451Y-53835047D01*
X111988960Y-53842215D01*
X111989158Y-53849532D01*
X111991054Y-53919621D01*
X111991100Y-53923028D01*
X111991100Y-78680230D01*
X111989667Y-78699180D01*
X111986401Y-78720649D01*
X111986994Y-78727941D01*
X111986994Y-78727944D01*
X111990685Y-78773318D01*
X111991100Y-78783533D01*
X111991100Y-78791593D01*
X111991525Y-78795237D01*
X111994389Y-78819807D01*
X111994822Y-78824182D01*
X111995291Y-78829941D01*
X112000740Y-78896937D01*
X112002996Y-78903901D01*
X112004187Y-78909860D01*
X112005571Y-78915715D01*
X112006418Y-78922981D01*
X112031335Y-78991627D01*
X112032752Y-78995755D01*
X112055249Y-79065199D01*
X112059045Y-79071454D01*
X112061551Y-79076928D01*
X112064270Y-79082358D01*
X112066767Y-79089237D01*
X112070780Y-79095357D01*
X112070780Y-79095358D01*
X112106786Y-79150276D01*
X112109123Y-79153980D01*
X112147005Y-79216407D01*
X112150721Y-79220615D01*
X112150722Y-79220616D01*
X112154403Y-79224784D01*
X112154376Y-79224808D01*
X112157029Y-79227800D01*
X112159732Y-79231033D01*
X112163744Y-79237152D01*
X112169056Y-79242184D01*
X112219983Y-79290428D01*
X112222425Y-79292806D01*
X114713530Y-81783911D01*
X114725916Y-81798323D01*
X114734449Y-81809918D01*
X114734454Y-81809923D01*
X114738792Y-81815818D01*
X114744370Y-81820557D01*
X114744373Y-81820560D01*
X114779068Y-81850035D01*
X114786584Y-81856965D01*
X114792279Y-81862660D01*
X114795161Y-81864940D01*
X114814551Y-81880281D01*
X114817955Y-81883072D01*
X114868003Y-81925591D01*
X114873585Y-81930333D01*
X114880101Y-81933661D01*
X114885150Y-81937028D01*
X114890279Y-81940195D01*
X114896016Y-81944734D01*
X114943284Y-81966826D01*
X114952969Y-81971352D01*
X115006214Y-82018315D01*
X115025615Y-82086609D01*
X115005014Y-82154551D01*
X114950951Y-82200570D01*
X114899620Y-82211500D01*
X113151866Y-82211500D01*
X113089684Y-82218255D01*
X112953295Y-82269385D01*
X112836739Y-82356739D01*
X112749385Y-82473295D01*
X112698255Y-82609684D01*
X112691500Y-82671866D01*
X112691500Y-84495405D01*
X112671498Y-84563526D01*
X112654595Y-84584500D01*
X112478847Y-84760248D01*
X112470561Y-84767788D01*
X112464082Y-84771900D01*
X112458657Y-84777677D01*
X112417457Y-84821551D01*
X112414702Y-84824393D01*
X112394965Y-84844130D01*
X112392485Y-84847327D01*
X112384782Y-84856347D01*
X112354514Y-84888579D01*
X112350695Y-84895525D01*
X112350693Y-84895528D01*
X112344752Y-84906334D01*
X112333901Y-84922853D01*
X112321486Y-84938859D01*
X112318341Y-84946128D01*
X112318338Y-84946132D01*
X112303926Y-84979437D01*
X112298709Y-84990087D01*
X112277405Y-85028840D01*
X112275434Y-85036515D01*
X112275434Y-85036516D01*
X112272367Y-85048462D01*
X112265963Y-85067166D01*
X112265047Y-85069284D01*
X112257919Y-85085755D01*
X112256680Y-85093578D01*
X112256677Y-85093588D01*
X112251001Y-85129424D01*
X112248595Y-85141044D01*
X112244166Y-85158297D01*
X112237600Y-85183870D01*
X112237600Y-85204124D01*
X112236049Y-85223834D01*
X112232880Y-85243843D01*
X112233626Y-85251735D01*
X112237041Y-85287861D01*
X112237600Y-85299719D01*
X112237600Y-102153533D01*
X112237073Y-102164716D01*
X112235398Y-102172209D01*
X112235647Y-102180135D01*
X112235647Y-102180136D01*
X112237538Y-102240286D01*
X112237600Y-102244245D01*
X112237600Y-102272156D01*
X112238097Y-102276090D01*
X112238097Y-102276091D01*
X112238105Y-102276156D01*
X112239038Y-102287993D01*
X112240427Y-102332189D01*
X112246078Y-102351639D01*
X112250087Y-102371000D01*
X112252626Y-102391097D01*
X112255545Y-102398468D01*
X112255545Y-102398470D01*
X112268904Y-102432212D01*
X112272749Y-102443442D01*
X112282846Y-102478197D01*
X112285082Y-102485893D01*
X112289115Y-102492712D01*
X112289117Y-102492717D01*
X112295393Y-102503328D01*
X112304088Y-102521076D01*
X112311548Y-102539917D01*
X112316210Y-102546333D01*
X112316210Y-102546334D01*
X112337536Y-102575687D01*
X112344052Y-102585607D01*
X112366558Y-102623662D01*
X112380879Y-102637983D01*
X112393719Y-102653016D01*
X112405628Y-102669407D01*
X112411733Y-102674458D01*
X112411738Y-102674463D01*
X112439704Y-102697599D01*
X112448482Y-102705587D01*
X113193348Y-103450453D01*
X113200888Y-103458739D01*
X113205000Y-103465218D01*
X113210777Y-103470643D01*
X113254651Y-103511843D01*
X113257493Y-103514598D01*
X113277230Y-103534335D01*
X113280427Y-103536815D01*
X113289447Y-103544518D01*
X113321679Y-103574786D01*
X113328625Y-103578605D01*
X113328628Y-103578607D01*
X113339434Y-103584548D01*
X113355953Y-103595399D01*
X113371959Y-103607814D01*
X113379228Y-103610959D01*
X113379232Y-103610962D01*
X113412537Y-103625374D01*
X113423187Y-103630591D01*
X113461940Y-103651895D01*
X113469615Y-103653866D01*
X113469616Y-103653866D01*
X113481562Y-103656933D01*
X113500267Y-103663337D01*
X113518855Y-103671381D01*
X113526678Y-103672620D01*
X113526688Y-103672623D01*
X113562524Y-103678299D01*
X113574144Y-103680705D01*
X113605959Y-103688873D01*
X113616970Y-103691700D01*
X113637224Y-103691700D01*
X113656934Y-103693251D01*
X113676943Y-103696420D01*
X113684835Y-103695674D01*
X113703580Y-103693902D01*
X113720962Y-103692259D01*
X113732819Y-103691700D01*
X124644033Y-103691700D01*
X124655216Y-103692227D01*
X124662709Y-103693902D01*
X124670635Y-103693653D01*
X124670636Y-103693653D01*
X124730786Y-103691762D01*
X124734745Y-103691700D01*
X124762656Y-103691700D01*
X124766591Y-103691203D01*
X124766656Y-103691195D01*
X124778493Y-103690262D01*
X124810751Y-103689248D01*
X124814770Y-103689122D01*
X124822689Y-103688873D01*
X124842143Y-103683221D01*
X124861500Y-103679213D01*
X124873730Y-103677668D01*
X124873731Y-103677668D01*
X124881597Y-103676674D01*
X124888968Y-103673755D01*
X124888970Y-103673755D01*
X124922712Y-103660396D01*
X124933942Y-103656551D01*
X124968783Y-103646429D01*
X124968784Y-103646429D01*
X124976393Y-103644218D01*
X124983212Y-103640185D01*
X124983217Y-103640183D01*
X124993828Y-103633907D01*
X125011576Y-103625212D01*
X125030417Y-103617752D01*
X125066187Y-103591764D01*
X125076107Y-103585248D01*
X125107335Y-103566780D01*
X125107338Y-103566778D01*
X125114162Y-103562742D01*
X125128483Y-103548421D01*
X125143517Y-103535580D01*
X125153494Y-103528331D01*
X125159907Y-103523672D01*
X125188098Y-103489595D01*
X125196088Y-103480816D01*
X131106245Y-97570659D01*
X131168557Y-97536633D01*
X131239372Y-97541698D01*
X131267610Y-97556541D01*
X131428737Y-97669363D01*
X131428742Y-97669366D01*
X131433251Y-97672523D01*
X131438233Y-97674846D01*
X131438238Y-97674849D01*
X131472457Y-97690805D01*
X131525742Y-97737722D01*
X131545203Y-97805999D01*
X131524661Y-97873959D01*
X131472457Y-97919195D01*
X131438238Y-97935151D01*
X131438233Y-97935154D01*
X131433251Y-97937477D01*
X131328389Y-98010902D01*
X131250211Y-98065643D01*
X131250208Y-98065645D01*
X131245700Y-98068802D01*
X131083802Y-98230700D01*
X131080645Y-98235208D01*
X131080643Y-98235211D01*
X131048175Y-98281580D01*
X130952477Y-98418251D01*
X130950154Y-98423233D01*
X130950151Y-98423238D01*
X130869409Y-98596392D01*
X130855716Y-98625757D01*
X130854294Y-98631064D01*
X130854293Y-98631067D01*
X130798263Y-98840173D01*
X130796457Y-98846913D01*
X130776502Y-99075000D01*
X130796457Y-99303087D01*
X130797881Y-99308400D01*
X130797881Y-99308402D01*
X130844850Y-99483689D01*
X130855716Y-99524243D01*
X130858039Y-99529224D01*
X130858039Y-99529225D01*
X130950151Y-99726762D01*
X130950154Y-99726767D01*
X130952477Y-99731749D01*
X130955634Y-99736257D01*
X131056004Y-99879600D01*
X131083802Y-99919300D01*
X131245700Y-100081198D01*
X131250208Y-100084355D01*
X131250211Y-100084357D01*
X131325021Y-100136739D01*
X131433251Y-100212523D01*
X131438233Y-100214846D01*
X131438238Y-100214849D01*
X131472457Y-100230805D01*
X131525742Y-100277722D01*
X131545203Y-100345999D01*
X131524661Y-100413959D01*
X131472457Y-100459195D01*
X131438238Y-100475151D01*
X131438233Y-100475154D01*
X131433251Y-100477477D01*
X131404720Y-100497455D01*
X131250211Y-100605643D01*
X131250208Y-100605645D01*
X131245700Y-100608802D01*
X131083802Y-100770700D01*
X131080645Y-100775208D01*
X131080643Y-100775211D01*
X131058439Y-100806922D01*
X130952477Y-100958251D01*
X130950154Y-100963233D01*
X130950151Y-100963238D01*
X130891718Y-101088550D01*
X130855716Y-101165757D01*
X130854294Y-101171065D01*
X130854293Y-101171067D01*
X130851697Y-101180757D01*
X130796457Y-101386913D01*
X130776502Y-101615000D01*
X130796457Y-101843087D01*
X130797881Y-101848400D01*
X130797881Y-101848402D01*
X130812274Y-101902115D01*
X130855716Y-102064243D01*
X130858039Y-102069224D01*
X130858039Y-102069225D01*
X130950151Y-102266762D01*
X130950154Y-102266767D01*
X130952477Y-102271749D01*
X131025902Y-102376611D01*
X131064835Y-102432212D01*
X131083802Y-102459300D01*
X131245700Y-102621198D01*
X131250208Y-102624355D01*
X131250211Y-102624357D01*
X131279688Y-102644997D01*
X131433251Y-102752523D01*
X131438233Y-102754846D01*
X131438238Y-102754849D01*
X131635775Y-102846961D01*
X131640757Y-102849284D01*
X131646065Y-102850706D01*
X131646067Y-102850707D01*
X131856598Y-102907119D01*
X131856600Y-102907119D01*
X131861913Y-102908543D01*
X132090000Y-102928498D01*
X132318087Y-102908543D01*
X132323400Y-102907119D01*
X132323402Y-102907119D01*
X132533933Y-102850707D01*
X132533935Y-102850706D01*
X132539243Y-102849284D01*
X132544225Y-102846961D01*
X132741762Y-102754849D01*
X132741767Y-102754846D01*
X132746749Y-102752523D01*
X132900312Y-102644997D01*
X132929789Y-102624357D01*
X132929792Y-102624355D01*
X132934300Y-102621198D01*
X133096198Y-102459300D01*
X133115166Y-102432212D01*
X133154098Y-102376611D01*
X133227523Y-102271749D01*
X133229846Y-102266767D01*
X133229849Y-102266762D01*
X133321961Y-102069225D01*
X133321961Y-102069224D01*
X133324284Y-102064243D01*
X133367727Y-101902115D01*
X133369226Y-101896522D01*
X133982273Y-101896522D01*
X134029764Y-102073761D01*
X134033510Y-102084053D01*
X134125586Y-102281511D01*
X134131069Y-102291007D01*
X134256028Y-102469467D01*
X134263084Y-102477875D01*
X134417125Y-102631916D01*
X134425533Y-102638972D01*
X134603993Y-102763931D01*
X134613489Y-102769414D01*
X134810947Y-102861490D01*
X134821239Y-102865236D01*
X134993503Y-102911394D01*
X135007599Y-102911058D01*
X135011000Y-102903116D01*
X135011000Y-102897967D01*
X135519000Y-102897967D01*
X135522973Y-102911498D01*
X135531522Y-102912727D01*
X135708761Y-102865236D01*
X135719053Y-102861490D01*
X135916511Y-102769414D01*
X135926007Y-102763931D01*
X136104467Y-102638972D01*
X136112875Y-102631916D01*
X136266916Y-102477875D01*
X136273972Y-102469467D01*
X136398931Y-102291007D01*
X136404414Y-102281511D01*
X136496490Y-102084053D01*
X136500236Y-102073761D01*
X136546394Y-101901497D01*
X136546058Y-101887401D01*
X136538116Y-101884000D01*
X135537115Y-101884000D01*
X135521876Y-101888475D01*
X135520671Y-101889865D01*
X135519000Y-101897548D01*
X135519000Y-102897967D01*
X135011000Y-102897967D01*
X135011000Y-101902115D01*
X135006525Y-101886876D01*
X135005135Y-101885671D01*
X134997452Y-101884000D01*
X133997033Y-101884000D01*
X133983502Y-101887973D01*
X133982273Y-101896522D01*
X133369226Y-101896522D01*
X133382119Y-101848402D01*
X133382119Y-101848400D01*
X133383543Y-101843087D01*
X133403498Y-101615000D01*
X133383543Y-101386913D01*
X133328303Y-101180757D01*
X133325707Y-101171067D01*
X133325706Y-101171065D01*
X133324284Y-101165757D01*
X133288282Y-101088550D01*
X133229849Y-100963238D01*
X133229846Y-100963233D01*
X133227523Y-100958251D01*
X133121561Y-100806922D01*
X133099357Y-100775211D01*
X133099355Y-100775208D01*
X133096198Y-100770700D01*
X132934300Y-100608802D01*
X132929792Y-100605645D01*
X132929789Y-100605643D01*
X132775280Y-100497455D01*
X132746749Y-100477477D01*
X132741767Y-100475154D01*
X132741762Y-100475151D01*
X132707543Y-100459195D01*
X132654258Y-100412278D01*
X132634797Y-100344001D01*
X132655339Y-100276041D01*
X132707543Y-100230805D01*
X132741762Y-100214849D01*
X132741767Y-100214846D01*
X132746749Y-100212523D01*
X132854979Y-100136739D01*
X132929789Y-100084357D01*
X132929792Y-100084355D01*
X132934300Y-100081198D01*
X133040852Y-99974646D01*
X133103164Y-99940620D01*
X133173979Y-99945685D01*
X133219042Y-99974646D01*
X133912443Y-100668047D01*
X133919987Y-100676337D01*
X133924100Y-100682818D01*
X133929877Y-100688243D01*
X133973767Y-100729458D01*
X133976609Y-100732213D01*
X133996331Y-100751935D01*
X133999455Y-100754358D01*
X133999459Y-100754362D01*
X133999524Y-100754412D01*
X134008545Y-100762117D01*
X134040779Y-100792386D01*
X134047727Y-100796205D01*
X134047729Y-100796207D01*
X134058532Y-100802146D01*
X134075057Y-100813000D01*
X134089360Y-100824095D01*
X134130925Y-100881653D01*
X134134774Y-100952545D01*
X134126326Y-100976903D01*
X134033510Y-101175947D01*
X134029764Y-101186239D01*
X133983606Y-101358503D01*
X133983942Y-101372599D01*
X133991884Y-101376000D01*
X136532967Y-101376000D01*
X136546498Y-101372027D01*
X136547727Y-101363478D01*
X136500236Y-101186239D01*
X136496490Y-101175947D01*
X136455736Y-101088550D01*
X136445075Y-101018358D01*
X136474055Y-100953546D01*
X136533475Y-100914689D01*
X136569931Y-100909300D01*
X141579518Y-100909300D01*
X141647639Y-100929302D01*
X141694132Y-100982958D01*
X141704236Y-101053232D01*
X141693714Y-101088547D01*
X141650716Y-101180757D01*
X141591457Y-101401913D01*
X141571502Y-101630000D01*
X141591457Y-101858087D01*
X141592881Y-101863400D01*
X141592881Y-101863402D01*
X141648032Y-102069225D01*
X141650716Y-102079243D01*
X141653039Y-102084224D01*
X141653039Y-102084225D01*
X141745151Y-102281762D01*
X141745154Y-102281767D01*
X141747477Y-102286749D01*
X141773750Y-102324270D01*
X141871028Y-102463197D01*
X141878802Y-102474300D01*
X142040700Y-102636198D01*
X142045208Y-102639355D01*
X142045211Y-102639357D01*
X142088127Y-102669407D01*
X142228251Y-102767523D01*
X142233233Y-102769846D01*
X142233238Y-102769849D01*
X142410278Y-102852403D01*
X142435757Y-102864284D01*
X142441065Y-102865706D01*
X142441067Y-102865707D01*
X142651598Y-102922119D01*
X142651600Y-102922119D01*
X142656913Y-102923543D01*
X142885000Y-102943498D01*
X143113087Y-102923543D01*
X143118400Y-102922119D01*
X143118402Y-102922119D01*
X143328933Y-102865707D01*
X143328935Y-102865706D01*
X143334243Y-102864284D01*
X143359722Y-102852403D01*
X143536762Y-102769849D01*
X143536767Y-102769846D01*
X143541749Y-102767523D01*
X143681873Y-102669407D01*
X143724789Y-102639357D01*
X143724792Y-102639355D01*
X143729300Y-102636198D01*
X143891198Y-102474300D01*
X143898973Y-102463197D01*
X143996250Y-102324270D01*
X144022523Y-102286749D01*
X144024846Y-102281767D01*
X144024849Y-102281762D01*
X144116961Y-102084225D01*
X144116961Y-102084224D01*
X144119284Y-102079243D01*
X144121969Y-102069225D01*
X144172264Y-101881522D01*
X144777273Y-101881522D01*
X144824764Y-102058761D01*
X144828510Y-102069053D01*
X144920586Y-102266511D01*
X144926069Y-102276007D01*
X145051028Y-102454467D01*
X145058084Y-102462875D01*
X145212125Y-102616916D01*
X145220533Y-102623972D01*
X145398993Y-102748931D01*
X145408489Y-102754414D01*
X145605947Y-102846490D01*
X145616239Y-102850236D01*
X145788503Y-102896394D01*
X145802599Y-102896058D01*
X145806000Y-102888116D01*
X145806000Y-102882967D01*
X146314000Y-102882967D01*
X146317973Y-102896498D01*
X146326522Y-102897727D01*
X146503761Y-102850236D01*
X146514053Y-102846490D01*
X146711511Y-102754414D01*
X146721007Y-102748931D01*
X146899467Y-102623972D01*
X146907875Y-102616916D01*
X147061916Y-102462875D01*
X147068972Y-102454467D01*
X147193931Y-102276007D01*
X147199414Y-102266511D01*
X147291490Y-102069053D01*
X147295236Y-102058761D01*
X147341394Y-101886497D01*
X147341058Y-101872401D01*
X147333116Y-101869000D01*
X146332115Y-101869000D01*
X146316876Y-101873475D01*
X146315671Y-101874865D01*
X146314000Y-101882548D01*
X146314000Y-102882967D01*
X145806000Y-102882967D01*
X145806000Y-101887115D01*
X145801525Y-101871876D01*
X145800135Y-101870671D01*
X145792452Y-101869000D01*
X144792033Y-101869000D01*
X144778502Y-101872973D01*
X144777273Y-101881522D01*
X144172264Y-101881522D01*
X144177119Y-101863402D01*
X144177119Y-101863400D01*
X144178543Y-101858087D01*
X144198498Y-101630000D01*
X144178543Y-101401913D01*
X144119284Y-101180757D01*
X144114766Y-101171067D01*
X144023195Y-100974690D01*
X144012534Y-100904499D01*
X144041514Y-100839686D01*
X144063331Y-100819504D01*
X144077288Y-100809364D01*
X144087207Y-100802848D01*
X144118435Y-100784380D01*
X144118438Y-100784378D01*
X144125262Y-100780342D01*
X144139583Y-100766021D01*
X144154617Y-100753180D01*
X144156331Y-100751935D01*
X144171007Y-100741272D01*
X144199198Y-100707195D01*
X144207188Y-100698416D01*
X144930958Y-99974646D01*
X144993270Y-99940620D01*
X145064085Y-99945685D01*
X145109148Y-99974646D01*
X145215700Y-100081198D01*
X145220208Y-100084355D01*
X145220211Y-100084357D01*
X145295021Y-100136739D01*
X145403251Y-100212523D01*
X145408233Y-100214846D01*
X145408238Y-100214849D01*
X145443049Y-100231081D01*
X145496334Y-100277998D01*
X145515795Y-100346275D01*
X145495253Y-100414235D01*
X145443049Y-100459471D01*
X145408489Y-100475586D01*
X145398993Y-100481069D01*
X145220533Y-100606028D01*
X145212125Y-100613084D01*
X145058084Y-100767125D01*
X145051028Y-100775533D01*
X144926069Y-100953993D01*
X144920586Y-100963489D01*
X144828510Y-101160947D01*
X144824764Y-101171239D01*
X144778606Y-101343503D01*
X144778942Y-101357599D01*
X144786884Y-101361000D01*
X147327967Y-101361000D01*
X147341498Y-101357027D01*
X147342727Y-101348478D01*
X147295236Y-101171239D01*
X147291490Y-101160947D01*
X147199414Y-100963489D01*
X147193931Y-100953993D01*
X147068972Y-100775533D01*
X147061916Y-100767125D01*
X146907875Y-100613084D01*
X146899467Y-100606028D01*
X146721007Y-100481069D01*
X146711511Y-100475586D01*
X146676951Y-100459471D01*
X146623666Y-100412554D01*
X146604205Y-100344277D01*
X146624747Y-100276317D01*
X146676951Y-100231081D01*
X146711762Y-100214849D01*
X146711767Y-100214846D01*
X146716749Y-100212523D01*
X146824979Y-100136739D01*
X146899789Y-100084357D01*
X146899792Y-100084355D01*
X146904300Y-100081198D01*
X147066198Y-99919300D01*
X147093997Y-99879600D01*
X147194366Y-99736257D01*
X147197523Y-99731749D01*
X147199846Y-99726767D01*
X147199849Y-99726762D01*
X147291961Y-99529225D01*
X147291961Y-99529224D01*
X147294284Y-99524243D01*
X147305151Y-99483689D01*
X147352119Y-99308402D01*
X147352119Y-99308400D01*
X147353543Y-99303087D01*
X147373498Y-99075000D01*
X147353543Y-98846913D01*
X147349479Y-98831744D01*
X147311635Y-98690511D01*
X147313325Y-98619535D01*
X147353119Y-98560739D01*
X147418383Y-98532791D01*
X147433342Y-98531900D01*
X151063506Y-98531900D01*
X151131627Y-98551902D01*
X151152601Y-98568805D01*
X152051043Y-99467247D01*
X152058587Y-99475537D01*
X152062700Y-99482018D01*
X152068477Y-99487443D01*
X152112367Y-99528658D01*
X152115209Y-99531413D01*
X152134931Y-99551135D01*
X152138055Y-99553558D01*
X152138059Y-99553562D01*
X152138124Y-99553612D01*
X152147145Y-99561317D01*
X152179379Y-99591586D01*
X152186327Y-99595405D01*
X152186329Y-99595407D01*
X152197132Y-99601346D01*
X152213659Y-99612202D01*
X152223398Y-99619757D01*
X152223400Y-99619758D01*
X152229660Y-99624614D01*
X152270240Y-99642174D01*
X152280888Y-99647391D01*
X152319640Y-99668695D01*
X152327316Y-99670666D01*
X152327319Y-99670667D01*
X152339262Y-99673733D01*
X152357967Y-99680137D01*
X152376555Y-99688181D01*
X152384378Y-99689420D01*
X152384388Y-99689423D01*
X152420224Y-99695099D01*
X152431844Y-99697505D01*
X152463659Y-99705673D01*
X152474670Y-99708500D01*
X152477223Y-99708500D01*
X152540108Y-99735925D01*
X152562455Y-99760280D01*
X152646004Y-99879600D01*
X152673802Y-99919300D01*
X152835700Y-100081198D01*
X152840208Y-100084355D01*
X152840211Y-100084357D01*
X152915021Y-100136739D01*
X153023251Y-100212523D01*
X153028233Y-100214846D01*
X153028238Y-100214849D01*
X153062457Y-100230805D01*
X153115742Y-100277722D01*
X153135203Y-100345999D01*
X153114661Y-100413959D01*
X153062457Y-100459195D01*
X153028238Y-100475151D01*
X153028233Y-100475154D01*
X153023251Y-100477477D01*
X152994720Y-100497455D01*
X152840211Y-100605643D01*
X152840208Y-100605645D01*
X152835700Y-100608802D01*
X152673802Y-100770700D01*
X152670645Y-100775208D01*
X152670643Y-100775211D01*
X152648439Y-100806922D01*
X152542477Y-100958251D01*
X152540154Y-100963233D01*
X152540151Y-100963238D01*
X152481718Y-101088550D01*
X152445716Y-101165757D01*
X152444294Y-101171065D01*
X152444293Y-101171067D01*
X152441697Y-101180757D01*
X152386457Y-101386913D01*
X152366502Y-101615000D01*
X152386457Y-101843087D01*
X152387881Y-101848400D01*
X152387881Y-101848402D01*
X152402274Y-101902115D01*
X152445716Y-102064243D01*
X152448039Y-102069224D01*
X152448039Y-102069225D01*
X152540151Y-102266762D01*
X152540154Y-102266767D01*
X152542477Y-102271749D01*
X152615902Y-102376611D01*
X152654835Y-102432212D01*
X152673802Y-102459300D01*
X152835700Y-102621198D01*
X152840208Y-102624355D01*
X152840211Y-102624357D01*
X152869688Y-102644997D01*
X153023251Y-102752523D01*
X153028233Y-102754846D01*
X153028238Y-102754849D01*
X153225775Y-102846961D01*
X153230757Y-102849284D01*
X153236065Y-102850706D01*
X153236067Y-102850707D01*
X153446598Y-102907119D01*
X153446600Y-102907119D01*
X153451913Y-102908543D01*
X153680000Y-102928498D01*
X153908087Y-102908543D01*
X153913400Y-102907119D01*
X153913402Y-102907119D01*
X154123933Y-102850707D01*
X154123935Y-102850706D01*
X154129243Y-102849284D01*
X154134225Y-102846961D01*
X154331762Y-102754849D01*
X154331767Y-102754846D01*
X154336749Y-102752523D01*
X154490312Y-102644997D01*
X154519789Y-102624357D01*
X154519792Y-102624355D01*
X154524300Y-102621198D01*
X154686198Y-102459300D01*
X154705166Y-102432212D01*
X154744098Y-102376611D01*
X154817523Y-102271749D01*
X154819846Y-102266767D01*
X154819849Y-102266762D01*
X154911961Y-102069225D01*
X154911961Y-102069224D01*
X154914284Y-102064243D01*
X154957727Y-101902115D01*
X154972119Y-101848402D01*
X154972119Y-101848400D01*
X154973543Y-101843087D01*
X154993498Y-101615000D01*
X154973543Y-101386913D01*
X154918303Y-101180757D01*
X154915707Y-101171067D01*
X154915706Y-101171065D01*
X154914284Y-101165757D01*
X154878282Y-101088550D01*
X154819849Y-100963238D01*
X154819846Y-100963233D01*
X154817523Y-100958251D01*
X154711561Y-100806922D01*
X154689357Y-100775211D01*
X154689355Y-100775208D01*
X154686198Y-100770700D01*
X154524300Y-100608802D01*
X154519792Y-100605645D01*
X154519789Y-100605643D01*
X154365280Y-100497455D01*
X154336749Y-100477477D01*
X154331767Y-100475154D01*
X154331762Y-100475151D01*
X154297543Y-100459195D01*
X154244258Y-100412278D01*
X154224797Y-100344001D01*
X154245339Y-100276041D01*
X154297543Y-100230805D01*
X154331762Y-100214849D01*
X154331767Y-100214846D01*
X154336749Y-100212523D01*
X154444979Y-100136739D01*
X154519789Y-100084357D01*
X154519792Y-100084355D01*
X154524300Y-100081198D01*
X154686198Y-99919300D01*
X154713997Y-99879600D01*
X154814366Y-99736257D01*
X154817523Y-99731749D01*
X154819847Y-99726764D01*
X154819851Y-99726758D01*
X154843055Y-99676995D01*
X154889971Y-99623710D01*
X154958248Y-99604248D01*
X155026208Y-99624789D01*
X155046345Y-99641149D01*
X155666898Y-100261703D01*
X156286760Y-100881565D01*
X156320786Y-100943877D01*
X156315721Y-101014693D01*
X156311861Y-101023908D01*
X156245716Y-101165757D01*
X156244294Y-101171065D01*
X156244293Y-101171067D01*
X156241697Y-101180757D01*
X156186457Y-101386913D01*
X156166502Y-101615000D01*
X156186457Y-101843087D01*
X156187881Y-101848400D01*
X156187881Y-101848402D01*
X156202274Y-101902115D01*
X156245716Y-102064243D01*
X156248039Y-102069224D01*
X156248039Y-102069225D01*
X156340151Y-102266762D01*
X156340154Y-102266767D01*
X156342477Y-102271749D01*
X156415902Y-102376611D01*
X156454835Y-102432212D01*
X156473802Y-102459300D01*
X156635700Y-102621198D01*
X156640211Y-102624357D01*
X156644424Y-102627892D01*
X156643473Y-102629026D01*
X156683471Y-102679071D01*
X156690776Y-102749690D01*
X156658742Y-102813049D01*
X156597538Y-102849030D01*
X156580483Y-102852082D01*
X156569684Y-102853255D01*
X156433295Y-102904385D01*
X156316739Y-102991739D01*
X156229385Y-103108295D01*
X156178255Y-103244684D01*
X156171500Y-103306866D01*
X156171500Y-105003134D01*
X156178255Y-105065316D01*
X156229385Y-105201705D01*
X156316739Y-105318261D01*
X156433295Y-105405615D01*
X156569684Y-105456745D01*
X156631866Y-105463500D01*
X158328134Y-105463500D01*
X158390316Y-105456745D01*
X158526705Y-105405615D01*
X158643261Y-105318261D01*
X158730615Y-105201705D01*
X158781745Y-105065316D01*
X158786028Y-105025892D01*
X158813270Y-104960330D01*
X158871634Y-104919904D01*
X158911291Y-104913500D01*
X164110730Y-104913500D01*
X164129680Y-104914933D01*
X164143915Y-104917099D01*
X164143919Y-104917099D01*
X164151149Y-104918199D01*
X164158441Y-104917606D01*
X164158444Y-104917606D01*
X164203818Y-104913915D01*
X164214033Y-104913500D01*
X164222093Y-104913500D01*
X164235383Y-104911951D01*
X164250307Y-104910211D01*
X164254682Y-104909778D01*
X164320139Y-104904454D01*
X164320142Y-104904453D01*
X164327437Y-104903860D01*
X164334401Y-104901604D01*
X164340360Y-104900413D01*
X164346215Y-104899029D01*
X164353481Y-104898182D01*
X164422127Y-104873265D01*
X164426255Y-104871848D01*
X164488736Y-104851607D01*
X164488738Y-104851606D01*
X164495699Y-104849351D01*
X164501954Y-104845555D01*
X164507428Y-104843049D01*
X164512858Y-104840330D01*
X164519737Y-104837833D01*
X164580776Y-104797814D01*
X164584480Y-104795477D01*
X164646907Y-104757595D01*
X164655284Y-104750197D01*
X164655308Y-104750224D01*
X164658300Y-104747571D01*
X164661533Y-104744868D01*
X164667652Y-104740856D01*
X164720928Y-104684617D01*
X164723306Y-104682175D01*
X165887311Y-103518170D01*
X165901723Y-103505784D01*
X165913318Y-103497251D01*
X165913323Y-103497246D01*
X165919218Y-103492908D01*
X165923957Y-103487330D01*
X165923960Y-103487327D01*
X165953435Y-103452632D01*
X165960365Y-103445116D01*
X165966060Y-103439421D01*
X165983681Y-103417149D01*
X165986472Y-103413745D01*
X166028991Y-103363697D01*
X166028992Y-103363695D01*
X166033733Y-103358115D01*
X166037061Y-103351599D01*
X166040428Y-103346550D01*
X166043595Y-103341421D01*
X166048134Y-103335684D01*
X166079055Y-103269525D01*
X166080961Y-103265625D01*
X166114169Y-103200592D01*
X166115908Y-103193484D01*
X166118007Y-103187841D01*
X166119924Y-103182078D01*
X166123022Y-103175450D01*
X166137887Y-103103983D01*
X166138857Y-103099699D01*
X166156208Y-103028790D01*
X166156900Y-103017636D01*
X166156936Y-103017638D01*
X166157175Y-103013645D01*
X166157549Y-103009453D01*
X166159040Y-103002285D01*
X166156946Y-102924879D01*
X166156900Y-102921472D01*
X166156900Y-75607835D01*
X166157142Y-75600033D01*
X166158721Y-75574580D01*
X166160947Y-75538702D01*
X166158720Y-75525740D01*
X166156900Y-75504404D01*
X166156900Y-54645770D01*
X166158333Y-54626820D01*
X166160499Y-54612585D01*
X166160499Y-54612581D01*
X166161599Y-54605351D01*
X166160115Y-54587099D01*
X166157315Y-54552682D01*
X166156900Y-54542467D01*
X166156900Y-54534407D01*
X166153609Y-54506180D01*
X166153178Y-54501821D01*
X166147853Y-54436360D01*
X166147260Y-54429064D01*
X166145005Y-54422103D01*
X166143818Y-54416163D01*
X166142429Y-54410288D01*
X166141582Y-54403019D01*
X166116664Y-54334370D01*
X166115247Y-54330242D01*
X166095007Y-54267764D01*
X166095006Y-54267762D01*
X166092751Y-54260801D01*
X166088955Y-54254546D01*
X166086449Y-54249072D01*
X166083730Y-54243642D01*
X166081233Y-54236763D01*
X166041214Y-54175724D01*
X166038867Y-54172005D01*
X166035180Y-54165929D01*
X166000995Y-54109593D01*
X165993597Y-54101216D01*
X165993624Y-54101192D01*
X165990971Y-54098200D01*
X165988268Y-54094967D01*
X165984256Y-54088848D01*
X165928017Y-54035572D01*
X165925575Y-54033194D01*
X162623101Y-50730720D01*
X162589075Y-50668408D01*
X162594140Y-50597593D01*
X162636687Y-50540757D01*
X162703207Y-50515946D01*
X162736777Y-50518046D01*
X162889573Y-50548439D01*
X162889576Y-50548439D01*
X162893616Y-50549243D01*
X162897727Y-50549512D01*
X162897731Y-50549513D01*
X163190881Y-50568727D01*
X163195000Y-50568997D01*
X163199119Y-50568727D01*
X163492269Y-50549513D01*
X163492273Y-50549512D01*
X163496384Y-50549243D01*
X163500424Y-50548439D01*
X163500427Y-50548439D01*
X163788562Y-50491126D01*
X163788568Y-50491124D01*
X163792612Y-50490320D01*
X163796518Y-50488994D01*
X163796522Y-50488993D01*
X164074714Y-50394559D01*
X164074716Y-50394558D01*
X164078614Y-50393235D01*
X164109108Y-50378197D01*
X164345794Y-50261477D01*
X164345799Y-50261474D01*
X164349498Y-50259650D01*
X164417603Y-50214144D01*
X164597196Y-50094144D01*
X164597201Y-50094140D01*
X164600627Y-50091851D01*
X164603721Y-50089137D01*
X164603727Y-50089133D01*
X164824617Y-49895417D01*
X164824619Y-49895415D01*
X164827706Y-49892708D01*
X164908908Y-49800115D01*
X165024131Y-49668729D01*
X165024135Y-49668723D01*
X165026849Y-49665629D01*
X165194648Y-49414499D01*
X165250170Y-49301913D01*
X165326411Y-49147311D01*
X165326412Y-49147309D01*
X165328233Y-49143616D01*
X165421540Y-48868743D01*
X165423991Y-48861524D01*
X165423992Y-48861520D01*
X165425318Y-48857614D01*
X165426376Y-48852298D01*
X165483437Y-48565429D01*
X165483437Y-48565426D01*
X165484241Y-48561386D01*
X165486705Y-48523802D01*
X165503725Y-48264121D01*
X165503725Y-48264119D01*
X165503995Y-48260002D01*
X165484241Y-47958618D01*
X165483437Y-47954575D01*
X165426124Y-47666440D01*
X165426122Y-47666434D01*
X165425318Y-47662390D01*
X165349570Y-47439243D01*
X165329557Y-47380288D01*
X165329556Y-47380286D01*
X165328233Y-47376388D01*
X165326410Y-47372691D01*
X165196475Y-47109209D01*
X165196472Y-47109204D01*
X165194648Y-47105505D01*
X165026849Y-46854375D01*
X165024135Y-46851281D01*
X165024131Y-46851275D01*
X164830415Y-46630385D01*
X164830413Y-46630383D01*
X164827706Y-46627296D01*
X164824615Y-46624585D01*
X164603727Y-46430871D01*
X164603721Y-46430867D01*
X164600627Y-46428153D01*
X164597197Y-46425861D01*
X164597196Y-46425860D01*
X164352931Y-46262648D01*
X164352928Y-46262646D01*
X164349498Y-46260354D01*
X164345799Y-46258530D01*
X164345794Y-46258527D01*
X164082309Y-46128591D01*
X164082307Y-46128590D01*
X164078614Y-46126769D01*
X164058423Y-46119915D01*
X163796522Y-46031011D01*
X163796515Y-46031009D01*
X163792612Y-46029684D01*
X163788568Y-46028880D01*
X163788562Y-46028878D01*
X163500427Y-45971565D01*
X163500424Y-45971565D01*
X163496384Y-45970761D01*
X163492273Y-45970492D01*
X163492269Y-45970491D01*
X163199119Y-45951277D01*
X163195000Y-45951007D01*
X163190881Y-45951277D01*
X162897731Y-45970491D01*
X162897727Y-45970492D01*
X162893616Y-45970761D01*
X162889576Y-45971565D01*
X162889573Y-45971565D01*
X162601438Y-46028878D01*
X162601432Y-46028880D01*
X162597388Y-46029684D01*
X162593485Y-46031009D01*
X162593478Y-46031011D01*
X162331577Y-46119915D01*
X162311386Y-46126769D01*
X162307693Y-46128590D01*
X162307691Y-46128591D01*
X162044207Y-46258527D01*
X162044202Y-46258530D01*
X162040503Y-46260354D01*
X161789373Y-46428153D01*
X161786279Y-46430867D01*
X161786273Y-46430871D01*
X161565385Y-46624585D01*
X161562294Y-46627296D01*
X161559587Y-46630383D01*
X161559585Y-46630385D01*
X161365869Y-46851275D01*
X161365865Y-46851281D01*
X161363151Y-46854375D01*
X161195352Y-47105505D01*
X161193528Y-47109204D01*
X161193525Y-47109209D01*
X161063590Y-47372691D01*
X161061767Y-47376388D01*
X161060444Y-47380286D01*
X161060443Y-47380288D01*
X161040431Y-47439243D01*
X160964682Y-47662390D01*
X160963878Y-47666434D01*
X160963876Y-47666440D01*
X160906563Y-47954575D01*
X160905759Y-47958618D01*
X160886005Y-48260002D01*
X160886275Y-48264119D01*
X160886275Y-48264121D01*
X160903296Y-48523802D01*
X160905759Y-48561386D01*
X160906563Y-48565426D01*
X160906563Y-48565429D01*
X160936956Y-48718225D01*
X160930628Y-48788939D01*
X160887073Y-48845006D01*
X160820121Y-48868625D01*
X160751027Y-48852298D01*
X160724282Y-48831901D01*
X155853470Y-43961089D01*
X155841084Y-43946677D01*
X155832551Y-43935082D01*
X155832546Y-43935077D01*
X155828208Y-43929182D01*
X155805657Y-43910024D01*
X155766694Y-43850676D01*
X155766001Y-43779682D01*
X155803801Y-43719585D01*
X155868091Y-43689463D01*
X155887238Y-43688000D01*
X163145672Y-43688000D01*
X163165057Y-43689500D01*
X163179858Y-43691805D01*
X163179861Y-43691805D01*
X163188730Y-43693186D01*
X163209158Y-43690515D01*
X163230983Y-43689571D01*
X163587981Y-43705158D01*
X163598929Y-43706116D01*
X163628956Y-43710069D01*
X163983465Y-43756741D01*
X163994291Y-43758650D01*
X164372951Y-43842598D01*
X164383568Y-43845443D01*
X164530138Y-43891656D01*
X164753473Y-43962073D01*
X164763787Y-43965826D01*
X165122143Y-44114262D01*
X165132087Y-44118900D01*
X165319764Y-44216598D01*
X165476117Y-44297990D01*
X165485637Y-44303486D01*
X165812754Y-44511883D01*
X165821758Y-44518188D01*
X166129458Y-44754295D01*
X166137878Y-44761360D01*
X166368760Y-44972923D01*
X166423836Y-45023391D01*
X166431609Y-45031164D01*
X166693640Y-45317122D01*
X166700705Y-45325542D01*
X166936812Y-45633242D01*
X166943117Y-45642246D01*
X167151514Y-45969363D01*
X167157009Y-45978882D01*
X167312175Y-46276952D01*
X167336096Y-46322904D01*
X167340738Y-46332857D01*
X167463977Y-46630383D01*
X167489171Y-46691206D01*
X167492927Y-46701527D01*
X167540142Y-46851273D01*
X167609557Y-47071432D01*
X167612402Y-47082049D01*
X167696350Y-47460709D01*
X167698259Y-47471535D01*
X167748884Y-47856070D01*
X167749842Y-47867020D01*
X167765104Y-48216584D01*
X167763724Y-48241460D01*
X167761814Y-48253730D01*
X167763173Y-48264119D01*
X167765936Y-48285251D01*
X167767000Y-48301589D01*
X167767000Y-107900672D01*
X167765500Y-107920056D01*
X167761814Y-107943730D01*
X167764485Y-107964158D01*
X167765429Y-107985983D01*
X167754021Y-108247267D01*
X167749842Y-108342980D01*
X167748884Y-108353929D01*
X167744297Y-108388768D01*
X167698259Y-108738465D01*
X167696350Y-108749291D01*
X167612402Y-109127951D01*
X167609557Y-109138568D01*
X167584361Y-109218481D01*
X167506725Y-109464714D01*
X167492930Y-109508465D01*
X167489174Y-109518787D01*
X167350539Y-109853483D01*
X167340742Y-109877134D01*
X167336100Y-109887087D01*
X167184146Y-110178989D01*
X167157010Y-110231117D01*
X167151514Y-110240637D01*
X166943117Y-110567754D01*
X166936812Y-110576758D01*
X166700705Y-110884458D01*
X166693640Y-110892878D01*
X166431609Y-111178836D01*
X166423840Y-111186605D01*
X166239087Y-111355900D01*
X166137878Y-111448640D01*
X166129458Y-111455705D01*
X165821758Y-111691812D01*
X165812754Y-111698117D01*
X165485637Y-111906514D01*
X165476118Y-111912009D01*
X165132087Y-112091100D01*
X165122143Y-112095738D01*
X164763787Y-112244174D01*
X164753473Y-112247927D01*
X164553993Y-112310823D01*
X164383568Y-112364557D01*
X164372951Y-112367402D01*
X163994291Y-112451350D01*
X163983465Y-112453259D01*
X163598930Y-112503884D01*
X163587981Y-112504842D01*
X163238416Y-112520104D01*
X163213540Y-112518724D01*
X163211684Y-112518435D01*
X163210142Y-112518195D01*
X163210141Y-112518195D01*
X163201270Y-112516814D01*
X163169749Y-112520936D01*
X163153411Y-112522000D01*
X114349328Y-112522000D01*
X114329943Y-112520500D01*
X114315142Y-112518195D01*
X114315139Y-112518195D01*
X114306270Y-112516814D01*
X114285842Y-112519485D01*
X114264017Y-112520429D01*
X113907019Y-112504842D01*
X113896070Y-112503884D01*
X113511535Y-112453259D01*
X113500709Y-112451350D01*
X113122049Y-112367402D01*
X113111432Y-112364557D01*
X112941007Y-112310823D01*
X112741527Y-112247927D01*
X112731213Y-112244174D01*
X112372857Y-112095738D01*
X112362913Y-112091100D01*
X112018882Y-111912009D01*
X112009363Y-111906514D01*
X111682246Y-111698117D01*
X111673242Y-111691812D01*
X111365542Y-111455705D01*
X111357122Y-111448640D01*
X111255913Y-111355900D01*
X111071160Y-111186605D01*
X111063391Y-111178836D01*
X110801360Y-110892878D01*
X110794295Y-110884458D01*
X110558188Y-110576758D01*
X110551883Y-110567754D01*
X110343486Y-110240637D01*
X110337990Y-110231117D01*
X110310854Y-110178989D01*
X110158900Y-109887087D01*
X110154258Y-109877134D01*
X110144462Y-109853483D01*
X110005826Y-109518787D01*
X110002070Y-109508465D01*
X109988276Y-109464714D01*
X109910639Y-109218481D01*
X109885443Y-109138568D01*
X109882598Y-109127951D01*
X109798650Y-108749291D01*
X109796741Y-108738465D01*
X109776537Y-108585000D01*
X111991005Y-108585000D01*
X112010759Y-108886384D01*
X112011563Y-108890424D01*
X112011563Y-108890427D01*
X112065258Y-109160370D01*
X112069682Y-109182612D01*
X112071008Y-109186518D01*
X112071009Y-109186522D01*
X112147869Y-109412943D01*
X112166767Y-109468614D01*
X112168588Y-109472307D01*
X112168589Y-109472309D01*
X112270084Y-109678119D01*
X112300352Y-109739497D01*
X112468151Y-109990627D01*
X112470865Y-109993721D01*
X112470869Y-109993727D01*
X112555373Y-110090085D01*
X112667294Y-110217706D01*
X112670383Y-110220415D01*
X112891273Y-110414131D01*
X112891279Y-110414135D01*
X112894373Y-110416849D01*
X112897799Y-110419138D01*
X112897804Y-110419142D01*
X113002139Y-110488856D01*
X113145502Y-110584648D01*
X113149201Y-110586472D01*
X113149206Y-110586475D01*
X113412691Y-110716411D01*
X113416386Y-110718233D01*
X113420284Y-110719556D01*
X113420286Y-110719557D01*
X113698478Y-110813991D01*
X113698482Y-110813992D01*
X113702388Y-110815318D01*
X113706432Y-110816122D01*
X113706438Y-110816124D01*
X113994573Y-110873437D01*
X113994576Y-110873437D01*
X113998616Y-110874241D01*
X114002727Y-110874510D01*
X114002731Y-110874511D01*
X114295881Y-110893725D01*
X114300000Y-110893995D01*
X114304119Y-110893725D01*
X114597269Y-110874511D01*
X114597273Y-110874510D01*
X114601384Y-110874241D01*
X114605424Y-110873437D01*
X114605427Y-110873437D01*
X114893562Y-110816124D01*
X114893568Y-110816122D01*
X114897612Y-110815318D01*
X114901518Y-110813992D01*
X114901522Y-110813991D01*
X115179714Y-110719557D01*
X115179716Y-110719556D01*
X115183614Y-110718233D01*
X115187309Y-110716411D01*
X115450794Y-110586475D01*
X115450799Y-110586472D01*
X115454498Y-110584648D01*
X115597861Y-110488856D01*
X115702196Y-110419142D01*
X115702201Y-110419138D01*
X115705627Y-110416849D01*
X115708721Y-110414135D01*
X115708727Y-110414131D01*
X115929617Y-110220415D01*
X115932706Y-110217706D01*
X116044627Y-110090085D01*
X116129131Y-109993727D01*
X116129135Y-109993721D01*
X116131849Y-109990627D01*
X116299648Y-109739497D01*
X116329917Y-109678119D01*
X116431411Y-109472309D01*
X116431412Y-109472307D01*
X116433233Y-109468614D01*
X116452131Y-109412943D01*
X116528991Y-109186522D01*
X116528992Y-109186518D01*
X116530318Y-109182612D01*
X116534743Y-109160370D01*
X116588437Y-108890427D01*
X116588437Y-108890424D01*
X116589241Y-108886384D01*
X116608995Y-108585000D01*
X116589241Y-108283616D01*
X116583634Y-108255425D01*
X116531124Y-107991438D01*
X116531122Y-107991432D01*
X116530318Y-107987388D01*
X116526124Y-107975031D01*
X116517626Y-107949998D01*
X160886005Y-107949998D01*
X160905759Y-108251382D01*
X160906563Y-108255422D01*
X160906563Y-108255425D01*
X160933087Y-108388768D01*
X160964682Y-108547610D01*
X160966008Y-108551516D01*
X160966009Y-108551520D01*
X161058786Y-108824830D01*
X161061767Y-108833612D01*
X161195352Y-109104495D01*
X161363151Y-109355625D01*
X161365865Y-109358719D01*
X161365869Y-109358725D01*
X161465480Y-109472309D01*
X161562294Y-109582704D01*
X161565383Y-109585413D01*
X161786273Y-109779129D01*
X161786279Y-109779133D01*
X161789373Y-109781847D01*
X161792799Y-109784136D01*
X161792804Y-109784140D01*
X161896584Y-109853483D01*
X162040502Y-109949646D01*
X162044201Y-109951470D01*
X162044206Y-109951473D01*
X162307691Y-110081409D01*
X162311386Y-110083231D01*
X162315284Y-110084554D01*
X162315286Y-110084555D01*
X162593478Y-110178989D01*
X162593482Y-110178990D01*
X162597388Y-110180316D01*
X162601432Y-110181120D01*
X162601438Y-110181122D01*
X162889573Y-110238435D01*
X162889576Y-110238435D01*
X162893616Y-110239239D01*
X162897727Y-110239508D01*
X162897731Y-110239509D01*
X163190881Y-110258723D01*
X163195000Y-110258993D01*
X163199119Y-110258723D01*
X163492269Y-110239509D01*
X163492273Y-110239508D01*
X163496384Y-110239239D01*
X163500424Y-110238435D01*
X163500427Y-110238435D01*
X163788562Y-110181122D01*
X163788568Y-110181120D01*
X163792612Y-110180316D01*
X163796518Y-110178990D01*
X163796522Y-110178989D01*
X164074714Y-110084555D01*
X164074716Y-110084554D01*
X164078614Y-110083231D01*
X164082309Y-110081409D01*
X164345794Y-109951473D01*
X164345799Y-109951470D01*
X164349498Y-109949646D01*
X164493416Y-109853483D01*
X164597196Y-109784140D01*
X164597201Y-109784136D01*
X164600627Y-109781847D01*
X164603721Y-109779133D01*
X164603727Y-109779129D01*
X164824617Y-109585413D01*
X164827706Y-109582704D01*
X164924520Y-109472309D01*
X165024131Y-109358725D01*
X165024135Y-109358719D01*
X165026849Y-109355625D01*
X165194648Y-109104495D01*
X165328233Y-108833612D01*
X165331214Y-108824830D01*
X165423991Y-108551520D01*
X165423992Y-108551516D01*
X165425318Y-108547610D01*
X165456914Y-108388768D01*
X165483437Y-108255425D01*
X165483437Y-108255422D01*
X165484241Y-108251382D01*
X165503995Y-107949998D01*
X165484241Y-107648614D01*
X165456562Y-107509459D01*
X165426124Y-107356436D01*
X165426122Y-107356430D01*
X165425318Y-107352386D01*
X165367753Y-107182804D01*
X165329557Y-107070284D01*
X165329556Y-107070282D01*
X165328233Y-107066384D01*
X165277395Y-106963294D01*
X165196475Y-106799205D01*
X165196472Y-106799200D01*
X165194648Y-106795501D01*
X165026849Y-106544371D01*
X165024135Y-106541277D01*
X165024131Y-106541271D01*
X164830415Y-106320381D01*
X164827706Y-106317292D01*
X164803152Y-106295759D01*
X164603727Y-106120867D01*
X164603721Y-106120863D01*
X164600627Y-106118149D01*
X164597197Y-106115857D01*
X164597196Y-106115856D01*
X164352931Y-105952644D01*
X164349498Y-105950350D01*
X164345799Y-105948526D01*
X164345794Y-105948523D01*
X164082309Y-105818587D01*
X164082307Y-105818586D01*
X164078614Y-105816765D01*
X164074714Y-105815441D01*
X163796522Y-105721007D01*
X163796518Y-105721006D01*
X163792612Y-105719680D01*
X163788568Y-105718876D01*
X163788562Y-105718874D01*
X163500427Y-105661561D01*
X163500424Y-105661561D01*
X163496384Y-105660757D01*
X163492273Y-105660488D01*
X163492269Y-105660487D01*
X163199119Y-105641273D01*
X163195000Y-105641003D01*
X163190881Y-105641273D01*
X162897731Y-105660487D01*
X162897727Y-105660488D01*
X162893616Y-105660757D01*
X162889576Y-105661561D01*
X162889573Y-105661561D01*
X162601438Y-105718874D01*
X162601432Y-105718876D01*
X162597388Y-105719680D01*
X162593482Y-105721006D01*
X162593478Y-105721007D01*
X162315286Y-105815441D01*
X162311386Y-105816765D01*
X162307693Y-105818586D01*
X162307691Y-105818587D01*
X162044207Y-105948523D01*
X162044202Y-105948526D01*
X162040503Y-105950350D01*
X161789373Y-106118149D01*
X161786279Y-106120863D01*
X161786273Y-106120867D01*
X161586848Y-106295759D01*
X161562294Y-106317292D01*
X161559585Y-106320381D01*
X161365869Y-106541271D01*
X161365865Y-106541277D01*
X161363151Y-106544371D01*
X161195352Y-106795501D01*
X161193528Y-106799200D01*
X161193525Y-106799205D01*
X161112605Y-106963294D01*
X161061767Y-107066384D01*
X161060444Y-107070282D01*
X161060443Y-107070284D01*
X161022248Y-107182804D01*
X160964682Y-107352386D01*
X160963878Y-107356430D01*
X160963876Y-107356436D01*
X160933438Y-107509459D01*
X160905759Y-107648614D01*
X160886005Y-107949998D01*
X116517626Y-107949998D01*
X116434557Y-107705286D01*
X116434556Y-107705284D01*
X116433233Y-107701386D01*
X116299648Y-107430503D01*
X116131849Y-107179373D01*
X116129135Y-107176279D01*
X116129131Y-107176273D01*
X115935415Y-106955383D01*
X115932706Y-106952294D01*
X115753918Y-106795501D01*
X115708727Y-106755869D01*
X115708721Y-106755865D01*
X115705627Y-106753151D01*
X115702197Y-106750859D01*
X115702196Y-106750858D01*
X115457931Y-106587646D01*
X115454498Y-106585352D01*
X115450799Y-106583528D01*
X115450794Y-106583525D01*
X115187309Y-106453589D01*
X115187307Y-106453588D01*
X115183614Y-106451767D01*
X115179714Y-106450443D01*
X114901522Y-106356009D01*
X114901518Y-106356008D01*
X114897612Y-106354682D01*
X114893568Y-106353878D01*
X114893562Y-106353876D01*
X114605427Y-106296563D01*
X114605424Y-106296563D01*
X114601384Y-106295759D01*
X114597273Y-106295490D01*
X114597269Y-106295489D01*
X114304119Y-106276275D01*
X114300000Y-106276005D01*
X114295881Y-106276275D01*
X114002731Y-106295489D01*
X114002727Y-106295490D01*
X113998616Y-106295759D01*
X113994576Y-106296563D01*
X113994573Y-106296563D01*
X113706438Y-106353876D01*
X113706432Y-106353878D01*
X113702388Y-106354682D01*
X113698482Y-106356008D01*
X113698478Y-106356009D01*
X113420286Y-106450443D01*
X113416386Y-106451767D01*
X113412693Y-106453588D01*
X113412691Y-106453589D01*
X113149207Y-106583525D01*
X113149202Y-106583528D01*
X113145503Y-106585352D01*
X112894373Y-106753151D01*
X112891279Y-106755865D01*
X112891273Y-106755869D01*
X112846082Y-106795501D01*
X112667294Y-106952294D01*
X112664585Y-106955383D01*
X112470869Y-107176273D01*
X112470865Y-107176279D01*
X112468151Y-107179373D01*
X112300352Y-107430503D01*
X112166767Y-107701386D01*
X112165444Y-107705284D01*
X112165443Y-107705286D01*
X112073877Y-107975031D01*
X112069682Y-107987388D01*
X112068878Y-107991432D01*
X112068876Y-107991438D01*
X112016366Y-108255425D01*
X112010759Y-108283616D01*
X111991005Y-108585000D01*
X109776537Y-108585000D01*
X109750703Y-108388768D01*
X109746116Y-108353929D01*
X109745158Y-108342980D01*
X109729896Y-107993416D01*
X109731276Y-107968537D01*
X109731805Y-107965142D01*
X109731805Y-107965141D01*
X109733186Y-107956270D01*
X109729064Y-107924748D01*
X109728000Y-107908411D01*
X109728000Y-48309328D01*
X109729500Y-48289943D01*
X109731805Y-48275142D01*
X109731805Y-48275139D01*
X109733186Y-48266270D01*
X109732366Y-48260000D01*
X111991005Y-48260000D01*
X111991275Y-48264119D01*
X112008296Y-48523802D01*
X112010759Y-48561384D01*
X112011563Y-48565424D01*
X112011563Y-48565427D01*
X112067175Y-48845006D01*
X112069682Y-48857612D01*
X112071008Y-48861518D01*
X112071009Y-48861522D01*
X112076769Y-48878489D01*
X112166767Y-49143614D01*
X112168588Y-49147307D01*
X112168589Y-49147309D01*
X112244832Y-49301913D01*
X112300352Y-49414497D01*
X112468151Y-49665627D01*
X112470865Y-49668721D01*
X112470869Y-49668727D01*
X112470871Y-49668729D01*
X112667294Y-49892706D01*
X112670383Y-49895415D01*
X112891273Y-50089131D01*
X112891276Y-50089133D01*
X112894373Y-50091849D01*
X112897799Y-50094138D01*
X112897804Y-50094142D01*
X113052349Y-50197405D01*
X113145502Y-50259648D01*
X113149201Y-50261472D01*
X113149206Y-50261475D01*
X113385896Y-50378197D01*
X113416386Y-50393233D01*
X113420284Y-50394556D01*
X113420286Y-50394557D01*
X113698478Y-50488991D01*
X113698482Y-50488992D01*
X113702388Y-50490318D01*
X113706432Y-50491122D01*
X113706438Y-50491124D01*
X113994573Y-50548437D01*
X113994576Y-50548437D01*
X113998616Y-50549241D01*
X114002727Y-50549510D01*
X114002731Y-50549511D01*
X114295881Y-50568725D01*
X114300000Y-50568995D01*
X114304119Y-50568725D01*
X114597269Y-50549511D01*
X114597273Y-50549510D01*
X114601384Y-50549241D01*
X114605424Y-50548437D01*
X114605427Y-50548437D01*
X114893562Y-50491124D01*
X114893568Y-50491122D01*
X114897612Y-50490318D01*
X114901518Y-50488992D01*
X114901522Y-50488991D01*
X115179714Y-50394557D01*
X115179716Y-50394556D01*
X115183614Y-50393233D01*
X115214104Y-50378197D01*
X115450794Y-50261475D01*
X115450799Y-50261472D01*
X115454498Y-50259648D01*
X115547651Y-50197405D01*
X115702196Y-50094142D01*
X115702201Y-50094138D01*
X115705627Y-50091849D01*
X115708724Y-50089133D01*
X115708727Y-50089131D01*
X115929617Y-49895415D01*
X115932706Y-49892706D01*
X116129129Y-49668729D01*
X116129131Y-49668727D01*
X116129135Y-49668721D01*
X116131849Y-49665627D01*
X116299648Y-49414497D01*
X116355169Y-49301913D01*
X116431411Y-49147309D01*
X116431412Y-49147307D01*
X116433233Y-49143614D01*
X116523231Y-48878489D01*
X116528991Y-48861522D01*
X116528992Y-48861518D01*
X116530318Y-48857612D01*
X116532826Y-48845006D01*
X116588437Y-48565427D01*
X116588437Y-48565424D01*
X116589241Y-48561384D01*
X116591705Y-48523802D01*
X116608725Y-48264119D01*
X116608995Y-48260000D01*
X116600105Y-48124366D01*
X116589511Y-47962731D01*
X116589510Y-47962727D01*
X116589241Y-47958616D01*
X116571022Y-47867020D01*
X116531124Y-47666438D01*
X116531122Y-47666432D01*
X116530318Y-47662388D01*
X116528992Y-47658482D01*
X116528991Y-47658478D01*
X116434557Y-47380286D01*
X116434556Y-47380284D01*
X116433233Y-47376386D01*
X116431411Y-47372691D01*
X116301475Y-47109207D01*
X116301472Y-47109202D01*
X116299648Y-47105503D01*
X116131849Y-46854373D01*
X116129135Y-46851279D01*
X116129131Y-46851273D01*
X115935415Y-46630383D01*
X115932706Y-46627294D01*
X115840281Y-46546239D01*
X115708727Y-46430869D01*
X115708721Y-46430865D01*
X115705627Y-46428151D01*
X115702200Y-46425861D01*
X115702196Y-46425858D01*
X115457931Y-46262646D01*
X115454498Y-46260352D01*
X115450797Y-46258527D01*
X115450794Y-46258525D01*
X115187309Y-46128589D01*
X115187307Y-46128588D01*
X115183614Y-46126767D01*
X115163429Y-46119915D01*
X114901522Y-46031009D01*
X114901518Y-46031008D01*
X114897612Y-46029682D01*
X114893568Y-46028878D01*
X114893562Y-46028876D01*
X114605427Y-45971563D01*
X114605424Y-45971563D01*
X114601384Y-45970759D01*
X114597273Y-45970490D01*
X114597269Y-45970489D01*
X114304119Y-45951275D01*
X114300000Y-45951005D01*
X114295881Y-45951275D01*
X114002731Y-45970489D01*
X114002727Y-45970490D01*
X113998616Y-45970759D01*
X113994576Y-45971563D01*
X113994573Y-45971563D01*
X113706438Y-46028876D01*
X113706432Y-46028878D01*
X113702388Y-46029682D01*
X113698482Y-46031008D01*
X113698478Y-46031009D01*
X113436571Y-46119915D01*
X113416386Y-46126767D01*
X113412693Y-46128588D01*
X113412691Y-46128589D01*
X113149207Y-46258525D01*
X113149204Y-46258527D01*
X113145503Y-46260352D01*
X112894373Y-46428151D01*
X112891279Y-46430865D01*
X112891273Y-46430869D01*
X112759719Y-46546239D01*
X112667294Y-46627294D01*
X112664585Y-46630383D01*
X112470869Y-46851273D01*
X112470865Y-46851279D01*
X112468151Y-46854373D01*
X112300352Y-47105503D01*
X112298528Y-47109202D01*
X112298525Y-47109207D01*
X112168589Y-47372691D01*
X112166767Y-47376386D01*
X112165444Y-47380284D01*
X112165443Y-47380286D01*
X112071009Y-47658478D01*
X112071008Y-47658482D01*
X112069682Y-47662388D01*
X112068878Y-47666432D01*
X112068876Y-47666438D01*
X112028978Y-47867020D01*
X112010759Y-47958616D01*
X112010490Y-47962727D01*
X112010489Y-47962731D01*
X111999895Y-48124366D01*
X111991005Y-48260000D01*
X109732366Y-48260000D01*
X109730515Y-48245842D01*
X109729571Y-48224013D01*
X109729896Y-48216584D01*
X109745158Y-47867019D01*
X109746116Y-47856070D01*
X109796741Y-47471535D01*
X109798650Y-47460709D01*
X109882598Y-47082049D01*
X109885443Y-47071432D01*
X109954858Y-46851273D01*
X110002073Y-46701527D01*
X110005829Y-46691206D01*
X110031023Y-46630383D01*
X110154262Y-46332857D01*
X110158904Y-46322904D01*
X110182826Y-46276952D01*
X110337991Y-45978882D01*
X110343486Y-45969363D01*
X110551883Y-45642246D01*
X110558188Y-45633242D01*
X110794295Y-45325542D01*
X110801360Y-45317122D01*
X111063391Y-45031164D01*
X111071164Y-45023391D01*
X111126241Y-44972923D01*
X111357122Y-44761360D01*
X111365542Y-44754295D01*
X111673242Y-44518188D01*
X111682246Y-44511883D01*
X112009363Y-44303486D01*
X112018883Y-44297990D01*
X112175236Y-44216598D01*
X112362913Y-44118900D01*
X112372857Y-44114262D01*
X112731213Y-43965826D01*
X112741527Y-43962073D01*
X112964862Y-43891656D01*
X113111432Y-43845443D01*
X113122049Y-43842598D01*
X113500709Y-43758650D01*
X113511535Y-43756741D01*
X113866044Y-43710069D01*
X113896071Y-43706116D01*
X113907019Y-43705158D01*
X114256584Y-43689896D01*
X114281460Y-43691276D01*
X114283316Y-43691565D01*
X114284858Y-43691805D01*
X114284859Y-43691805D01*
X114293730Y-43693186D01*
X114325252Y-43689064D01*
X114341589Y-43688000D01*
X135725500Y-43688000D01*
X135793621Y-43708002D01*
G37*
%TD.AperFunction*%
%TA.AperFunction,Conductor*%
G36*
X123120919Y-99300253D02*
G01*
X123177754Y-99342800D01*
X123198592Y-99385697D01*
X123220444Y-99467247D01*
X123224850Y-99483689D01*
X123235716Y-99524243D01*
X123238039Y-99529224D01*
X123238039Y-99529225D01*
X123330151Y-99726762D01*
X123330154Y-99726767D01*
X123332477Y-99731749D01*
X123335634Y-99736257D01*
X123436004Y-99879600D01*
X123463802Y-99919300D01*
X123625700Y-100081198D01*
X123630208Y-100084355D01*
X123630211Y-100084357D01*
X123705021Y-100136739D01*
X123813251Y-100212523D01*
X123818233Y-100214846D01*
X123818238Y-100214849D01*
X123853049Y-100231081D01*
X123906334Y-100277998D01*
X123925795Y-100346275D01*
X123905253Y-100414235D01*
X123853049Y-100459471D01*
X123818489Y-100475586D01*
X123808993Y-100481069D01*
X123630533Y-100606028D01*
X123622125Y-100613084D01*
X123468084Y-100767125D01*
X123461028Y-100775533D01*
X123336069Y-100953993D01*
X123330586Y-100963489D01*
X123238510Y-101160947D01*
X123234764Y-101171239D01*
X123188606Y-101343503D01*
X123188942Y-101357599D01*
X123196884Y-101361000D01*
X124598000Y-101361000D01*
X124666121Y-101381002D01*
X124712614Y-101434658D01*
X124724000Y-101487000D01*
X124724000Y-101743000D01*
X124703998Y-101811121D01*
X124650342Y-101857614D01*
X124598000Y-101869000D01*
X123202033Y-101869000D01*
X123188502Y-101872973D01*
X123187273Y-101881522D01*
X123234764Y-102058761D01*
X123238510Y-102069053D01*
X123320766Y-102245450D01*
X123331427Y-102315641D01*
X123302447Y-102380454D01*
X123243028Y-102419311D01*
X123206571Y-102424700D01*
X121913981Y-102424700D01*
X121845860Y-102404698D01*
X121799367Y-102351042D01*
X121789263Y-102280768D01*
X121799786Y-102245450D01*
X121801275Y-102242258D01*
X121875047Y-102084053D01*
X121881961Y-102069225D01*
X121881961Y-102069224D01*
X121884284Y-102064243D01*
X121927727Y-101902115D01*
X121942119Y-101848402D01*
X121942119Y-101848400D01*
X121943543Y-101843087D01*
X121963498Y-101615000D01*
X121943543Y-101386913D01*
X121888303Y-101180757D01*
X121885707Y-101171067D01*
X121885706Y-101171065D01*
X121884284Y-101165757D01*
X121848282Y-101088550D01*
X121789849Y-100963238D01*
X121789846Y-100963233D01*
X121787523Y-100958251D01*
X121784367Y-100953744D01*
X121784366Y-100953742D01*
X121671582Y-100792670D01*
X121648894Y-100725396D01*
X121666179Y-100656535D01*
X121685700Y-100631304D01*
X122987791Y-99329214D01*
X123050103Y-99295188D01*
X123120919Y-99300253D01*
G37*
%TD.AperFunction*%
%TA.AperFunction,Conductor*%
G36*
X156089532Y-75852538D02*
G01*
X156146368Y-75895085D01*
X156171179Y-75961605D01*
X156171500Y-75970594D01*
X156171500Y-76428134D01*
X156178255Y-76490316D01*
X156229385Y-76626705D01*
X156316739Y-76743261D01*
X156318874Y-76744861D01*
X156351379Y-76804388D01*
X156346314Y-76875203D01*
X156317353Y-76920266D01*
X153191089Y-80046530D01*
X153176677Y-80058916D01*
X153165082Y-80067449D01*
X153165077Y-80067454D01*
X153159182Y-80071792D01*
X153154443Y-80077370D01*
X153154440Y-80077373D01*
X153124965Y-80112068D01*
X153118035Y-80119584D01*
X153112340Y-80125279D01*
X153110060Y-80128161D01*
X153094719Y-80147551D01*
X153091928Y-80150955D01*
X153069373Y-80177504D01*
X153044667Y-80206585D01*
X153041339Y-80213101D01*
X153037972Y-80218150D01*
X153034805Y-80223279D01*
X153030266Y-80229016D01*
X152999345Y-80295175D01*
X152997442Y-80299069D01*
X152964231Y-80364108D01*
X152962492Y-80371216D01*
X152960393Y-80376859D01*
X152958476Y-80382622D01*
X152955378Y-80389250D01*
X152953888Y-80396412D01*
X152953888Y-80396413D01*
X152940514Y-80460712D01*
X152939544Y-80464996D01*
X152922192Y-80535910D01*
X152921500Y-80547064D01*
X152921464Y-80547062D01*
X152921225Y-80551055D01*
X152920851Y-80555247D01*
X152919360Y-80562415D01*
X152919558Y-80569732D01*
X152921454Y-80639821D01*
X152921500Y-80643228D01*
X152921500Y-82703133D01*
X152901498Y-82771254D01*
X152867772Y-82806345D01*
X152835700Y-82828802D01*
X152673802Y-82990700D01*
X152542477Y-83178251D01*
X152540154Y-83183233D01*
X152540151Y-83183238D01*
X152482628Y-83306598D01*
X152445716Y-83385757D01*
X152386457Y-83606913D01*
X152366502Y-83835000D01*
X152386457Y-84063087D01*
X152387881Y-84068400D01*
X152387881Y-84068402D01*
X152441429Y-84268242D01*
X152445716Y-84284243D01*
X152448039Y-84289224D01*
X152448039Y-84289225D01*
X152540151Y-84486762D01*
X152540154Y-84486767D01*
X152542477Y-84491749D01*
X152600253Y-84574262D01*
X152641223Y-84632772D01*
X152673802Y-84679300D01*
X152835700Y-84841198D01*
X152840208Y-84844355D01*
X152840211Y-84844357D01*
X152903367Y-84888579D01*
X153023251Y-84972523D01*
X153028233Y-84974846D01*
X153028238Y-84974849D01*
X153063049Y-84991081D01*
X153116334Y-85037998D01*
X153135795Y-85106275D01*
X153115253Y-85174235D01*
X153063049Y-85219471D01*
X153028489Y-85235586D01*
X153018993Y-85241069D01*
X152840533Y-85366028D01*
X152832125Y-85373084D01*
X152678084Y-85527125D01*
X152671028Y-85535533D01*
X152546069Y-85713993D01*
X152540586Y-85723489D01*
X152448510Y-85920947D01*
X152444764Y-85931239D01*
X152398606Y-86103503D01*
X152398942Y-86117599D01*
X152406884Y-86121000D01*
X153808000Y-86121000D01*
X153876121Y-86141002D01*
X153922614Y-86194658D01*
X153934000Y-86247000D01*
X153934000Y-86503000D01*
X153913998Y-86571121D01*
X153860342Y-86617614D01*
X153808000Y-86629000D01*
X152412033Y-86629000D01*
X152398502Y-86632973D01*
X152397273Y-86641524D01*
X152401083Y-86655744D01*
X152399392Y-86726720D01*
X152359597Y-86785515D01*
X152294332Y-86813462D01*
X152224319Y-86801688D01*
X152205313Y-86790287D01*
X152193996Y-86782064D01*
X152193992Y-86782061D01*
X152188652Y-86778182D01*
X152182624Y-86775498D01*
X152182622Y-86775497D01*
X152020219Y-86703191D01*
X152020218Y-86703191D01*
X152014188Y-86700506D01*
X151896385Y-86675466D01*
X151833844Y-86662172D01*
X151833839Y-86662172D01*
X151827387Y-86660800D01*
X151786400Y-86660800D01*
X151718279Y-86640798D01*
X151671786Y-86587142D01*
X151660400Y-86534800D01*
X151660400Y-80229694D01*
X151680402Y-80161573D01*
X151697305Y-80140599D01*
X155956405Y-75881499D01*
X156018717Y-75847473D01*
X156089532Y-75852538D01*
G37*
%TD.AperFunction*%
%TA.AperFunction,Conductor*%
G36*
X125833509Y-60852689D02*
G01*
X125853645Y-60869049D01*
X129388543Y-64403947D01*
X129396087Y-64412237D01*
X129400200Y-64418718D01*
X129405977Y-64424143D01*
X129449867Y-64465358D01*
X129452696Y-64468100D01*
X129472431Y-64487835D01*
X129475555Y-64490258D01*
X129475559Y-64490262D01*
X129475624Y-64490312D01*
X129484645Y-64498017D01*
X129516879Y-64528286D01*
X129523827Y-64532105D01*
X129523829Y-64532107D01*
X129534632Y-64538046D01*
X129551159Y-64548902D01*
X129560898Y-64556457D01*
X129560900Y-64556458D01*
X129567160Y-64561314D01*
X129607740Y-64578874D01*
X129618388Y-64584091D01*
X129620768Y-64585399D01*
X129657140Y-64605395D01*
X129664816Y-64607366D01*
X129664819Y-64607367D01*
X129676762Y-64610433D01*
X129695467Y-64616837D01*
X129714055Y-64624881D01*
X129721878Y-64626120D01*
X129721888Y-64626123D01*
X129757724Y-64631799D01*
X129769344Y-64634205D01*
X129804489Y-64643228D01*
X129812170Y-64645200D01*
X129832424Y-64645200D01*
X129852134Y-64646751D01*
X129872143Y-64649920D01*
X129880035Y-64649174D01*
X129916161Y-64645759D01*
X129928019Y-64645200D01*
X130809745Y-64645200D01*
X130877866Y-64665202D01*
X130924359Y-64718858D01*
X130934463Y-64789132D01*
X130923941Y-64824448D01*
X130855716Y-64970757D01*
X130854294Y-64976065D01*
X130854293Y-64976067D01*
X130797883Y-65186591D01*
X130796457Y-65191913D01*
X130776502Y-65420000D01*
X130796457Y-65648087D01*
X130797881Y-65653400D01*
X130797881Y-65653402D01*
X130841109Y-65814728D01*
X130855716Y-65869243D01*
X130858039Y-65874224D01*
X130858039Y-65874225D01*
X130950151Y-66071762D01*
X130950154Y-66071767D01*
X130952477Y-66076749D01*
X131015415Y-66166634D01*
X131066655Y-66239811D01*
X131083802Y-66264300D01*
X131245700Y-66426198D01*
X131250208Y-66429355D01*
X131250211Y-66429357D01*
X131308557Y-66470211D01*
X131433251Y-66557523D01*
X131438233Y-66559846D01*
X131438238Y-66559849D01*
X131472457Y-66575805D01*
X131525742Y-66622722D01*
X131545203Y-66690999D01*
X131524661Y-66758959D01*
X131472457Y-66804195D01*
X131438238Y-66820151D01*
X131438233Y-66820154D01*
X131433251Y-66822477D01*
X131423557Y-66829265D01*
X131250211Y-66950643D01*
X131250208Y-66950645D01*
X131245700Y-66953802D01*
X131083802Y-67115700D01*
X131080645Y-67120208D01*
X131080643Y-67120211D01*
X130970583Y-67277393D01*
X130915126Y-67321721D01*
X130875282Y-67330873D01*
X130852963Y-67332277D01*
X130852962Y-67332277D01*
X130845050Y-67332775D01*
X130837509Y-67335225D01*
X130837213Y-67335321D01*
X130814069Y-67340494D01*
X130813765Y-67340532D01*
X130813760Y-67340533D01*
X130805903Y-67341526D01*
X130798538Y-67344442D01*
X130798534Y-67344443D01*
X130753689Y-67362199D01*
X130746270Y-67364871D01*
X130692825Y-67382236D01*
X130686129Y-67386486D01*
X130686128Y-67386486D01*
X130685869Y-67386650D01*
X130664742Y-67397415D01*
X130664454Y-67397529D01*
X130664449Y-67397532D01*
X130657083Y-67400448D01*
X130650675Y-67405104D01*
X130650669Y-67405107D01*
X130611648Y-67433458D01*
X130605111Y-67437901D01*
X130557682Y-67468000D01*
X130552256Y-67473778D01*
X130552255Y-67473779D01*
X130552041Y-67474007D01*
X130534254Y-67489688D01*
X130534009Y-67489866D01*
X130534007Y-67489868D01*
X130527593Y-67494528D01*
X130522539Y-67500637D01*
X130522538Y-67500638D01*
X130491797Y-67537796D01*
X130486566Y-67543730D01*
X130453542Y-67578898D01*
X130453540Y-67578901D01*
X130448114Y-67584679D01*
X130444145Y-67591899D01*
X130430819Y-67611506D01*
X130430620Y-67611746D01*
X130430616Y-67611753D01*
X130425567Y-67617856D01*
X130422193Y-67625027D01*
X130401653Y-67668676D01*
X130398071Y-67675708D01*
X130371005Y-67724940D01*
X130369035Y-67732615D01*
X130369032Y-67732621D01*
X130368956Y-67732919D01*
X130360924Y-67755228D01*
X130360794Y-67755503D01*
X130360791Y-67755511D01*
X130357417Y-67762682D01*
X130350485Y-67799021D01*
X130346895Y-67817843D01*
X130345171Y-67825558D01*
X130331200Y-67879970D01*
X130331200Y-67888207D01*
X130328968Y-67911816D01*
X130327425Y-67919906D01*
X130330572Y-67969928D01*
X130330951Y-67975951D01*
X130331200Y-67983862D01*
X130331200Y-68712805D01*
X130311198Y-68780926D01*
X130294295Y-68801901D01*
X129886499Y-69209696D01*
X129824187Y-69243721D01*
X129797404Y-69246600D01*
X129741513Y-69246600D01*
X129735061Y-69247972D01*
X129735056Y-69247972D01*
X129656501Y-69264670D01*
X129554712Y-69286306D01*
X129548682Y-69288991D01*
X129548681Y-69288991D01*
X129386278Y-69361297D01*
X129386276Y-69361298D01*
X129380248Y-69363982D01*
X129374907Y-69367862D01*
X129374906Y-69367863D01*
X129338010Y-69394670D01*
X129225747Y-69476234D01*
X129097960Y-69618156D01*
X129002473Y-69783544D01*
X128943458Y-69965172D01*
X128942768Y-69971733D01*
X128942768Y-69971735D01*
X128932166Y-70072607D01*
X128923496Y-70155100D01*
X128924186Y-70161665D01*
X128934247Y-70257386D01*
X128943458Y-70345028D01*
X129002473Y-70526656D01*
X129097960Y-70692044D01*
X129102378Y-70696951D01*
X129102379Y-70696952D01*
X129157775Y-70758475D01*
X129225747Y-70833966D01*
X129380248Y-70946218D01*
X129386276Y-70948902D01*
X129386278Y-70948903D01*
X129542922Y-71018645D01*
X129554712Y-71023894D01*
X129648113Y-71043747D01*
X129735056Y-71062228D01*
X129735061Y-71062228D01*
X129741513Y-71063600D01*
X129932487Y-71063600D01*
X129938939Y-71062228D01*
X129938944Y-71062228D01*
X130112830Y-71025267D01*
X130112833Y-71025266D01*
X130119288Y-71023894D01*
X130125324Y-71021207D01*
X130126960Y-71020675D01*
X130197927Y-71018645D01*
X130258726Y-71055306D01*
X130290054Y-71119017D01*
X130291900Y-71140507D01*
X130291900Y-78190305D01*
X130271898Y-78258426D01*
X130254995Y-78279400D01*
X129477515Y-79056880D01*
X129459247Y-79071995D01*
X129452429Y-79076628D01*
X129447185Y-79082576D01*
X129447184Y-79082577D01*
X129415289Y-79118755D01*
X129409870Y-79124525D01*
X129398565Y-79135830D01*
X129398562Y-79135834D01*
X125834296Y-82700099D01*
X125771984Y-82734125D01*
X125701168Y-82729060D01*
X125644375Y-82686569D01*
X125633261Y-82671739D01*
X125516705Y-82584385D01*
X125380316Y-82533255D01*
X125318134Y-82526500D01*
X123621866Y-82526500D01*
X123559684Y-82533255D01*
X123423295Y-82584385D01*
X123306739Y-82671739D01*
X123219385Y-82788295D01*
X123168255Y-82924684D01*
X123161500Y-82986866D01*
X123161500Y-83408029D01*
X123141498Y-83476150D01*
X123087842Y-83522643D01*
X123017568Y-83532747D01*
X122952988Y-83503253D01*
X122946405Y-83497124D01*
X122686644Y-83237363D01*
X122652618Y-83175051D01*
X122650154Y-83158484D01*
X122650106Y-83157890D01*
X122649160Y-83146264D01*
X122646905Y-83139303D01*
X122645718Y-83133363D01*
X122644329Y-83127488D01*
X122643482Y-83120219D01*
X122618564Y-83051570D01*
X122617147Y-83047442D01*
X122596907Y-82984964D01*
X122596906Y-82984962D01*
X122594651Y-82978001D01*
X122590855Y-82971746D01*
X122588349Y-82966272D01*
X122585630Y-82960842D01*
X122583133Y-82953963D01*
X122579120Y-82947842D01*
X122543114Y-82892924D01*
X122540767Y-82889205D01*
X122532656Y-82875838D01*
X122502895Y-82826793D01*
X122495497Y-82818416D01*
X122495524Y-82818392D01*
X122492871Y-82815400D01*
X122490168Y-82812167D01*
X122486156Y-82806048D01*
X122429917Y-82752772D01*
X122427475Y-82750394D01*
X121987373Y-82310292D01*
X121953347Y-82247980D01*
X121953752Y-82205534D01*
X121951745Y-82205316D01*
X121958131Y-82146531D01*
X121958500Y-82143134D01*
X121958500Y-80446866D01*
X121951745Y-80384684D01*
X121900615Y-80248295D01*
X121813261Y-80131739D01*
X121696705Y-80044385D01*
X121560316Y-79993255D01*
X121498134Y-79986500D01*
X119801866Y-79986500D01*
X119739684Y-79993255D01*
X119603295Y-80044385D01*
X119486739Y-80131739D01*
X119399385Y-80248295D01*
X119348255Y-80384684D01*
X119347402Y-80392540D01*
X119343972Y-80424108D01*
X119316730Y-80489670D01*
X119258366Y-80530096D01*
X119218709Y-80536500D01*
X115663671Y-80536500D01*
X115595550Y-80516498D01*
X115574576Y-80499595D01*
X114872078Y-79797097D01*
X114838052Y-79734785D01*
X114843117Y-79663970D01*
X114885664Y-79607134D01*
X114912955Y-79591593D01*
X115027699Y-79544064D01*
X115036494Y-79539583D01*
X115231167Y-79420287D01*
X115240627Y-79409830D01*
X115236844Y-79401054D01*
X114029885Y-78194095D01*
X113995859Y-78131783D01*
X113997694Y-78106132D01*
X114664408Y-78106132D01*
X114664539Y-78107965D01*
X114668790Y-78114580D01*
X115593010Y-79038800D01*
X115605390Y-79045560D01*
X115613040Y-79039833D01*
X115734583Y-78841494D01*
X115739064Y-78832700D01*
X115832134Y-78608009D01*
X115835183Y-78598624D01*
X115891959Y-78362137D01*
X115893502Y-78352390D01*
X115912584Y-78109930D01*
X115912584Y-78100070D01*
X115893502Y-77857610D01*
X115891959Y-77847863D01*
X115835183Y-77611376D01*
X115832134Y-77601991D01*
X115739064Y-77377300D01*
X115734583Y-77368506D01*
X115615287Y-77173833D01*
X115604830Y-77164373D01*
X115596054Y-77168156D01*
X114672022Y-78092188D01*
X114664408Y-78106132D01*
X113997694Y-78106132D01*
X114000924Y-78060968D01*
X114029885Y-78015905D01*
X115197978Y-76847812D01*
X115205592Y-76833868D01*
X115205461Y-76832035D01*
X115201210Y-76825420D01*
X114029885Y-75654095D01*
X113995859Y-75591783D01*
X113997694Y-75566132D01*
X114664408Y-75566132D01*
X114664539Y-75567965D01*
X114668790Y-75574580D01*
X115593010Y-76498800D01*
X115605390Y-76505560D01*
X115613040Y-76499833D01*
X115734583Y-76301494D01*
X115739064Y-76292700D01*
X115832134Y-76068009D01*
X115835183Y-76058624D01*
X115891959Y-75822137D01*
X115893502Y-75812390D01*
X115912584Y-75569930D01*
X115912584Y-75560070D01*
X115893502Y-75317610D01*
X115891959Y-75307863D01*
X115835183Y-75071376D01*
X115832134Y-75061991D01*
X115739064Y-74837300D01*
X115734583Y-74828506D01*
X115615287Y-74633833D01*
X115604830Y-74624373D01*
X115596054Y-74628156D01*
X114672022Y-75552188D01*
X114664408Y-75566132D01*
X113997694Y-75566132D01*
X114000924Y-75520968D01*
X114029885Y-75475905D01*
X115049516Y-74456274D01*
X115072776Y-74437936D01*
X115116147Y-74411358D01*
X115248376Y-74330328D01*
X115427287Y-74177523D01*
X115437142Y-74169106D01*
X115440898Y-74165898D01*
X115605328Y-73973376D01*
X115737616Y-73757502D01*
X115755953Y-73713234D01*
X115832611Y-73528164D01*
X115832612Y-73528162D01*
X115834505Y-73523591D01*
X115893609Y-73277403D01*
X115899944Y-73196914D01*
X115925230Y-73130572D01*
X115982368Y-73088433D01*
X116025556Y-73080800D01*
X119227238Y-73080800D01*
X119295359Y-73100802D01*
X119341852Y-73154458D01*
X119352759Y-73195819D01*
X119355977Y-73232606D01*
X119355978Y-73232611D01*
X119356457Y-73238087D01*
X119415716Y-73459243D01*
X119418039Y-73464224D01*
X119418039Y-73464225D01*
X119510151Y-73661762D01*
X119510154Y-73661767D01*
X119512477Y-73666749D01*
X119643802Y-73854300D01*
X119805700Y-74016198D01*
X119810208Y-74019355D01*
X119810211Y-74019357D01*
X119842979Y-74042301D01*
X119993251Y-74147523D01*
X119998233Y-74149846D01*
X119998238Y-74149849D01*
X120181525Y-74235316D01*
X120200757Y-74244284D01*
X120206065Y-74245706D01*
X120206067Y-74245707D01*
X120416598Y-74302119D01*
X120416600Y-74302119D01*
X120421913Y-74303543D01*
X120650000Y-74323498D01*
X120878087Y-74303543D01*
X120883400Y-74302119D01*
X120883402Y-74302119D01*
X121093933Y-74245707D01*
X121093935Y-74245706D01*
X121099243Y-74244284D01*
X121118475Y-74235316D01*
X121301762Y-74149849D01*
X121301767Y-74149846D01*
X121306749Y-74147523D01*
X121457021Y-74042301D01*
X121489789Y-74019357D01*
X121489792Y-74019355D01*
X121494300Y-74016198D01*
X121656198Y-73854300D01*
X121787523Y-73666749D01*
X121789846Y-73661767D01*
X121789849Y-73661762D01*
X121881961Y-73464225D01*
X121881961Y-73464224D01*
X121884284Y-73459243D01*
X121943543Y-73238087D01*
X121963498Y-73010000D01*
X121943543Y-72781913D01*
X121884284Y-72560757D01*
X121881961Y-72555775D01*
X121789849Y-72358238D01*
X121789846Y-72358233D01*
X121787523Y-72353251D01*
X121784367Y-72348744D01*
X121781617Y-72343981D01*
X121783936Y-72342642D01*
X121764714Y-72286083D01*
X121781838Y-72217182D01*
X121801508Y-72191696D01*
X123047869Y-70945335D01*
X123110181Y-70911309D01*
X123180996Y-70916374D01*
X123237832Y-70958921D01*
X123251159Y-70981180D01*
X123330586Y-71151511D01*
X123336069Y-71161007D01*
X123461028Y-71339467D01*
X123468084Y-71347875D01*
X123622125Y-71501916D01*
X123630533Y-71508972D01*
X123808993Y-71633931D01*
X123818489Y-71639414D01*
X124015947Y-71731490D01*
X124026239Y-71735236D01*
X124198503Y-71781394D01*
X124212599Y-71781058D01*
X124216000Y-71773116D01*
X124216000Y-71767967D01*
X124724000Y-71767967D01*
X124727973Y-71781498D01*
X124736522Y-71782727D01*
X124913761Y-71735236D01*
X124924053Y-71731490D01*
X125121511Y-71639414D01*
X125131007Y-71633931D01*
X125309467Y-71508972D01*
X125317875Y-71501916D01*
X125471916Y-71347875D01*
X125478972Y-71339467D01*
X125603931Y-71161007D01*
X125609414Y-71151511D01*
X125701490Y-70954053D01*
X125705236Y-70943761D01*
X125751394Y-70771497D01*
X125751058Y-70757401D01*
X125743116Y-70754000D01*
X124742115Y-70754000D01*
X124726876Y-70758475D01*
X124725671Y-70759865D01*
X124724000Y-70767548D01*
X124724000Y-71767967D01*
X124216000Y-71767967D01*
X124216000Y-70372000D01*
X124236002Y-70303879D01*
X124289658Y-70257386D01*
X124342000Y-70246000D01*
X125737967Y-70246000D01*
X125751498Y-70242027D01*
X125752727Y-70233478D01*
X125705236Y-70056239D01*
X125701490Y-70045947D01*
X125609414Y-69848489D01*
X125603931Y-69838993D01*
X125475813Y-69656022D01*
X125477676Y-69654717D01*
X125453131Y-69598586D01*
X125464369Y-69528485D01*
X125489027Y-69493578D01*
X126013153Y-68969452D01*
X126021439Y-68961912D01*
X126027918Y-68957800D01*
X126048204Y-68936198D01*
X126074543Y-68908149D01*
X126077298Y-68905307D01*
X126097035Y-68885570D01*
X126099515Y-68882373D01*
X126107220Y-68873351D01*
X126132059Y-68846900D01*
X126137486Y-68841121D01*
X126141305Y-68834175D01*
X126141307Y-68834172D01*
X126147248Y-68823366D01*
X126158099Y-68806847D01*
X126158459Y-68806383D01*
X126170514Y-68790841D01*
X126173659Y-68783572D01*
X126173662Y-68783568D01*
X126188074Y-68750263D01*
X126193291Y-68739613D01*
X126214595Y-68700860D01*
X126219633Y-68681237D01*
X126226037Y-68662534D01*
X126230933Y-68651220D01*
X126230933Y-68651219D01*
X126234081Y-68643945D01*
X126235320Y-68636122D01*
X126235323Y-68636112D01*
X126240999Y-68600276D01*
X126243405Y-68588656D01*
X126252428Y-68553511D01*
X126252428Y-68553510D01*
X126254400Y-68545830D01*
X126254400Y-68525576D01*
X126255951Y-68505865D01*
X126257880Y-68493686D01*
X126259120Y-68485857D01*
X126254959Y-68441838D01*
X126254400Y-68429981D01*
X126254400Y-67493667D01*
X126254927Y-67482484D01*
X126256602Y-67474991D01*
X126255370Y-67435781D01*
X126254462Y-67406914D01*
X126254400Y-67402955D01*
X126254400Y-67375044D01*
X126253895Y-67371044D01*
X126252962Y-67359201D01*
X126252407Y-67341526D01*
X126251573Y-67315010D01*
X126245922Y-67295558D01*
X126241914Y-67276206D01*
X126240367Y-67263963D01*
X126239374Y-67256103D01*
X126234096Y-67242771D01*
X126223100Y-67214997D01*
X126219255Y-67203770D01*
X126218621Y-67201587D01*
X126206918Y-67161307D01*
X126196607Y-67143872D01*
X126187912Y-67126124D01*
X126180452Y-67107283D01*
X126154464Y-67071513D01*
X126147948Y-67061593D01*
X126129480Y-67030365D01*
X126129478Y-67030362D01*
X126125442Y-67023538D01*
X126111121Y-67009217D01*
X126098280Y-66994183D01*
X126086372Y-66977793D01*
X126080267Y-66972742D01*
X126080262Y-66972737D01*
X126052302Y-66949606D01*
X126043524Y-66941619D01*
X125776905Y-66675000D01*
X125505659Y-66403755D01*
X125471634Y-66341442D01*
X125476698Y-66270627D01*
X125491541Y-66242388D01*
X125542122Y-66170151D01*
X125607523Y-66076749D01*
X125609846Y-66071767D01*
X125609849Y-66071762D01*
X125701961Y-65874225D01*
X125701961Y-65874224D01*
X125704284Y-65869243D01*
X125718892Y-65814728D01*
X125762119Y-65653402D01*
X125762119Y-65653400D01*
X125763543Y-65648087D01*
X125783498Y-65420000D01*
X125763543Y-65191913D01*
X125762117Y-65186591D01*
X125705707Y-64976067D01*
X125705706Y-64976065D01*
X125704284Y-64970757D01*
X125664304Y-64885019D01*
X125609849Y-64768238D01*
X125609846Y-64768233D01*
X125607523Y-64763251D01*
X125502245Y-64612899D01*
X125479357Y-64580211D01*
X125479355Y-64580208D01*
X125476198Y-64575700D01*
X125314300Y-64413802D01*
X125309792Y-64410645D01*
X125309789Y-64410643D01*
X125136444Y-64289265D01*
X125092116Y-64233808D01*
X125084945Y-64162449D01*
X125085327Y-64160448D01*
X125087812Y-64147424D01*
X125089532Y-64139729D01*
X125103500Y-64085330D01*
X125103500Y-64082773D01*
X125130928Y-64019887D01*
X125155280Y-63997545D01*
X125309789Y-63889357D01*
X125309792Y-63889355D01*
X125314300Y-63886198D01*
X125476198Y-63724300D01*
X125491583Y-63702329D01*
X125542122Y-63630151D01*
X125607523Y-63536749D01*
X125609846Y-63531767D01*
X125609849Y-63531762D01*
X125701961Y-63334225D01*
X125701961Y-63334224D01*
X125704284Y-63329243D01*
X125707466Y-63317370D01*
X125762119Y-63113402D01*
X125762119Y-63113400D01*
X125763543Y-63108087D01*
X125783498Y-62880000D01*
X125763543Y-62651913D01*
X125704284Y-62430757D01*
X125669003Y-62355096D01*
X125609849Y-62228238D01*
X125609846Y-62228233D01*
X125607523Y-62223251D01*
X125476198Y-62035700D01*
X125314300Y-61873802D01*
X125309792Y-61870645D01*
X125309789Y-61870643D01*
X125136444Y-61749265D01*
X125092116Y-61693808D01*
X125084945Y-61622449D01*
X125087812Y-61607424D01*
X125089532Y-61599729D01*
X125089962Y-61598056D01*
X125103500Y-61545330D01*
X125103500Y-61542773D01*
X125130928Y-61479887D01*
X125155280Y-61457545D01*
X125309789Y-61349357D01*
X125309792Y-61349355D01*
X125314300Y-61346198D01*
X125476198Y-61184300D01*
X125497205Y-61154300D01*
X125542122Y-61090151D01*
X125607523Y-60996749D01*
X125609847Y-60991764D01*
X125609851Y-60991758D01*
X125650355Y-60904895D01*
X125697272Y-60851609D01*
X125765549Y-60832148D01*
X125833509Y-60852689D01*
G37*
%TD.AperFunction*%
%TA.AperFunction,Conductor*%
G36*
X154971450Y-45228502D02*
G01*
X154992424Y-45245405D01*
X163287238Y-53540219D01*
X163321264Y-53602531D01*
X163316199Y-53673346D01*
X163273652Y-53730182D01*
X163246361Y-53745723D01*
X163102072Y-53805489D01*
X163102068Y-53805491D01*
X163097498Y-53807384D01*
X162881624Y-53939672D01*
X162689102Y-54104102D01*
X162524672Y-54296624D01*
X162392384Y-54512498D01*
X162379971Y-54542467D01*
X162377381Y-54548719D01*
X162332832Y-54603999D01*
X162260972Y-54626500D01*
X158699394Y-54626500D01*
X158631273Y-54606498D01*
X158596181Y-54572771D01*
X158489357Y-54420211D01*
X158489355Y-54420208D01*
X158486198Y-54415700D01*
X158324300Y-54253802D01*
X158319792Y-54250645D01*
X158319789Y-54250643D01*
X158199002Y-54166067D01*
X158136749Y-54122477D01*
X158131767Y-54120154D01*
X158131762Y-54120151D01*
X157934225Y-54028039D01*
X157934224Y-54028039D01*
X157929243Y-54025716D01*
X157923935Y-54024294D01*
X157923933Y-54024293D01*
X157713402Y-53967881D01*
X157713400Y-53967881D01*
X157708087Y-53966457D01*
X157480000Y-53946502D01*
X157251913Y-53966457D01*
X157246600Y-53967881D01*
X157246598Y-53967881D01*
X157036067Y-54024293D01*
X157036065Y-54024294D01*
X157030757Y-54025716D01*
X157025776Y-54028039D01*
X157025775Y-54028039D01*
X156828238Y-54120151D01*
X156828233Y-54120154D01*
X156823251Y-54122477D01*
X156760998Y-54166067D01*
X156640211Y-54250643D01*
X156640208Y-54250645D01*
X156635700Y-54253802D01*
X156473802Y-54415700D01*
X156470645Y-54420208D01*
X156470643Y-54420211D01*
X156415902Y-54498389D01*
X156342477Y-54603251D01*
X156340154Y-54608233D01*
X156340151Y-54608238D01*
X156327094Y-54636240D01*
X156245716Y-54810757D01*
X156244294Y-54816065D01*
X156244293Y-54816067D01*
X156189597Y-55020193D01*
X156186457Y-55031913D01*
X156166502Y-55260000D01*
X156186457Y-55488087D01*
X156187881Y-55493400D01*
X156187881Y-55493402D01*
X156224201Y-55628947D01*
X156245716Y-55709243D01*
X156248039Y-55714224D01*
X156248039Y-55714225D01*
X156340151Y-55911762D01*
X156340154Y-55911767D01*
X156342477Y-55916749D01*
X156396948Y-55994541D01*
X156461319Y-56086472D01*
X156473802Y-56104300D01*
X156491904Y-56122402D01*
X156525930Y-56184714D01*
X156520865Y-56255529D01*
X156491904Y-56300592D01*
X153734439Y-59058056D01*
X153672127Y-59092082D01*
X153601311Y-59087017D01*
X153544476Y-59044470D01*
X153538602Y-59035565D01*
X153537523Y-59033251D01*
X153534367Y-59028743D01*
X153409357Y-58850211D01*
X153409355Y-58850208D01*
X153406198Y-58845700D01*
X153244300Y-58683802D01*
X153239792Y-58680645D01*
X153239789Y-58680643D01*
X153083979Y-58571544D01*
X153056749Y-58552477D01*
X153051767Y-58550154D01*
X153051762Y-58550151D01*
X153017543Y-58534195D01*
X152964258Y-58487278D01*
X152944797Y-58419001D01*
X152965339Y-58351041D01*
X153017543Y-58305805D01*
X153051762Y-58289849D01*
X153051767Y-58289846D01*
X153056749Y-58287523D01*
X153161611Y-58214098D01*
X153239789Y-58159357D01*
X153239792Y-58159355D01*
X153244300Y-58156198D01*
X153406198Y-57994300D01*
X153537523Y-57806749D01*
X153539846Y-57801767D01*
X153539849Y-57801762D01*
X153631961Y-57604225D01*
X153631961Y-57604224D01*
X153634284Y-57599243D01*
X153665771Y-57481735D01*
X153692119Y-57383402D01*
X153692119Y-57383400D01*
X153693543Y-57378087D01*
X153713498Y-57150000D01*
X153693543Y-56921913D01*
X153679728Y-56870354D01*
X153635707Y-56706067D01*
X153635706Y-56706065D01*
X153634284Y-56700757D01*
X153607866Y-56644102D01*
X153539849Y-56498238D01*
X153539846Y-56498233D01*
X153537523Y-56493251D01*
X153449487Y-56367523D01*
X153409357Y-56310211D01*
X153409355Y-56310208D01*
X153406198Y-56305700D01*
X153244300Y-56143802D01*
X153239792Y-56140645D01*
X153239789Y-56140643D01*
X153119229Y-56056226D01*
X153056749Y-56012477D01*
X153051767Y-56010154D01*
X153051762Y-56010151D01*
X153017543Y-55994195D01*
X152964258Y-55947278D01*
X152944797Y-55879001D01*
X152965339Y-55811041D01*
X153017543Y-55765805D01*
X153051762Y-55749849D01*
X153051767Y-55749846D01*
X153056749Y-55747523D01*
X153226093Y-55628947D01*
X153239789Y-55619357D01*
X153239792Y-55619355D01*
X153244300Y-55616198D01*
X153406198Y-55454300D01*
X153537523Y-55266749D01*
X153539846Y-55261767D01*
X153539849Y-55261762D01*
X153631961Y-55064225D01*
X153631961Y-55064224D01*
X153634284Y-55059243D01*
X153644748Y-55020193D01*
X153692119Y-54843402D01*
X153692119Y-54843400D01*
X153693543Y-54838087D01*
X153713498Y-54610000D01*
X153693543Y-54381913D01*
X153679728Y-54330354D01*
X153635707Y-54166067D01*
X153635706Y-54166065D01*
X153634284Y-54160757D01*
X153609617Y-54107858D01*
X153539849Y-53958238D01*
X153539846Y-53958233D01*
X153537523Y-53953251D01*
X153445140Y-53821315D01*
X153409357Y-53770211D01*
X153409355Y-53770208D01*
X153406198Y-53765700D01*
X153244300Y-53603802D01*
X153239792Y-53600645D01*
X153239789Y-53600643D01*
X153129356Y-53523317D01*
X153056749Y-53472477D01*
X153051767Y-53470154D01*
X153051762Y-53470151D01*
X153017543Y-53454195D01*
X152964258Y-53407278D01*
X152944797Y-53339001D01*
X152965339Y-53271041D01*
X153017543Y-53225805D01*
X153051762Y-53209849D01*
X153051767Y-53209846D01*
X153056749Y-53207523D01*
X153161611Y-53134098D01*
X153239789Y-53079357D01*
X153239792Y-53079355D01*
X153244300Y-53076198D01*
X153406198Y-52914300D01*
X153537523Y-52726749D01*
X153539846Y-52721767D01*
X153539849Y-52721762D01*
X153631961Y-52524225D01*
X153631961Y-52524224D01*
X153634284Y-52519243D01*
X153639044Y-52501481D01*
X153692119Y-52303402D01*
X153692119Y-52303400D01*
X153693543Y-52298087D01*
X153713498Y-52070000D01*
X153693543Y-51841913D01*
X153688590Y-51823427D01*
X153635707Y-51626067D01*
X153635706Y-51626065D01*
X153634284Y-51620757D01*
X153615349Y-51580151D01*
X153539849Y-51418238D01*
X153539846Y-51418233D01*
X153537523Y-51413251D01*
X153406198Y-51225700D01*
X153244300Y-51063802D01*
X153239792Y-51060645D01*
X153239789Y-51060643D01*
X153115971Y-50973945D01*
X153056749Y-50932477D01*
X153051767Y-50930154D01*
X153051762Y-50930151D01*
X153017543Y-50914195D01*
X152964258Y-50867278D01*
X152944797Y-50799001D01*
X152965339Y-50731041D01*
X153017543Y-50685805D01*
X153051762Y-50669849D01*
X153051767Y-50669846D01*
X153056749Y-50667523D01*
X153161611Y-50594098D01*
X153239789Y-50539357D01*
X153239792Y-50539355D01*
X153244300Y-50536198D01*
X153406198Y-50374300D01*
X153537523Y-50186749D01*
X153539846Y-50181767D01*
X153539849Y-50181762D01*
X153631961Y-49984225D01*
X153631961Y-49984224D01*
X153634284Y-49979243D01*
X153658300Y-49889617D01*
X153692119Y-49763402D01*
X153692119Y-49763400D01*
X153693543Y-49758087D01*
X153713498Y-49530000D01*
X153693543Y-49301913D01*
X153656981Y-49165461D01*
X153635707Y-49086067D01*
X153635706Y-49086065D01*
X153634284Y-49080757D01*
X153551874Y-48904027D01*
X153539849Y-48878238D01*
X153539846Y-48878233D01*
X153537523Y-48873251D01*
X153464098Y-48768389D01*
X153409357Y-48690211D01*
X153409355Y-48690208D01*
X153406198Y-48685700D01*
X153244300Y-48523802D01*
X153239792Y-48520645D01*
X153239789Y-48520643D01*
X153113920Y-48432509D01*
X153056749Y-48392477D01*
X153051767Y-48390154D01*
X153051762Y-48390151D01*
X153016951Y-48373919D01*
X152963666Y-48327002D01*
X152944205Y-48258725D01*
X152964747Y-48190765D01*
X153016951Y-48145529D01*
X153051511Y-48129414D01*
X153061006Y-48123931D01*
X153113048Y-48087491D01*
X153121424Y-48077012D01*
X153114356Y-48063566D01*
X152412812Y-47362022D01*
X152398868Y-47354408D01*
X152397035Y-47354539D01*
X152390420Y-47358790D01*
X151684923Y-48064287D01*
X151678493Y-48076062D01*
X151687789Y-48088077D01*
X151738994Y-48123931D01*
X151748489Y-48129414D01*
X151783049Y-48145529D01*
X151836334Y-48192446D01*
X151855795Y-48260723D01*
X151835253Y-48328683D01*
X151783049Y-48373919D01*
X151748238Y-48390151D01*
X151748233Y-48390154D01*
X151743251Y-48392477D01*
X151686080Y-48432509D01*
X151560211Y-48520643D01*
X151560208Y-48520645D01*
X151555700Y-48523802D01*
X151393802Y-48685700D01*
X151390645Y-48690208D01*
X151390643Y-48690211D01*
X151335902Y-48768389D01*
X151262477Y-48873251D01*
X151260154Y-48878233D01*
X151260151Y-48878238D01*
X151248126Y-48904027D01*
X151165716Y-49080757D01*
X151164294Y-49086065D01*
X151164293Y-49086067D01*
X151143019Y-49165461D01*
X151106457Y-49301913D01*
X151086502Y-49530000D01*
X151106457Y-49758087D01*
X151107881Y-49763400D01*
X151107881Y-49763402D01*
X151141701Y-49889617D01*
X151165716Y-49979243D01*
X151168039Y-49984224D01*
X151168039Y-49984225D01*
X151260151Y-50181762D01*
X151260154Y-50181767D01*
X151262477Y-50186749D01*
X151393802Y-50374300D01*
X151555700Y-50536198D01*
X151560208Y-50539355D01*
X151560211Y-50539357D01*
X151638389Y-50594098D01*
X151743251Y-50667523D01*
X151748233Y-50669846D01*
X151748238Y-50669849D01*
X151782457Y-50685805D01*
X151835742Y-50732722D01*
X151855203Y-50800999D01*
X151834661Y-50868959D01*
X151782457Y-50914195D01*
X151748238Y-50930151D01*
X151748233Y-50930154D01*
X151743251Y-50932477D01*
X151684029Y-50973945D01*
X151560211Y-51060643D01*
X151560208Y-51060645D01*
X151555700Y-51063802D01*
X151393802Y-51225700D01*
X151262477Y-51413251D01*
X151260154Y-51418233D01*
X151260151Y-51418238D01*
X151184651Y-51580151D01*
X151165716Y-51620757D01*
X151164294Y-51626065D01*
X151164293Y-51626067D01*
X151111410Y-51823427D01*
X151106457Y-51841913D01*
X151086502Y-52070000D01*
X151106457Y-52298087D01*
X151107881Y-52303400D01*
X151107881Y-52303402D01*
X151160957Y-52501481D01*
X151165716Y-52519243D01*
X151168039Y-52524224D01*
X151168039Y-52524225D01*
X151260151Y-52721762D01*
X151260154Y-52721767D01*
X151262477Y-52726749D01*
X151393802Y-52914300D01*
X151555700Y-53076198D01*
X151560208Y-53079355D01*
X151560211Y-53079357D01*
X151638389Y-53134098D01*
X151743251Y-53207523D01*
X151748233Y-53209846D01*
X151748238Y-53209849D01*
X151782457Y-53225805D01*
X151835742Y-53272722D01*
X151855203Y-53340999D01*
X151834661Y-53408959D01*
X151782457Y-53454195D01*
X151748238Y-53470151D01*
X151748233Y-53470154D01*
X151743251Y-53472477D01*
X151670644Y-53523317D01*
X151560211Y-53600643D01*
X151560208Y-53600645D01*
X151555700Y-53603802D01*
X151393802Y-53765700D01*
X151390645Y-53770208D01*
X151390643Y-53770211D01*
X151354860Y-53821315D01*
X151262477Y-53953251D01*
X151260154Y-53958233D01*
X151260151Y-53958238D01*
X151190383Y-54107858D01*
X151165716Y-54160757D01*
X151164294Y-54166065D01*
X151164293Y-54166067D01*
X151120272Y-54330354D01*
X151106457Y-54381913D01*
X151086502Y-54610000D01*
X151106457Y-54838087D01*
X151107881Y-54843400D01*
X151107881Y-54843402D01*
X151155253Y-55020193D01*
X151165716Y-55059243D01*
X151168039Y-55064224D01*
X151168039Y-55064225D01*
X151260151Y-55261762D01*
X151260154Y-55261767D01*
X151262477Y-55266749D01*
X151393802Y-55454300D01*
X151555700Y-55616198D01*
X151560208Y-55619355D01*
X151560211Y-55619357D01*
X151573907Y-55628947D01*
X151743251Y-55747523D01*
X151748233Y-55749846D01*
X151748238Y-55749849D01*
X151782457Y-55765805D01*
X151835742Y-55812722D01*
X151855203Y-55880999D01*
X151834661Y-55948959D01*
X151782457Y-55994195D01*
X151748238Y-56010151D01*
X151748233Y-56010154D01*
X151743251Y-56012477D01*
X151680771Y-56056226D01*
X151560211Y-56140643D01*
X151560208Y-56140645D01*
X151555700Y-56143802D01*
X151393802Y-56305700D01*
X151390645Y-56310208D01*
X151390643Y-56310211D01*
X151350513Y-56367523D01*
X151262477Y-56493251D01*
X151260154Y-56498233D01*
X151260151Y-56498238D01*
X151192134Y-56644102D01*
X151165716Y-56700757D01*
X151164294Y-56706065D01*
X151164293Y-56706067D01*
X151120272Y-56870354D01*
X151106457Y-56921913D01*
X151086502Y-57150000D01*
X151106457Y-57378087D01*
X151107881Y-57383400D01*
X151107881Y-57383402D01*
X151134230Y-57481735D01*
X151165716Y-57599243D01*
X151168039Y-57604224D01*
X151168039Y-57604225D01*
X151260151Y-57801762D01*
X151260154Y-57801767D01*
X151262477Y-57806749D01*
X151393802Y-57994300D01*
X151555700Y-58156198D01*
X151560208Y-58159355D01*
X151560211Y-58159357D01*
X151638389Y-58214098D01*
X151743251Y-58287523D01*
X151748233Y-58289846D01*
X151748238Y-58289849D01*
X151782457Y-58305805D01*
X151835742Y-58352722D01*
X151855203Y-58420999D01*
X151834661Y-58488959D01*
X151782457Y-58534195D01*
X151748238Y-58550151D01*
X151748233Y-58550154D01*
X151743251Y-58552477D01*
X151716021Y-58571544D01*
X151560211Y-58680643D01*
X151560208Y-58680645D01*
X151555700Y-58683802D01*
X151393802Y-58845700D01*
X151390645Y-58850208D01*
X151390643Y-58850211D01*
X151350513Y-58907523D01*
X151262477Y-59033251D01*
X151260154Y-59038233D01*
X151260151Y-59038238D01*
X151190383Y-59187858D01*
X151165716Y-59240757D01*
X151164294Y-59246065D01*
X151164293Y-59246067D01*
X151129438Y-59376147D01*
X151106457Y-59461913D01*
X151086502Y-59690000D01*
X151106457Y-59918087D01*
X151165716Y-60139243D01*
X151168039Y-60144224D01*
X151168039Y-60144225D01*
X151260151Y-60341762D01*
X151260154Y-60341767D01*
X151262477Y-60346749D01*
X151265634Y-60351257D01*
X151380008Y-60514600D01*
X151402696Y-60581874D01*
X151385411Y-60650734D01*
X151373884Y-60667181D01*
X151368906Y-60673199D01*
X151360912Y-60681984D01*
X148503078Y-63539817D01*
X148440181Y-63573968D01*
X148325212Y-63598406D01*
X148319182Y-63601091D01*
X148319181Y-63601091D01*
X148156778Y-63673397D01*
X148156776Y-63673398D01*
X148150748Y-63676082D01*
X147996247Y-63788334D01*
X147991826Y-63793244D01*
X147991825Y-63793245D01*
X147905286Y-63889357D01*
X147868460Y-63930256D01*
X147837220Y-63984366D01*
X147805789Y-64038806D01*
X147772973Y-64095644D01*
X147713958Y-64277272D01*
X147713268Y-64283833D01*
X147713268Y-64283835D01*
X147695758Y-64450434D01*
X147693996Y-64467200D01*
X147694686Y-64473765D01*
X147712512Y-64643366D01*
X147713958Y-64657128D01*
X147772973Y-64838756D01*
X147868460Y-65004144D01*
X147872878Y-65009051D01*
X147872879Y-65009052D01*
X147991268Y-65140536D01*
X147996247Y-65146066D01*
X148150748Y-65258318D01*
X148156776Y-65261002D01*
X148156778Y-65261003D01*
X148197551Y-65279156D01*
X148325212Y-65335994D01*
X148418612Y-65355847D01*
X148505556Y-65374328D01*
X148505561Y-65374328D01*
X148512013Y-65375700D01*
X148702987Y-65375700D01*
X148709439Y-65374328D01*
X148709444Y-65374328D01*
X148796388Y-65355847D01*
X148889788Y-65335994D01*
X149017449Y-65279156D01*
X149058222Y-65261003D01*
X149058224Y-65261002D01*
X149064252Y-65258318D01*
X149125343Y-65213933D01*
X149197171Y-65161746D01*
X149218753Y-65146066D01*
X149223168Y-65141163D01*
X149223864Y-65140536D01*
X149287871Y-65109819D01*
X149358325Y-65118584D01*
X149412856Y-65164048D01*
X149428006Y-65195236D01*
X149455273Y-65279156D01*
X149458576Y-65284878D01*
X149458577Y-65284879D01*
X149488881Y-65337366D01*
X149550760Y-65444544D01*
X149678547Y-65586466D01*
X149716857Y-65614300D01*
X149809807Y-65681832D01*
X149833048Y-65698718D01*
X149839076Y-65701402D01*
X149839078Y-65701403D01*
X149872998Y-65716505D01*
X150007512Y-65776394D01*
X150100912Y-65796247D01*
X150187856Y-65814728D01*
X150187861Y-65814728D01*
X150194313Y-65816100D01*
X150385287Y-65816100D01*
X150391739Y-65814728D01*
X150391744Y-65814728D01*
X150478688Y-65796247D01*
X150572088Y-65776394D01*
X150706602Y-65716505D01*
X150740522Y-65701403D01*
X150740524Y-65701402D01*
X150746552Y-65698718D01*
X150769794Y-65681832D01*
X150862743Y-65614300D01*
X150901053Y-65586466D01*
X151028840Y-65444544D01*
X151041954Y-65421830D01*
X151093334Y-65372838D01*
X151163048Y-65359401D01*
X151228959Y-65385787D01*
X151260175Y-65421813D01*
X151262477Y-65426749D01*
X151270936Y-65438829D01*
X151370874Y-65581555D01*
X151393802Y-65614300D01*
X151555700Y-65776198D01*
X151560208Y-65779355D01*
X151560211Y-65779357D01*
X151610726Y-65814728D01*
X151743251Y-65907523D01*
X151748233Y-65909846D01*
X151748238Y-65909849D01*
X151782457Y-65925805D01*
X151835742Y-65972722D01*
X151855203Y-66040999D01*
X151834661Y-66108959D01*
X151782457Y-66154195D01*
X151748238Y-66170151D01*
X151748233Y-66170154D01*
X151743251Y-66172477D01*
X151709857Y-66195860D01*
X151560211Y-66300643D01*
X151560208Y-66300645D01*
X151555700Y-66303802D01*
X151393802Y-66465700D01*
X151262477Y-66653251D01*
X151260154Y-66658233D01*
X151260151Y-66658238D01*
X151190383Y-66807858D01*
X151165716Y-66860757D01*
X151164294Y-66866065D01*
X151164293Y-66866067D01*
X151110531Y-67066708D01*
X151106457Y-67081913D01*
X151086502Y-67310000D01*
X151106457Y-67538087D01*
X151107881Y-67543400D01*
X151107881Y-67543402D01*
X151123459Y-67601541D01*
X151121769Y-67672518D01*
X151090847Y-67723247D01*
X151049099Y-67764995D01*
X150986787Y-67799021D01*
X150960004Y-67801900D01*
X138547061Y-67801900D01*
X138478940Y-67781898D01*
X138432447Y-67728242D01*
X138422343Y-67657968D01*
X138425354Y-67643289D01*
X138452119Y-67543402D01*
X138452119Y-67543400D01*
X138453543Y-67538087D01*
X138473498Y-67310000D01*
X138453543Y-67081913D01*
X138449469Y-67066708D01*
X138395707Y-66866067D01*
X138395706Y-66866065D01*
X138394284Y-66860757D01*
X138369617Y-66807858D01*
X138299849Y-66658238D01*
X138299846Y-66658233D01*
X138297523Y-66653251D01*
X138166198Y-66465700D01*
X138004300Y-66303802D01*
X137999792Y-66300645D01*
X137999789Y-66300643D01*
X137850143Y-66195860D01*
X137816749Y-66172477D01*
X137811767Y-66170154D01*
X137811762Y-66170151D01*
X137777543Y-66154195D01*
X137724258Y-66107278D01*
X137704797Y-66039001D01*
X137725339Y-65971041D01*
X137777543Y-65925805D01*
X137811762Y-65909849D01*
X137811767Y-65909846D01*
X137816749Y-65907523D01*
X137949274Y-65814728D01*
X137999789Y-65779357D01*
X137999792Y-65779355D01*
X138004300Y-65776198D01*
X138166198Y-65614300D01*
X138189127Y-65581555D01*
X138281626Y-65449452D01*
X138297523Y-65426749D01*
X138299846Y-65421767D01*
X138299849Y-65421762D01*
X138391961Y-65224225D01*
X138391961Y-65224224D01*
X138394284Y-65219243D01*
X138400717Y-65195237D01*
X138452119Y-65003402D01*
X138452119Y-65003400D01*
X138453543Y-64998087D01*
X138473498Y-64770000D01*
X138453543Y-64541913D01*
X138451286Y-64533490D01*
X138395707Y-64326067D01*
X138395706Y-64326065D01*
X138394284Y-64320757D01*
X138374007Y-64277272D01*
X138299849Y-64118238D01*
X138299846Y-64118233D01*
X138297523Y-64113251D01*
X138216505Y-63997545D01*
X138169357Y-63930211D01*
X138169355Y-63930208D01*
X138166198Y-63925700D01*
X138004300Y-63763802D01*
X137999792Y-63760645D01*
X137999789Y-63760643D01*
X137879023Y-63676082D01*
X137816749Y-63632477D01*
X137811767Y-63630154D01*
X137811762Y-63630151D01*
X137777543Y-63614195D01*
X137724258Y-63567278D01*
X137704797Y-63499001D01*
X137725339Y-63431041D01*
X137777543Y-63385805D01*
X137811762Y-63369849D01*
X137811767Y-63369846D01*
X137816749Y-63367523D01*
X137969122Y-63260830D01*
X137999789Y-63239357D01*
X137999792Y-63239355D01*
X138004300Y-63236198D01*
X138166198Y-63074300D01*
X138192565Y-63036645D01*
X138245302Y-62961328D01*
X138297523Y-62886749D01*
X138299846Y-62881767D01*
X138299849Y-62881762D01*
X138391961Y-62684225D01*
X138391961Y-62684224D01*
X138394284Y-62679243D01*
X138453543Y-62458087D01*
X138473498Y-62230000D01*
X138453543Y-62001913D01*
X138430690Y-61916624D01*
X138395707Y-61786067D01*
X138395706Y-61786065D01*
X138394284Y-61780757D01*
X138391961Y-61775775D01*
X138299849Y-61578238D01*
X138299846Y-61578233D01*
X138297523Y-61573251D01*
X138209487Y-61447523D01*
X138169357Y-61390211D01*
X138169355Y-61390208D01*
X138166198Y-61385700D01*
X138004300Y-61223802D01*
X137999792Y-61220645D01*
X137999789Y-61220643D01*
X137898599Y-61149789D01*
X137816749Y-61092477D01*
X137811767Y-61090154D01*
X137811762Y-61090151D01*
X137777543Y-61074195D01*
X137724258Y-61027278D01*
X137704797Y-60959001D01*
X137725339Y-60891041D01*
X137777543Y-60845805D01*
X137811762Y-60829849D01*
X137811767Y-60829846D01*
X137816749Y-60827523D01*
X137969178Y-60720791D01*
X137999789Y-60699357D01*
X137999792Y-60699355D01*
X138004300Y-60696198D01*
X138166198Y-60534300D01*
X138297523Y-60346749D01*
X138299846Y-60341767D01*
X138299849Y-60341762D01*
X138391961Y-60144225D01*
X138391961Y-60144224D01*
X138394284Y-60139243D01*
X138453543Y-59918087D01*
X138473498Y-59690000D01*
X138453543Y-59461913D01*
X138430562Y-59376147D01*
X138395707Y-59246067D01*
X138395706Y-59246065D01*
X138394284Y-59240757D01*
X138369617Y-59187858D01*
X138299849Y-59038238D01*
X138299846Y-59038233D01*
X138297523Y-59033251D01*
X138209487Y-58907523D01*
X138169357Y-58850211D01*
X138169355Y-58850208D01*
X138166198Y-58845700D01*
X138004300Y-58683802D01*
X137999792Y-58680645D01*
X137999789Y-58680643D01*
X137843979Y-58571544D01*
X137816749Y-58552477D01*
X137811767Y-58550154D01*
X137811762Y-58550151D01*
X137777543Y-58534195D01*
X137724258Y-58487278D01*
X137704797Y-58419001D01*
X137725339Y-58351041D01*
X137777543Y-58305805D01*
X137811762Y-58289849D01*
X137811767Y-58289846D01*
X137816749Y-58287523D01*
X137921611Y-58214098D01*
X137999789Y-58159357D01*
X137999792Y-58159355D01*
X138004300Y-58156198D01*
X138166198Y-57994300D01*
X138297523Y-57806749D01*
X138299846Y-57801767D01*
X138299849Y-57801762D01*
X138391961Y-57604225D01*
X138391961Y-57604224D01*
X138394284Y-57599243D01*
X138425771Y-57481735D01*
X138452119Y-57383402D01*
X138452119Y-57383400D01*
X138453543Y-57378087D01*
X138473498Y-57150000D01*
X138453543Y-56921913D01*
X138439728Y-56870354D01*
X138395707Y-56706067D01*
X138395706Y-56706065D01*
X138394284Y-56700757D01*
X138367866Y-56644102D01*
X138299849Y-56498238D01*
X138299846Y-56498233D01*
X138297523Y-56493251D01*
X138209487Y-56367523D01*
X138169357Y-56310211D01*
X138169355Y-56310208D01*
X138166198Y-56305700D01*
X138004300Y-56143802D01*
X137999792Y-56140645D01*
X137999789Y-56140643D01*
X137879229Y-56056226D01*
X137816749Y-56012477D01*
X137811767Y-56010154D01*
X137811762Y-56010151D01*
X137777543Y-55994195D01*
X137724258Y-55947278D01*
X137704797Y-55879001D01*
X137725339Y-55811041D01*
X137777543Y-55765805D01*
X137811762Y-55749849D01*
X137811767Y-55749846D01*
X137816749Y-55747523D01*
X137986093Y-55628947D01*
X137999789Y-55619357D01*
X137999792Y-55619355D01*
X138004300Y-55616198D01*
X138166198Y-55454300D01*
X138297523Y-55266749D01*
X138299846Y-55261767D01*
X138299849Y-55261762D01*
X138391961Y-55064225D01*
X138391961Y-55064224D01*
X138394284Y-55059243D01*
X138404748Y-55020193D01*
X138452119Y-54843402D01*
X138452119Y-54843400D01*
X138453543Y-54838087D01*
X138473498Y-54610000D01*
X138453543Y-54381913D01*
X138439728Y-54330354D01*
X138395707Y-54166067D01*
X138395706Y-54166065D01*
X138394284Y-54160757D01*
X138369617Y-54107858D01*
X138299849Y-53958238D01*
X138299846Y-53958233D01*
X138297523Y-53953251D01*
X138205140Y-53821315D01*
X138169357Y-53770211D01*
X138169355Y-53770208D01*
X138166198Y-53765700D01*
X138004300Y-53603802D01*
X137999792Y-53600645D01*
X137999789Y-53600643D01*
X137889356Y-53523317D01*
X137816749Y-53472477D01*
X137811767Y-53470154D01*
X137811762Y-53470151D01*
X137776951Y-53453919D01*
X137723666Y-53407002D01*
X137704205Y-53338725D01*
X137724747Y-53270765D01*
X137776951Y-53225529D01*
X137811511Y-53209414D01*
X137821006Y-53203931D01*
X137873048Y-53167491D01*
X137881424Y-53157012D01*
X137874356Y-53143566D01*
X137172812Y-52442022D01*
X137158868Y-52434408D01*
X137157035Y-52434539D01*
X137150420Y-52438790D01*
X136444923Y-53144287D01*
X136438493Y-53156062D01*
X136447789Y-53168077D01*
X136498994Y-53203931D01*
X136508489Y-53209414D01*
X136543049Y-53225529D01*
X136596334Y-53272446D01*
X136615795Y-53340723D01*
X136595253Y-53408683D01*
X136543049Y-53453919D01*
X136508238Y-53470151D01*
X136508233Y-53470154D01*
X136503251Y-53472477D01*
X136430644Y-53523317D01*
X136320211Y-53600643D01*
X136320208Y-53600645D01*
X136315700Y-53603802D01*
X136153802Y-53765700D01*
X136150645Y-53770208D01*
X136150643Y-53770211D01*
X136114860Y-53821315D01*
X136022477Y-53953251D01*
X136020154Y-53958233D01*
X136020151Y-53958238D01*
X135950383Y-54107858D01*
X135925716Y-54160757D01*
X135924294Y-54166065D01*
X135924293Y-54166067D01*
X135880272Y-54330354D01*
X135866457Y-54381913D01*
X135846502Y-54610000D01*
X135866457Y-54838087D01*
X135867881Y-54843400D01*
X135867881Y-54843402D01*
X135915253Y-55020193D01*
X135925716Y-55059243D01*
X135928039Y-55064224D01*
X135928039Y-55064225D01*
X136020151Y-55261762D01*
X136020154Y-55261767D01*
X136022477Y-55266749D01*
X136153802Y-55454300D01*
X136315700Y-55616198D01*
X136320208Y-55619355D01*
X136320211Y-55619357D01*
X136333907Y-55628947D01*
X136503251Y-55747523D01*
X136508233Y-55749846D01*
X136508238Y-55749849D01*
X136542457Y-55765805D01*
X136595742Y-55812722D01*
X136615203Y-55880999D01*
X136594661Y-55948959D01*
X136542457Y-55994195D01*
X136508238Y-56010151D01*
X136508233Y-56010154D01*
X136503251Y-56012477D01*
X136440771Y-56056226D01*
X136320211Y-56140643D01*
X136320208Y-56140645D01*
X136315700Y-56143802D01*
X136153802Y-56305700D01*
X136150645Y-56310208D01*
X136150643Y-56310211D01*
X136110513Y-56367523D01*
X136022477Y-56493251D01*
X136020154Y-56498233D01*
X136020151Y-56498238D01*
X135952134Y-56644102D01*
X135925716Y-56700757D01*
X135924294Y-56706065D01*
X135924293Y-56706067D01*
X135880272Y-56870354D01*
X135866457Y-56921913D01*
X135846502Y-57150000D01*
X135866457Y-57378087D01*
X135867881Y-57383400D01*
X135867881Y-57383402D01*
X135894230Y-57481735D01*
X135925716Y-57599243D01*
X135928039Y-57604224D01*
X135928039Y-57604225D01*
X136020151Y-57801762D01*
X136020154Y-57801767D01*
X136022477Y-57806749D01*
X136153802Y-57994300D01*
X136315700Y-58156198D01*
X136320208Y-58159355D01*
X136320211Y-58159357D01*
X136398389Y-58214098D01*
X136503251Y-58287523D01*
X136508233Y-58289846D01*
X136508238Y-58289849D01*
X136542457Y-58305805D01*
X136595742Y-58352722D01*
X136615203Y-58420999D01*
X136594661Y-58488959D01*
X136542457Y-58534195D01*
X136508238Y-58550151D01*
X136508233Y-58550154D01*
X136503251Y-58552477D01*
X136476021Y-58571544D01*
X136320211Y-58680643D01*
X136320208Y-58680645D01*
X136315700Y-58683802D01*
X136153802Y-58845700D01*
X136150645Y-58850208D01*
X136150643Y-58850211D01*
X136110513Y-58907523D01*
X136022477Y-59033251D01*
X136020154Y-59038233D01*
X136020151Y-59038238D01*
X135950383Y-59187858D01*
X135925716Y-59240757D01*
X135924294Y-59246065D01*
X135924293Y-59246067D01*
X135889438Y-59376147D01*
X135866457Y-59461913D01*
X135846502Y-59690000D01*
X135866457Y-59918087D01*
X135925716Y-60139243D01*
X135928039Y-60144224D01*
X135928039Y-60144225D01*
X136020151Y-60341762D01*
X136020154Y-60341767D01*
X136022477Y-60346749D01*
X136153802Y-60534300D01*
X136315700Y-60696198D01*
X136320208Y-60699355D01*
X136320211Y-60699357D01*
X136350822Y-60720791D01*
X136503251Y-60827523D01*
X136508233Y-60829846D01*
X136508238Y-60829849D01*
X136542457Y-60845805D01*
X136595742Y-60892722D01*
X136615203Y-60960999D01*
X136594661Y-61028959D01*
X136542457Y-61074195D01*
X136508238Y-61090151D01*
X136508233Y-61090154D01*
X136503251Y-61092477D01*
X136421401Y-61149789D01*
X136320211Y-61220643D01*
X136320208Y-61220645D01*
X136315700Y-61223802D01*
X136153802Y-61385700D01*
X136150645Y-61390208D01*
X136150643Y-61390211D01*
X136110513Y-61447523D01*
X136022477Y-61573251D01*
X136020154Y-61578233D01*
X136020151Y-61578238D01*
X135928039Y-61775775D01*
X135925716Y-61780757D01*
X135924294Y-61786065D01*
X135924293Y-61786067D01*
X135889310Y-61916624D01*
X135866457Y-62001913D01*
X135846502Y-62230000D01*
X135866457Y-62458087D01*
X135925716Y-62679243D01*
X135928039Y-62684224D01*
X135928039Y-62684225D01*
X136020151Y-62881762D01*
X136020154Y-62881767D01*
X136022477Y-62886749D01*
X136074698Y-62961328D01*
X136127436Y-63036645D01*
X136153802Y-63074300D01*
X136315700Y-63236198D01*
X136320208Y-63239355D01*
X136320211Y-63239357D01*
X136350878Y-63260830D01*
X136503251Y-63367523D01*
X136508233Y-63369846D01*
X136508238Y-63369849D01*
X136542457Y-63385805D01*
X136595742Y-63432722D01*
X136615203Y-63500999D01*
X136594661Y-63568959D01*
X136542457Y-63614195D01*
X136508238Y-63630151D01*
X136508233Y-63630154D01*
X136503251Y-63632477D01*
X136440977Y-63676082D01*
X136320211Y-63760643D01*
X136320208Y-63760645D01*
X136315700Y-63763802D01*
X136153802Y-63925700D01*
X136150645Y-63930208D01*
X136150643Y-63930211D01*
X136103495Y-63997545D01*
X136022477Y-64113251D01*
X136020154Y-64118233D01*
X136020151Y-64118238D01*
X135945993Y-64277272D01*
X135925716Y-64320757D01*
X135924294Y-64326065D01*
X135924293Y-64326067D01*
X135868714Y-64533490D01*
X135866457Y-64541913D01*
X135846502Y-64770000D01*
X135866457Y-64998087D01*
X135867881Y-65003400D01*
X135867881Y-65003402D01*
X135919284Y-65195237D01*
X135925716Y-65219243D01*
X135928039Y-65224224D01*
X135928039Y-65224225D01*
X136020151Y-65421762D01*
X136020154Y-65421767D01*
X136022477Y-65426749D01*
X136038374Y-65449452D01*
X136130874Y-65581555D01*
X136153802Y-65614300D01*
X136315700Y-65776198D01*
X136320208Y-65779355D01*
X136320211Y-65779357D01*
X136370726Y-65814728D01*
X136503251Y-65907523D01*
X136508233Y-65909846D01*
X136508238Y-65909849D01*
X136542457Y-65925805D01*
X136595742Y-65972722D01*
X136615203Y-66040999D01*
X136594661Y-66108959D01*
X136542457Y-66154195D01*
X136508238Y-66170151D01*
X136508233Y-66170154D01*
X136503251Y-66172477D01*
X136469857Y-66195860D01*
X136320211Y-66300643D01*
X136320208Y-66300645D01*
X136315700Y-66303802D01*
X136153802Y-66465700D01*
X136150645Y-66470208D01*
X136150643Y-66470211D01*
X136043819Y-66622771D01*
X135988362Y-66667099D01*
X135940606Y-66676500D01*
X135299700Y-66676500D01*
X135231579Y-66656498D01*
X135185086Y-66602842D01*
X135173700Y-66550500D01*
X135173700Y-58662268D01*
X135174227Y-58651085D01*
X135175902Y-58643592D01*
X135173762Y-58575501D01*
X135173700Y-58571544D01*
X135173700Y-58543644D01*
X135173196Y-58539653D01*
X135172263Y-58527811D01*
X135171796Y-58512932D01*
X135170874Y-58483611D01*
X135165221Y-58464152D01*
X135161212Y-58444793D01*
X135159669Y-58432580D01*
X135158674Y-58424703D01*
X135155758Y-58417337D01*
X135155756Y-58417331D01*
X135142400Y-58383598D01*
X135138555Y-58372368D01*
X135128430Y-58337517D01*
X135128430Y-58337516D01*
X135126219Y-58329907D01*
X135115905Y-58312466D01*
X135107208Y-58294713D01*
X135102672Y-58283258D01*
X135099752Y-58275883D01*
X135073763Y-58240112D01*
X135067247Y-58230192D01*
X135048778Y-58198963D01*
X135044742Y-58192138D01*
X135030421Y-58177817D01*
X135017580Y-58162783D01*
X135012796Y-58156198D01*
X135005672Y-58146393D01*
X134971595Y-58118202D01*
X134962816Y-58110212D01*
X133113233Y-56260628D01*
X133079207Y-56198316D01*
X133084272Y-56127500D01*
X133099115Y-56099262D01*
X133223931Y-55921006D01*
X133229414Y-55911511D01*
X133321490Y-55714053D01*
X133325236Y-55703761D01*
X133371394Y-55531497D01*
X133371058Y-55517401D01*
X133363116Y-55514000D01*
X131962000Y-55514000D01*
X131893879Y-55493998D01*
X131847386Y-55440342D01*
X131836000Y-55388000D01*
X131836000Y-55132000D01*
X131856002Y-55063879D01*
X131909658Y-55017386D01*
X131962000Y-55006000D01*
X133357967Y-55006000D01*
X133371498Y-55002027D01*
X133372727Y-54993478D01*
X133325236Y-54816239D01*
X133321490Y-54805947D01*
X133229414Y-54608489D01*
X133223931Y-54598993D01*
X133098972Y-54420533D01*
X133091916Y-54412125D01*
X132937875Y-54258084D01*
X132929467Y-54251028D01*
X132751007Y-54126069D01*
X132741511Y-54120586D01*
X132706951Y-54104471D01*
X132653666Y-54057554D01*
X132634205Y-53989277D01*
X132654747Y-53921317D01*
X132706951Y-53876081D01*
X132741762Y-53859849D01*
X132741767Y-53859846D01*
X132746749Y-53857523D01*
X132871443Y-53770211D01*
X132929789Y-53729357D01*
X132929792Y-53729355D01*
X132934300Y-53726198D01*
X133096198Y-53564300D01*
X133118655Y-53532229D01*
X133174110Y-53487901D01*
X133221867Y-53478500D01*
X133273230Y-53478500D01*
X133292180Y-53479933D01*
X133306415Y-53482099D01*
X133306419Y-53482099D01*
X133313649Y-53483199D01*
X133320941Y-53482606D01*
X133320944Y-53482606D01*
X133366318Y-53478915D01*
X133376533Y-53478500D01*
X133384593Y-53478500D01*
X133401980Y-53476473D01*
X133412807Y-53475211D01*
X133417182Y-53474778D01*
X133482639Y-53469454D01*
X133482642Y-53469453D01*
X133489937Y-53468860D01*
X133496901Y-53466604D01*
X133502860Y-53465413D01*
X133508715Y-53464029D01*
X133515981Y-53463182D01*
X133584627Y-53438265D01*
X133588755Y-53436848D01*
X133651236Y-53416607D01*
X133651238Y-53416606D01*
X133658199Y-53414351D01*
X133664454Y-53410555D01*
X133669928Y-53408049D01*
X133675358Y-53405330D01*
X133682237Y-53402833D01*
X133688358Y-53398820D01*
X133743276Y-53362814D01*
X133746980Y-53360477D01*
X133809407Y-53322595D01*
X133817784Y-53315197D01*
X133817808Y-53315224D01*
X133820800Y-53312571D01*
X133824033Y-53309868D01*
X133830152Y-53305856D01*
X133883428Y-53249617D01*
X133885806Y-53247175D01*
X135537576Y-51595405D01*
X135599888Y-51561379D01*
X135626671Y-51558500D01*
X135778708Y-51558500D01*
X135846829Y-51578502D01*
X135893322Y-51632158D01*
X135903426Y-51702432D01*
X135900415Y-51717111D01*
X135868375Y-51836688D01*
X135866472Y-51847481D01*
X135847483Y-52064525D01*
X135847483Y-52075475D01*
X135866472Y-52292519D01*
X135868375Y-52303312D01*
X135924764Y-52513761D01*
X135928510Y-52524053D01*
X136020586Y-52721511D01*
X136026069Y-52731006D01*
X136062509Y-52783048D01*
X136072988Y-52791424D01*
X136086434Y-52784356D01*
X137070905Y-51799885D01*
X137133217Y-51765859D01*
X137204032Y-51770924D01*
X137249095Y-51799885D01*
X138234287Y-52785077D01*
X138246062Y-52791507D01*
X138258077Y-52782211D01*
X138293931Y-52731006D01*
X138299414Y-52721511D01*
X138391490Y-52524053D01*
X138395236Y-52513761D01*
X138451625Y-52303312D01*
X138453528Y-52292519D01*
X138472517Y-52075475D01*
X138472517Y-52064525D01*
X138453528Y-51847481D01*
X138451625Y-51836688D01*
X138419585Y-51717111D01*
X138421275Y-51646135D01*
X138461069Y-51587339D01*
X138526334Y-51559391D01*
X138541292Y-51558500D01*
X145982930Y-51558500D01*
X146001880Y-51559933D01*
X146016115Y-51562099D01*
X146016119Y-51562099D01*
X146023349Y-51563199D01*
X146030641Y-51562606D01*
X146030644Y-51562606D01*
X146076018Y-51558915D01*
X146086233Y-51558500D01*
X146094293Y-51558500D01*
X146113044Y-51556314D01*
X146122507Y-51555211D01*
X146126882Y-51554778D01*
X146192339Y-51549454D01*
X146192342Y-51549453D01*
X146199637Y-51548860D01*
X146206601Y-51546604D01*
X146212560Y-51545413D01*
X146218415Y-51544029D01*
X146225681Y-51543182D01*
X146294327Y-51518265D01*
X146298455Y-51516848D01*
X146360936Y-51496607D01*
X146360938Y-51496606D01*
X146367899Y-51494351D01*
X146374154Y-51490555D01*
X146379628Y-51488049D01*
X146385058Y-51485330D01*
X146391937Y-51482833D01*
X146452976Y-51442814D01*
X146456680Y-51440477D01*
X146519107Y-51402595D01*
X146527484Y-51395197D01*
X146527508Y-51395224D01*
X146530500Y-51392571D01*
X146533733Y-51389868D01*
X146539852Y-51385856D01*
X146593128Y-51329617D01*
X146595506Y-51327175D01*
X150883523Y-47039158D01*
X150945835Y-47005132D01*
X151016650Y-47010197D01*
X151073486Y-47052744D01*
X151098139Y-47117272D01*
X151106472Y-47212520D01*
X151108375Y-47223312D01*
X151164764Y-47433761D01*
X151168510Y-47444053D01*
X151260586Y-47641511D01*
X151266069Y-47651006D01*
X151302509Y-47703048D01*
X151312988Y-47711424D01*
X151326434Y-47704356D01*
X152039658Y-46991132D01*
X152764408Y-46991132D01*
X152764539Y-46992965D01*
X152768790Y-46999580D01*
X153474287Y-47705077D01*
X153486062Y-47711507D01*
X153498077Y-47702211D01*
X153533931Y-47651006D01*
X153539414Y-47641511D01*
X153631490Y-47444053D01*
X153635236Y-47433761D01*
X153691625Y-47223312D01*
X153693528Y-47212519D01*
X153712517Y-46995475D01*
X153712517Y-46984525D01*
X153693528Y-46767481D01*
X153691625Y-46756688D01*
X153635236Y-46546239D01*
X153631490Y-46535947D01*
X153539414Y-46338489D01*
X153533931Y-46328994D01*
X153497491Y-46276952D01*
X153487012Y-46268576D01*
X153473566Y-46275644D01*
X152772022Y-46977188D01*
X152764408Y-46991132D01*
X152039658Y-46991132D01*
X153115077Y-45915713D01*
X153121507Y-45903938D01*
X153112211Y-45891923D01*
X153061006Y-45856069D01*
X153051511Y-45850586D01*
X153016951Y-45834471D01*
X152963666Y-45787554D01*
X152944205Y-45719277D01*
X152964747Y-45651317D01*
X153016951Y-45606081D01*
X153051762Y-45589849D01*
X153051767Y-45589846D01*
X153056749Y-45587523D01*
X153198458Y-45488297D01*
X153239789Y-45459357D01*
X153239792Y-45459355D01*
X153244300Y-45456198D01*
X153406198Y-45294300D01*
X153428655Y-45262229D01*
X153484110Y-45217901D01*
X153531867Y-45208500D01*
X154903329Y-45208500D01*
X154971450Y-45228502D01*
G37*
%TD.AperFunction*%
%TD*%
M02*
