%TF.GenerationSoftware,KiCad,Pcbnew,(6.0.1)*%
%TF.CreationDate,2022-02-11T21:46:40-08:00*%
%TF.ProjectId,dcs-joystick,6463732d-6a6f-4797-9374-69636b2e6b69,rev?*%
%TF.SameCoordinates,Original*%
%TF.FileFunction,Legend,Top*%
%TF.FilePolarity,Positive*%
%FSLAX46Y46*%
G04 Gerber Fmt 4.6, Leading zero omitted, Abs format (unit mm)*
G04 Created by KiCad (PCBNEW (6.0.1)) date 2022-02-11 21:46:40*
%MOMM*%
%LPD*%
G01*
G04 APERTURE LIST*
%ADD10C,0.300000*%
%ADD11C,0.150000*%
%ADD12C,0.120000*%
G04 APERTURE END LIST*
D10*
X111335428Y-104969857D02*
X111335428Y-104112714D01*
X111335428Y-104541285D02*
X112835428Y-104541285D01*
X112621142Y-104398428D01*
X112478285Y-104255571D01*
X112406857Y-104112714D01*
X112835428Y-106255571D02*
X112835428Y-105969857D01*
X112764000Y-105827000D01*
X112692571Y-105755571D01*
X112478285Y-105612714D01*
X112192571Y-105541285D01*
X111621142Y-105541285D01*
X111478285Y-105612714D01*
X111406857Y-105684142D01*
X111335428Y-105827000D01*
X111335428Y-106112714D01*
X111406857Y-106255571D01*
X111478285Y-106327000D01*
X111621142Y-106398428D01*
X111978285Y-106398428D01*
X112121142Y-106327000D01*
X112192571Y-106255571D01*
X112264000Y-106112714D01*
X112264000Y-105827000D01*
X112192571Y-105684142D01*
X112121142Y-105612714D01*
X111978285Y-105541285D01*
X124564999Y-107421071D02*
X124564999Y-105921071D01*
X125064999Y-106992500D01*
X125564999Y-105921071D01*
X125564999Y-107421071D01*
X126922142Y-107421071D02*
X126922142Y-106635357D01*
X126850714Y-106492500D01*
X126707857Y-106421071D01*
X126422142Y-106421071D01*
X126279285Y-106492500D01*
X126922142Y-107349642D02*
X126779285Y-107421071D01*
X126422142Y-107421071D01*
X126279285Y-107349642D01*
X126207857Y-107206785D01*
X126207857Y-107063928D01*
X126279285Y-106921071D01*
X126422142Y-106849642D01*
X126779285Y-106849642D01*
X126922142Y-106778214D01*
X127493571Y-107421071D02*
X128279285Y-106421071D01*
X127493571Y-106421071D02*
X128279285Y-107421071D01*
X131207857Y-107421071D02*
X131136428Y-107421071D01*
X130993571Y-107349642D01*
X130779285Y-107135357D01*
X130422142Y-106706785D01*
X130279285Y-106492500D01*
X130207857Y-106278214D01*
X130207857Y-106135357D01*
X130279285Y-105992500D01*
X130422142Y-105921071D01*
X130493571Y-105921071D01*
X130636428Y-105992500D01*
X130707857Y-106135357D01*
X130707857Y-106206785D01*
X130636428Y-106349642D01*
X130564999Y-106421071D01*
X130136428Y-106706785D01*
X130064999Y-106778214D01*
X129993571Y-106921071D01*
X129993571Y-107135357D01*
X130064999Y-107278214D01*
X130136428Y-107349642D01*
X130279285Y-107421071D01*
X130493571Y-107421071D01*
X130636428Y-107349642D01*
X130707857Y-107278214D01*
X130922142Y-106992500D01*
X130993571Y-106778214D01*
X130993571Y-106635357D01*
X133850714Y-107278214D02*
X133779285Y-107349642D01*
X133565000Y-107421071D01*
X133422142Y-107421071D01*
X133207857Y-107349642D01*
X133065000Y-107206785D01*
X132993571Y-107063928D01*
X132922142Y-106778214D01*
X132922142Y-106563928D01*
X132993571Y-106278214D01*
X133065000Y-106135357D01*
X133207857Y-105992500D01*
X133422142Y-105921071D01*
X133565000Y-105921071D01*
X133779285Y-105992500D01*
X133850714Y-106063928D01*
X134707857Y-107421071D02*
X134565000Y-107349642D01*
X134493571Y-107278214D01*
X134422142Y-107135357D01*
X134422142Y-106706785D01*
X134493571Y-106563928D01*
X134565000Y-106492500D01*
X134707857Y-106421071D01*
X134922142Y-106421071D01*
X135065000Y-106492500D01*
X135136428Y-106563928D01*
X135207857Y-106706785D01*
X135207857Y-107135357D01*
X135136428Y-107278214D01*
X135065000Y-107349642D01*
X134922142Y-107421071D01*
X134707857Y-107421071D01*
X135850714Y-106421071D02*
X135850714Y-107421071D01*
X135850714Y-106563928D02*
X135922142Y-106492500D01*
X136065000Y-106421071D01*
X136279285Y-106421071D01*
X136422142Y-106492500D01*
X136493571Y-106635357D01*
X136493571Y-107421071D01*
X137207857Y-106421071D02*
X137207857Y-107421071D01*
X137207857Y-106563928D02*
X137279285Y-106492500D01*
X137422142Y-106421071D01*
X137636428Y-106421071D01*
X137779285Y-106492500D01*
X137850714Y-106635357D01*
X137850714Y-107421071D01*
X138779285Y-107421071D02*
X138636428Y-107349642D01*
X138565000Y-107278214D01*
X138493571Y-107135357D01*
X138493571Y-106706785D01*
X138565000Y-106563928D01*
X138636428Y-106492500D01*
X138779285Y-106421071D01*
X138993571Y-106421071D01*
X139136428Y-106492500D01*
X139207857Y-106563928D01*
X139279285Y-106706785D01*
X139279285Y-107135357D01*
X139207857Y-107278214D01*
X139136428Y-107349642D01*
X138993571Y-107421071D01*
X138779285Y-107421071D01*
X139922142Y-107421071D02*
X139922142Y-106421071D01*
X139922142Y-106706785D02*
X139993571Y-106563928D01*
X140065000Y-106492500D01*
X140207857Y-106421071D01*
X140350714Y-106421071D01*
X140922142Y-105921071D02*
X140779285Y-106206785D01*
X141493571Y-107349642D02*
X141636428Y-107421071D01*
X141922142Y-107421071D01*
X142065000Y-107349642D01*
X142136428Y-107206785D01*
X142136428Y-107135357D01*
X142065000Y-106992500D01*
X141922142Y-106921071D01*
X141707857Y-106921071D01*
X141565000Y-106849642D01*
X141493571Y-106706785D01*
X141493571Y-106635357D01*
X141565000Y-106492500D01*
X141707857Y-106421071D01*
X141922142Y-106421071D01*
X142065000Y-106492500D01*
X143779285Y-105921071D02*
X144707857Y-105921071D01*
X144207857Y-106492500D01*
X144422142Y-106492500D01*
X144565000Y-106563928D01*
X144636428Y-106635357D01*
X144707857Y-106778214D01*
X144707857Y-107135357D01*
X144636428Y-107278214D01*
X144565000Y-107349642D01*
X144422142Y-107421071D01*
X143993571Y-107421071D01*
X143850714Y-107349642D01*
X143779285Y-107278214D01*
X145279285Y-106063928D02*
X145350714Y-105992500D01*
X145493571Y-105921071D01*
X145850714Y-105921071D01*
X145993571Y-105992500D01*
X146065000Y-106063928D01*
X146136428Y-106206785D01*
X146136428Y-106349642D01*
X146065000Y-106563928D01*
X145207857Y-107421071D01*
X146136428Y-107421071D01*
X146779285Y-106849642D02*
X147922142Y-106849642D01*
X148636428Y-107421071D02*
X148636428Y-105921071D01*
X149350714Y-106421071D02*
X149350714Y-107421071D01*
X149350714Y-106563928D02*
X149422142Y-106492500D01*
X149565000Y-106421071D01*
X149779285Y-106421071D01*
X149922142Y-106492500D01*
X149993571Y-106635357D01*
X149993571Y-107421071D01*
X150707857Y-106421071D02*
X150707857Y-107921071D01*
X150707857Y-106492500D02*
X150850714Y-106421071D01*
X151136428Y-106421071D01*
X151279285Y-106492500D01*
X151350714Y-106563928D01*
X151422142Y-106706785D01*
X151422142Y-107135357D01*
X151350714Y-107278214D01*
X151279285Y-107349642D01*
X151136428Y-107421071D01*
X150850714Y-107421071D01*
X150707857Y-107349642D01*
X152707857Y-106421071D02*
X152707857Y-107421071D01*
X152065000Y-106421071D02*
X152065000Y-107206785D01*
X152136428Y-107349642D01*
X152279285Y-107421071D01*
X152493571Y-107421071D01*
X152636428Y-107349642D01*
X152707857Y-107278214D01*
X153207857Y-106421071D02*
X153779285Y-106421071D01*
X153422142Y-105921071D02*
X153422142Y-107206785D01*
X153493571Y-107349642D01*
X153636428Y-107421071D01*
X153779285Y-107421071D01*
X124600714Y-109836071D02*
X124600714Y-108336071D01*
X124957857Y-108336071D01*
X125172142Y-108407500D01*
X125314999Y-108550357D01*
X125386428Y-108693214D01*
X125457857Y-108978928D01*
X125457857Y-109193214D01*
X125386428Y-109478928D01*
X125314999Y-109621785D01*
X125172142Y-109764642D01*
X124957857Y-109836071D01*
X124600714Y-109836071D01*
X126100714Y-109836071D02*
X126100714Y-108836071D01*
X126100714Y-108336071D02*
X126029285Y-108407500D01*
X126100714Y-108478928D01*
X126172142Y-108407500D01*
X126100714Y-108336071D01*
X126100714Y-108478928D01*
X127457857Y-108836071D02*
X127457857Y-110050357D01*
X127386428Y-110193214D01*
X127314999Y-110264642D01*
X127172142Y-110336071D01*
X126957857Y-110336071D01*
X126814999Y-110264642D01*
X127457857Y-109764642D02*
X127314999Y-109836071D01*
X127029285Y-109836071D01*
X126886428Y-109764642D01*
X126814999Y-109693214D01*
X126743571Y-109550357D01*
X126743571Y-109121785D01*
X126814999Y-108978928D01*
X126886428Y-108907500D01*
X127029285Y-108836071D01*
X127314999Y-108836071D01*
X127457857Y-108907500D01*
X128172142Y-109836071D02*
X128172142Y-108836071D01*
X128172142Y-108336071D02*
X128100714Y-108407500D01*
X128172142Y-108478928D01*
X128243571Y-108407500D01*
X128172142Y-108336071D01*
X128172142Y-108478928D01*
X128672142Y-108836071D02*
X129243571Y-108836071D01*
X128886428Y-108336071D02*
X128886428Y-109621785D01*
X128957857Y-109764642D01*
X129100714Y-109836071D01*
X129243571Y-109836071D01*
X130386428Y-109836071D02*
X130386428Y-109050357D01*
X130314999Y-108907500D01*
X130172142Y-108836071D01*
X129886428Y-108836071D01*
X129743571Y-108907500D01*
X130386428Y-109764642D02*
X130243571Y-109836071D01*
X129886428Y-109836071D01*
X129743571Y-109764642D01*
X129672142Y-109621785D01*
X129672142Y-109478928D01*
X129743571Y-109336071D01*
X129886428Y-109264642D01*
X130243571Y-109264642D01*
X130386428Y-109193214D01*
X131314999Y-109836071D02*
X131172142Y-109764642D01*
X131100714Y-109621785D01*
X131100714Y-108336071D01*
X133457857Y-108336071D02*
X133457857Y-109407500D01*
X133386428Y-109621785D01*
X133243571Y-109764642D01*
X133029285Y-109836071D01*
X132886428Y-109836071D01*
X134386428Y-109836071D02*
X134243571Y-109764642D01*
X134172142Y-109693214D01*
X134100714Y-109550357D01*
X134100714Y-109121785D01*
X134172142Y-108978928D01*
X134243571Y-108907500D01*
X134386428Y-108836071D01*
X134600714Y-108836071D01*
X134743571Y-108907500D01*
X134815000Y-108978928D01*
X134886428Y-109121785D01*
X134886428Y-109550357D01*
X134815000Y-109693214D01*
X134743571Y-109764642D01*
X134600714Y-109836071D01*
X134386428Y-109836071D01*
X135386428Y-108836071D02*
X135743571Y-109836071D01*
X136100714Y-108836071D02*
X135743571Y-109836071D01*
X135600714Y-110193214D01*
X135529285Y-110264642D01*
X135386428Y-110336071D01*
X136600714Y-109764642D02*
X136743571Y-109836071D01*
X137029285Y-109836071D01*
X137172142Y-109764642D01*
X137243571Y-109621785D01*
X137243571Y-109550357D01*
X137172142Y-109407500D01*
X137029285Y-109336071D01*
X136815000Y-109336071D01*
X136672142Y-109264642D01*
X136600714Y-109121785D01*
X136600714Y-109050357D01*
X136672142Y-108907500D01*
X136815000Y-108836071D01*
X137029285Y-108836071D01*
X137172142Y-108907500D01*
X137672142Y-108836071D02*
X138243571Y-108836071D01*
X137886428Y-108336071D02*
X137886428Y-109621785D01*
X137957857Y-109764642D01*
X138100714Y-109836071D01*
X138243571Y-109836071D01*
X138743571Y-109836071D02*
X138743571Y-108836071D01*
X138743571Y-108336071D02*
X138672142Y-108407500D01*
X138743571Y-108478928D01*
X138815000Y-108407500D01*
X138743571Y-108336071D01*
X138743571Y-108478928D01*
X140100714Y-109764642D02*
X139957857Y-109836071D01*
X139672142Y-109836071D01*
X139529285Y-109764642D01*
X139457857Y-109693214D01*
X139386428Y-109550357D01*
X139386428Y-109121785D01*
X139457857Y-108978928D01*
X139529285Y-108907500D01*
X139672142Y-108836071D01*
X139957857Y-108836071D01*
X140100714Y-108907500D01*
X140743571Y-109836071D02*
X140743571Y-108336071D01*
X140886428Y-109264642D02*
X141315000Y-109836071D01*
X141315000Y-108836071D02*
X140743571Y-109407500D01*
X143957857Y-109693214D02*
X143886428Y-109764642D01*
X143672142Y-109836071D01*
X143529285Y-109836071D01*
X143315000Y-109764642D01*
X143172142Y-109621785D01*
X143100714Y-109478928D01*
X143029285Y-109193214D01*
X143029285Y-108978928D01*
X143100714Y-108693214D01*
X143172142Y-108550357D01*
X143315000Y-108407500D01*
X143529285Y-108336071D01*
X143672142Y-108336071D01*
X143886428Y-108407500D01*
X143957857Y-108478928D01*
X144815000Y-109836071D02*
X144672142Y-109764642D01*
X144600714Y-109693214D01*
X144529285Y-109550357D01*
X144529285Y-109121785D01*
X144600714Y-108978928D01*
X144672142Y-108907500D01*
X144815000Y-108836071D01*
X145029285Y-108836071D01*
X145172142Y-108907500D01*
X145243571Y-108978928D01*
X145315000Y-109121785D01*
X145315000Y-109550357D01*
X145243571Y-109693214D01*
X145172142Y-109764642D01*
X145029285Y-109836071D01*
X144815000Y-109836071D01*
X145957857Y-108836071D02*
X145957857Y-109836071D01*
X145957857Y-108978928D02*
X146029285Y-108907500D01*
X146172142Y-108836071D01*
X146386428Y-108836071D01*
X146529285Y-108907500D01*
X146600714Y-109050357D01*
X146600714Y-109836071D01*
X147100714Y-108836071D02*
X147672142Y-108836071D01*
X147315000Y-108336071D02*
X147315000Y-109621785D01*
X147386428Y-109764642D01*
X147529285Y-109836071D01*
X147672142Y-109836071D01*
X148172142Y-109836071D02*
X148172142Y-108836071D01*
X148172142Y-109121785D02*
X148243571Y-108978928D01*
X148315000Y-108907500D01*
X148457857Y-108836071D01*
X148600714Y-108836071D01*
X149315000Y-109836071D02*
X149172142Y-109764642D01*
X149100714Y-109693214D01*
X149029285Y-109550357D01*
X149029285Y-109121785D01*
X149100714Y-108978928D01*
X149172142Y-108907500D01*
X149315000Y-108836071D01*
X149529285Y-108836071D01*
X149672142Y-108907500D01*
X149743571Y-108978928D01*
X149815000Y-109121785D01*
X149815000Y-109550357D01*
X149743571Y-109693214D01*
X149672142Y-109764642D01*
X149529285Y-109836071D01*
X149315000Y-109836071D01*
X150672142Y-109836071D02*
X150529285Y-109764642D01*
X150457857Y-109621785D01*
X150457857Y-108336071D01*
X151457857Y-109836071D02*
X151315000Y-109764642D01*
X151243571Y-109621785D01*
X151243571Y-108336071D01*
X152600714Y-109764642D02*
X152457857Y-109836071D01*
X152172142Y-109836071D01*
X152029285Y-109764642D01*
X151957857Y-109621785D01*
X151957857Y-109050357D01*
X152029285Y-108907500D01*
X152172142Y-108836071D01*
X152457857Y-108836071D01*
X152600714Y-108907500D01*
X152672142Y-109050357D01*
X152672142Y-109193214D01*
X151957857Y-109336071D01*
X153315000Y-109836071D02*
X153315000Y-108836071D01*
X153315000Y-109121785D02*
X153386428Y-108978928D01*
X153457857Y-108907500D01*
X153600714Y-108836071D01*
X153743571Y-108836071D01*
X110827428Y-52645857D02*
X110827428Y-51788714D01*
X110827428Y-52217285D02*
X112327428Y-52217285D01*
X112113142Y-52074428D01*
X111970285Y-51931571D01*
X111898857Y-51788714D01*
X119193857Y-75450000D02*
X119051000Y-75378571D01*
X118836714Y-75378571D01*
X118622428Y-75450000D01*
X118479571Y-75592857D01*
X118408142Y-75735714D01*
X118336714Y-76021428D01*
X118336714Y-76235714D01*
X118408142Y-76521428D01*
X118479571Y-76664285D01*
X118622428Y-76807142D01*
X118836714Y-76878571D01*
X118979571Y-76878571D01*
X119193857Y-76807142D01*
X119265285Y-76735714D01*
X119265285Y-76235714D01*
X118979571Y-76235714D01*
X119908142Y-76878571D02*
X119908142Y-75378571D01*
X120765285Y-76878571D01*
X120765285Y-75378571D01*
X121479571Y-76878571D02*
X121479571Y-75378571D01*
X121836714Y-75378571D01*
X122051000Y-75450000D01*
X122193857Y-75592857D01*
X122265285Y-75735714D01*
X122336714Y-76021428D01*
X122336714Y-76235714D01*
X122265285Y-76521428D01*
X122193857Y-76664285D01*
X122051000Y-76807142D01*
X121836714Y-76878571D01*
X121479571Y-76878571D01*
X119193857Y-77482000D02*
X119051000Y-77410571D01*
X118836714Y-77410571D01*
X118622428Y-77482000D01*
X118479571Y-77624857D01*
X118408142Y-77767714D01*
X118336714Y-78053428D01*
X118336714Y-78267714D01*
X118408142Y-78553428D01*
X118479571Y-78696285D01*
X118622428Y-78839142D01*
X118836714Y-78910571D01*
X118979571Y-78910571D01*
X119193857Y-78839142D01*
X119265285Y-78767714D01*
X119265285Y-78267714D01*
X118979571Y-78267714D01*
X119908142Y-78910571D02*
X119908142Y-77410571D01*
X120765285Y-78910571D01*
X120765285Y-77410571D01*
X121479571Y-78910571D02*
X121479571Y-77410571D01*
X121836714Y-77410571D01*
X122051000Y-77482000D01*
X122193857Y-77624857D01*
X122265285Y-77767714D01*
X122336714Y-78053428D01*
X122336714Y-78267714D01*
X122265285Y-78553428D01*
X122193857Y-78696285D01*
X122051000Y-78839142D01*
X121836714Y-78910571D01*
X121479571Y-78910571D01*
X165548571Y-52676714D02*
X165548571Y-51748142D01*
X166120000Y-52248142D01*
X166120000Y-52033857D01*
X166191428Y-51891000D01*
X166262857Y-51819571D01*
X166405714Y-51748142D01*
X166762857Y-51748142D01*
X166905714Y-51819571D01*
X166977142Y-51891000D01*
X167048571Y-52033857D01*
X167048571Y-52462428D01*
X166977142Y-52605285D01*
X166905714Y-52676714D01*
X165691428Y-51176714D02*
X165620000Y-51105285D01*
X165548571Y-50962428D01*
X165548571Y-50605285D01*
X165620000Y-50462428D01*
X165691428Y-50391000D01*
X165834285Y-50319571D01*
X165977142Y-50319571D01*
X166191428Y-50391000D01*
X167048571Y-51248142D01*
X167048571Y-50319571D01*
X167048571Y-105596142D02*
X167048571Y-106453285D01*
X167048571Y-106024714D02*
X165548571Y-106024714D01*
X165762857Y-106167571D01*
X165905714Y-106310428D01*
X165977142Y-106453285D01*
X165548571Y-105096142D02*
X165548571Y-104096142D01*
X167048571Y-104739000D01*
D11*
%TO.C,U3*%
X125984095Y-103592380D02*
X125984095Y-104401904D01*
X126031714Y-104497142D01*
X126079333Y-104544761D01*
X126174571Y-104592380D01*
X126365047Y-104592380D01*
X126460285Y-104544761D01*
X126507904Y-104497142D01*
X126555523Y-104401904D01*
X126555523Y-103592380D01*
X126936476Y-103592380D02*
X127555523Y-103592380D01*
X127222190Y-103973333D01*
X127365047Y-103973333D01*
X127460285Y-104020952D01*
X127507904Y-104068571D01*
X127555523Y-104163809D01*
X127555523Y-104401904D01*
X127507904Y-104497142D01*
X127460285Y-104544761D01*
X127365047Y-104592380D01*
X127079333Y-104592380D01*
X126984095Y-104544761D01*
X126936476Y-104497142D01*
%TO.C,RN2*%
X156789523Y-81732380D02*
X156456190Y-81256190D01*
X156218095Y-81732380D02*
X156218095Y-80732380D01*
X156599047Y-80732380D01*
X156694285Y-80780000D01*
X156741904Y-80827619D01*
X156789523Y-80922857D01*
X156789523Y-81065714D01*
X156741904Y-81160952D01*
X156694285Y-81208571D01*
X156599047Y-81256190D01*
X156218095Y-81256190D01*
X157218095Y-81732380D02*
X157218095Y-80732380D01*
X157789523Y-81732380D01*
X157789523Y-80732380D01*
X158218095Y-80827619D02*
X158265714Y-80780000D01*
X158360952Y-80732380D01*
X158599047Y-80732380D01*
X158694285Y-80780000D01*
X158741904Y-80827619D01*
X158789523Y-80922857D01*
X158789523Y-81018095D01*
X158741904Y-81160952D01*
X158170476Y-81732380D01*
X158789523Y-81732380D01*
%TO.C,J4*%
X160666666Y-51952380D02*
X160666666Y-52666666D01*
X160619047Y-52809523D01*
X160523809Y-52904761D01*
X160380952Y-52952380D01*
X160285714Y-52952380D01*
X161571428Y-52285714D02*
X161571428Y-52952380D01*
X161333333Y-51904761D02*
X161095238Y-52619047D01*
X161714285Y-52619047D01*
%TO.C,J1*%
X116666666Y-51952380D02*
X116666666Y-52666666D01*
X116619047Y-52809523D01*
X116523809Y-52904761D01*
X116380952Y-52952380D01*
X116285714Y-52952380D01*
X117666666Y-52952380D02*
X117095238Y-52952380D01*
X117380952Y-52952380D02*
X117380952Y-51952380D01*
X117285714Y-52095238D01*
X117190476Y-52190476D01*
X117095238Y-52238095D01*
%TO.C,RN1*%
X119959523Y-50602380D02*
X119626190Y-50126190D01*
X119388095Y-50602380D02*
X119388095Y-49602380D01*
X119769047Y-49602380D01*
X119864285Y-49650000D01*
X119911904Y-49697619D01*
X119959523Y-49792857D01*
X119959523Y-49935714D01*
X119911904Y-50030952D01*
X119864285Y-50078571D01*
X119769047Y-50126190D01*
X119388095Y-50126190D01*
X120388095Y-50602380D02*
X120388095Y-49602380D01*
X120959523Y-50602380D01*
X120959523Y-49602380D01*
X121959523Y-50602380D02*
X121388095Y-50602380D01*
X121673809Y-50602380D02*
X121673809Y-49602380D01*
X121578571Y-49745238D01*
X121483333Y-49840476D01*
X121388095Y-49888095D01*
%TO.C,J2*%
X160666666Y-80452380D02*
X160666666Y-81166666D01*
X160619047Y-81309523D01*
X160523809Y-81404761D01*
X160380952Y-81452380D01*
X160285714Y-81452380D01*
X161095238Y-80547619D02*
X161142857Y-80500000D01*
X161238095Y-80452380D01*
X161476190Y-80452380D01*
X161571428Y-80500000D01*
X161619047Y-80547619D01*
X161666666Y-80642857D01*
X161666666Y-80738095D01*
X161619047Y-80880952D01*
X161047619Y-81452380D01*
X161666666Y-81452380D01*
%TO.C,RN3*%
X119959523Y-104592380D02*
X119626190Y-104116190D01*
X119388095Y-104592380D02*
X119388095Y-103592380D01*
X119769047Y-103592380D01*
X119864285Y-103640000D01*
X119911904Y-103687619D01*
X119959523Y-103782857D01*
X119959523Y-103925714D01*
X119911904Y-104020952D01*
X119864285Y-104068571D01*
X119769047Y-104116190D01*
X119388095Y-104116190D01*
X120388095Y-104592380D02*
X120388095Y-103592380D01*
X120959523Y-104592380D01*
X120959523Y-103592380D01*
X121340476Y-103592380D02*
X121959523Y-103592380D01*
X121626190Y-103973333D01*
X121769047Y-103973333D01*
X121864285Y-104020952D01*
X121911904Y-104068571D01*
X121959523Y-104163809D01*
X121959523Y-104401904D01*
X121911904Y-104497142D01*
X121864285Y-104544761D01*
X121769047Y-104592380D01*
X121483333Y-104592380D01*
X121388095Y-104544761D01*
X121340476Y-104497142D01*
%TO.C,RN4*%
X156789523Y-53157380D02*
X156456190Y-52681190D01*
X156218095Y-53157380D02*
X156218095Y-52157380D01*
X156599047Y-52157380D01*
X156694285Y-52205000D01*
X156741904Y-52252619D01*
X156789523Y-52347857D01*
X156789523Y-52490714D01*
X156741904Y-52585952D01*
X156694285Y-52633571D01*
X156599047Y-52681190D01*
X156218095Y-52681190D01*
X157218095Y-53157380D02*
X157218095Y-52157380D01*
X157789523Y-53157380D01*
X157789523Y-52157380D01*
X158694285Y-52490714D02*
X158694285Y-53157380D01*
X158456190Y-52109761D02*
X158218095Y-52824047D01*
X158837142Y-52824047D01*
%TO.C,J3*%
X116666666Y-80452380D02*
X116666666Y-81166666D01*
X116619047Y-81309523D01*
X116523809Y-81404761D01*
X116380952Y-81452380D01*
X116285714Y-81452380D01*
X117047619Y-80452380D02*
X117666666Y-80452380D01*
X117333333Y-80833333D01*
X117476190Y-80833333D01*
X117571428Y-80880952D01*
X117619047Y-80928571D01*
X117666666Y-81023809D01*
X117666666Y-81261904D01*
X117619047Y-81357142D01*
X117571428Y-81404761D01*
X117476190Y-81452380D01*
X117190476Y-81452380D01*
X117095238Y-81404761D01*
X117047619Y-81357142D01*
%TO.C,U4*%
X136906095Y-103592380D02*
X136906095Y-104401904D01*
X136953714Y-104497142D01*
X137001333Y-104544761D01*
X137096571Y-104592380D01*
X137287047Y-104592380D01*
X137382285Y-104544761D01*
X137429904Y-104497142D01*
X137477523Y-104401904D01*
X137477523Y-103592380D01*
X138382285Y-103925714D02*
X138382285Y-104592380D01*
X138144190Y-103544761D02*
X137906095Y-104259047D01*
X138525142Y-104259047D01*
%TO.C,U2*%
X147574095Y-103592380D02*
X147574095Y-104401904D01*
X147621714Y-104497142D01*
X147669333Y-104544761D01*
X147764571Y-104592380D01*
X147955047Y-104592380D01*
X148050285Y-104544761D01*
X148097904Y-104497142D01*
X148145523Y-104401904D01*
X148145523Y-103592380D01*
X148574095Y-103687619D02*
X148621714Y-103640000D01*
X148716952Y-103592380D01*
X148955047Y-103592380D01*
X149050285Y-103640000D01*
X149097904Y-103687619D01*
X149145523Y-103782857D01*
X149145523Y-103878095D01*
X149097904Y-104020952D01*
X148526476Y-104592380D01*
X149145523Y-104592380D01*
%TO.C,U1*%
X125984095Y-49842380D02*
X125984095Y-50651904D01*
X126031714Y-50747142D01*
X126079333Y-50794761D01*
X126174571Y-50842380D01*
X126365047Y-50842380D01*
X126460285Y-50794761D01*
X126507904Y-50747142D01*
X126555523Y-50651904D01*
X126555523Y-49842380D01*
X127555523Y-50842380D02*
X126984095Y-50842380D01*
X127269809Y-50842380D02*
X127269809Y-49842380D01*
X127174571Y-49985238D01*
X127079333Y-50080476D01*
X126984095Y-50128095D01*
%TO.C,U5*%
X133858095Y-43902380D02*
X133858095Y-44711904D01*
X133905714Y-44807142D01*
X133953333Y-44854761D01*
X134048571Y-44902380D01*
X134239047Y-44902380D01*
X134334285Y-44854761D01*
X134381904Y-44807142D01*
X134429523Y-44711904D01*
X134429523Y-43902380D01*
X135381904Y-43902380D02*
X134905714Y-43902380D01*
X134858095Y-44378571D01*
X134905714Y-44330952D01*
X135000952Y-44283333D01*
X135239047Y-44283333D01*
X135334285Y-44330952D01*
X135381904Y-44378571D01*
X135429523Y-44473809D01*
X135429523Y-44711904D01*
X135381904Y-44807142D01*
X135334285Y-44854761D01*
X135239047Y-44902380D01*
X135000952Y-44902380D01*
X134905714Y-44854761D01*
X134858095Y-44807142D01*
D12*
%TO.C,U3*%
X125630000Y-102945000D02*
X130930000Y-102945000D01*
X127280000Y-82505000D02*
X125630000Y-82505000D01*
X130930000Y-102945000D02*
X130930000Y-82505000D01*
X130930000Y-82505000D02*
X129280000Y-82505000D01*
X125630000Y-82505000D02*
X125630000Y-102945000D01*
X127280000Y-82505000D02*
G75*
G03*
X129280000Y-82505000I1000000J0D01*
G01*
%TO.C,RN2*%
X158880000Y-105595000D02*
X158880000Y-82395000D01*
X158880000Y-82395000D02*
X156080000Y-82395000D01*
X156080000Y-82395000D02*
X156080000Y-105595000D01*
X156080000Y-105595000D02*
X158880000Y-105595000D01*
X156080000Y-102885000D02*
X158880000Y-102885000D01*
%TO.C,G\u002A\u002A\u002A*%
G36*
X139271036Y-79161586D02*
G01*
X137596418Y-79157622D01*
X137239204Y-79156127D01*
X136902443Y-79153472D01*
X136594798Y-79149817D01*
X136324928Y-79145319D01*
X136101495Y-79140138D01*
X135933159Y-79134432D01*
X135828583Y-79128360D01*
X135800570Y-79124736D01*
X135625643Y-79045336D01*
X135451576Y-78893240D01*
X135282663Y-78673113D01*
X135123197Y-78389623D01*
X135122011Y-78387195D01*
X135049109Y-78243169D01*
X134985927Y-78128204D01*
X134941581Y-78058423D01*
X134928599Y-78045173D01*
X134899117Y-78000694D01*
X134895732Y-77973440D01*
X134878542Y-77913765D01*
X134835282Y-77812287D01*
X134778414Y-77694378D01*
X134720400Y-77585407D01*
X134673703Y-77510744D01*
X134661519Y-77496647D01*
X134633063Y-77451601D01*
X134581899Y-77354419D01*
X134516588Y-77223101D01*
X134445691Y-77075648D01*
X134377770Y-76930061D01*
X134321386Y-76804341D01*
X134285099Y-76716487D01*
X134276219Y-76686520D01*
X134313656Y-76664164D01*
X134421530Y-76649981D01*
X134593183Y-76644824D01*
X134600495Y-76644817D01*
X134809841Y-76645776D01*
X134959589Y-76655551D01*
X135067564Y-76684489D01*
X135151593Y-76742940D01*
X135229501Y-76841252D01*
X135319115Y-76989772D01*
X135380388Y-77097557D01*
X135473968Y-77265225D01*
X135555240Y-77416157D01*
X135615219Y-77533319D01*
X135644309Y-77597875D01*
X135678859Y-77667651D01*
X135705939Y-77690244D01*
X135734098Y-77723624D01*
X135769481Y-77807296D01*
X135781706Y-77845122D01*
X135817881Y-77940963D01*
X135852869Y-77995343D01*
X135862664Y-78000000D01*
X135899812Y-78032160D01*
X135924400Y-78085634D01*
X135966504Y-78160052D01*
X136045662Y-78259770D01*
X136109448Y-78327631D01*
X136267317Y-78483994D01*
X138419207Y-78507840D01*
X138419207Y-77652553D01*
X138419891Y-77368369D01*
X138422349Y-77152404D01*
X138427191Y-76995443D01*
X138435027Y-76888275D01*
X138446465Y-76821687D01*
X138462117Y-76786467D01*
X138477286Y-76774978D01*
X138528746Y-76726227D01*
X138535366Y-76698754D01*
X138551985Y-76672634D01*
X138609793Y-76656104D01*
X138720710Y-76647415D01*
X138896659Y-76644819D01*
X138903201Y-76644817D01*
X139271036Y-76644817D01*
X139271036Y-79161586D01*
G37*
G36*
X144208042Y-78273184D02*
G01*
X144211084Y-78101269D01*
X144217137Y-77962421D01*
X144226318Y-77872126D01*
X144236814Y-77845112D01*
X144257969Y-77811663D01*
X144266070Y-77738644D01*
X144283885Y-77583547D01*
X144329359Y-77421376D01*
X144391383Y-77288401D01*
X144413558Y-77257146D01*
X144551182Y-77108090D01*
X144677753Y-77006791D01*
X144759527Y-76968526D01*
X144827257Y-76940032D01*
X144846646Y-76916354D01*
X144881273Y-76880873D01*
X144972138Y-76837700D01*
X145099721Y-76795177D01*
X145175762Y-76775707D01*
X145267068Y-76743854D01*
X145319507Y-76706615D01*
X145363883Y-76695430D01*
X145474848Y-76684957D01*
X145641552Y-76675370D01*
X145853148Y-76666839D01*
X146098786Y-76659537D01*
X146367619Y-76653635D01*
X146648797Y-76649305D01*
X146931472Y-76646719D01*
X147204796Y-76646049D01*
X147457919Y-76647467D01*
X147679994Y-76651144D01*
X147860171Y-76657254D01*
X147973247Y-76664574D01*
X148253963Y-76690144D01*
X148253963Y-77401699D01*
X148253022Y-77662903D01*
X148249384Y-77860785D01*
X148241827Y-78009447D01*
X148229130Y-78122992D01*
X148210070Y-78215522D01*
X148183426Y-78301140D01*
X148173742Y-78327664D01*
X148125350Y-78442082D01*
X148081769Y-78519871D01*
X148057584Y-78542073D01*
X148024552Y-78572917D01*
X148021646Y-78592871D01*
X147992165Y-78646475D01*
X147921590Y-78715410D01*
X147836724Y-78777771D01*
X147764372Y-78811650D01*
X147752178Y-78813110D01*
X147713254Y-78835074D01*
X147711890Y-78842696D01*
X147679388Y-78874870D01*
X147599359Y-78918995D01*
X147498022Y-78963389D01*
X147401596Y-78996370D01*
X147343789Y-79006708D01*
X147292393Y-79024846D01*
X147285976Y-79040082D01*
X147258901Y-79071977D01*
X147175520Y-79098601D01*
X147032595Y-79120182D01*
X146826888Y-79136948D01*
X146555163Y-79149126D01*
X146214182Y-79156944D01*
X145800709Y-79160629D01*
X145566179Y-79160993D01*
X145257896Y-79160019D01*
X144973960Y-79157528D01*
X144723751Y-79153726D01*
X144516647Y-79148820D01*
X144362028Y-79143017D01*
X144269273Y-79136522D01*
X144246494Y-79131953D01*
X144233917Y-79086810D01*
X144223652Y-78981827D01*
X144215816Y-78832488D01*
X144210524Y-78654278D01*
X144208558Y-78511060D01*
X145186738Y-78511060D01*
X146044192Y-78497527D01*
X146323796Y-78491418D01*
X146560157Y-78482837D01*
X146745015Y-78472273D01*
X146870107Y-78460213D01*
X146927172Y-78447144D01*
X146929253Y-78445275D01*
X146980794Y-78401838D01*
X147067744Y-78349742D01*
X147072458Y-78347305D01*
X147160652Y-78289054D01*
X147221419Y-78210980D01*
X147259378Y-78099034D01*
X147279151Y-77939168D01*
X147285360Y-77717335D01*
X147285405Y-77699924D01*
X147285976Y-77303049D01*
X146475151Y-77303049D01*
X146232420Y-77304589D01*
X146016713Y-77308893D01*
X145839748Y-77315485D01*
X145713245Y-77323891D01*
X145648920Y-77333635D01*
X145643487Y-77336767D01*
X145593690Y-77369178D01*
X145515364Y-77394383D01*
X145406707Y-77437761D01*
X145311280Y-77500539D01*
X145270089Y-77539974D01*
X145241967Y-77585641D01*
X145223803Y-77652908D01*
X145212484Y-77757138D01*
X145204898Y-77913696D01*
X145200610Y-78046929D01*
X145186738Y-78511060D01*
X144208558Y-78511060D01*
X144207894Y-78462682D01*
X144208042Y-78273184D01*
G37*
G36*
X136906106Y-76705966D02*
G01*
X136909146Y-76719971D01*
X136946798Y-76740486D01*
X137055972Y-76754226D01*
X137231001Y-76760593D01*
X137297196Y-76760976D01*
X137685245Y-76760976D01*
X137664177Y-78212958D01*
X137275024Y-78223907D01*
X137108405Y-78225983D01*
X136971655Y-78222792D01*
X136882653Y-78215027D01*
X136858790Y-78207774D01*
X136847783Y-78159481D01*
X136839665Y-78049407D01*
X136834320Y-77892293D01*
X136831636Y-77702883D01*
X136831498Y-77495917D01*
X136833792Y-77286137D01*
X136838405Y-77088286D01*
X136845221Y-76917105D01*
X136854128Y-76787335D01*
X136865011Y-76713719D01*
X136870427Y-76702897D01*
X136906106Y-76705966D01*
G37*
G36*
X148999314Y-76778904D02*
G01*
X149393565Y-76812607D01*
X149712367Y-76842006D01*
X149955314Y-76867057D01*
X150121994Y-76887716D01*
X150212000Y-76903939D01*
X150228658Y-76910937D01*
X150272341Y-76933974D01*
X150370233Y-76972778D01*
X150502736Y-77019679D01*
X150528735Y-77028384D01*
X150662179Y-77075686D01*
X150761241Y-77116539D01*
X150807966Y-77143392D01*
X150809451Y-77146444D01*
X150842062Y-77174258D01*
X150922894Y-77211957D01*
X150947497Y-77221252D01*
X151043154Y-77267439D01*
X151101965Y-77317297D01*
X151106518Y-77325829D01*
X151153229Y-77375062D01*
X151176562Y-77380488D01*
X151231005Y-77405134D01*
X151316957Y-77468239D01*
X151375697Y-77519405D01*
X151473470Y-77608014D01*
X151555844Y-77679424D01*
X151585463Y-77703323D01*
X151642968Y-77758529D01*
X151724612Y-77850400D01*
X151775861Y-77912881D01*
X151854007Y-78004374D01*
X151915549Y-78064121D01*
X151938797Y-78077439D01*
X151950529Y-78041063D01*
X151960352Y-77941294D01*
X151967408Y-77792170D01*
X151970841Y-77607730D01*
X151971036Y-77549660D01*
X151971036Y-77021880D01*
X152116235Y-77045880D01*
X152236677Y-77059184D01*
X152393433Y-77068084D01*
X152503430Y-77070306D01*
X152745427Y-77070732D01*
X152745427Y-79161586D01*
X151959400Y-79161586D01*
X151800661Y-78988156D01*
X151708099Y-78886741D01*
X151632597Y-78803507D01*
X151598537Y-78765519D01*
X151494180Y-78657299D01*
X151361309Y-78534009D01*
X151213662Y-78406699D01*
X151064975Y-78286418D01*
X150928987Y-78184216D01*
X150819433Y-78111141D01*
X150750052Y-78078242D01*
X150743069Y-78077439D01*
X150691444Y-78051367D01*
X150634096Y-77998765D01*
X150551812Y-77939820D01*
X150433600Y-77888973D01*
X150395778Y-77878010D01*
X150295256Y-77847044D01*
X150235683Y-77817769D01*
X150228658Y-77808004D01*
X150193715Y-77780044D01*
X150101169Y-77743574D01*
X149969441Y-77704803D01*
X149822104Y-77670960D01*
X149714557Y-77647400D01*
X149638186Y-77627717D01*
X149615165Y-77625715D01*
X149598023Y-77641703D01*
X149585902Y-77685275D01*
X149577942Y-77766029D01*
X149573284Y-77893559D01*
X149571069Y-78077463D01*
X149570438Y-78327336D01*
X149570427Y-78384586D01*
X149570427Y-79161586D01*
X148757317Y-79161586D01*
X148757317Y-76758819D01*
X148999314Y-76778904D01*
G37*
G36*
X129756914Y-77609794D02*
G01*
X129775092Y-77530962D01*
X129797625Y-77477287D01*
X129841637Y-77387472D01*
X129862409Y-77325372D01*
X129862625Y-77322409D01*
X129889019Y-77271641D01*
X129952122Y-77199775D01*
X129959663Y-77192506D01*
X130024573Y-77124283D01*
X130055393Y-77078797D01*
X130055793Y-77076120D01*
X130087493Y-77045466D01*
X130165410Y-77002806D01*
X130181631Y-76995445D01*
X130281942Y-76943611D01*
X130354603Y-76893095D01*
X130357611Y-76890218D01*
X130425109Y-76849363D01*
X130532764Y-76807796D01*
X130570569Y-76796711D01*
X130677084Y-76760138D01*
X130749191Y-76720824D01*
X130760979Y-76708569D01*
X130795229Y-76695850D01*
X130883586Y-76684933D01*
X131029957Y-76675672D01*
X131238246Y-76667921D01*
X131512359Y-76661533D01*
X131856200Y-76656362D01*
X132261360Y-76652361D01*
X133734146Y-76640544D01*
X133734146Y-79161586D01*
X132959756Y-79161586D01*
X132959756Y-78542073D01*
X130675305Y-78542073D01*
X130675305Y-79161586D01*
X129698409Y-79161586D01*
X129715971Y-78377516D01*
X129723388Y-78096260D01*
X129732035Y-77881710D01*
X129737246Y-77805555D01*
X130677203Y-77805555D01*
X130700561Y-77836564D01*
X130756473Y-77858127D01*
X130852371Y-77871948D01*
X130995691Y-77879727D01*
X131193867Y-77883168D01*
X131454334Y-77883972D01*
X131784527Y-77883842D01*
X132921036Y-77883842D01*
X132921036Y-77300666D01*
X132011128Y-77304456D01*
X131731648Y-77307102D01*
X131493232Y-77312323D01*
X131304158Y-77319755D01*
X131172701Y-77329035D01*
X131107140Y-77339799D01*
X131101219Y-77344367D01*
X131069727Y-77376218D01*
X131041778Y-77380488D01*
X130936177Y-77412853D01*
X130827964Y-77495595D01*
X130743277Y-77607189D01*
X130728101Y-77638836D01*
X130698408Y-77708393D01*
X130678964Y-77763399D01*
X130677203Y-77805555D01*
X129737246Y-77805555D01*
X129742886Y-77723132D01*
X129756914Y-77609794D01*
G37*
G36*
X139029040Y-75841334D02*
G01*
X152803506Y-75851067D01*
X152803506Y-76431860D01*
X139054906Y-76441594D01*
X138027562Y-76442249D01*
X137020045Y-76442750D01*
X136035115Y-76443099D01*
X135075528Y-76443299D01*
X134144042Y-76443355D01*
X133243416Y-76443269D01*
X132376408Y-76443045D01*
X131545774Y-76442685D01*
X130754274Y-76442193D01*
X130004664Y-76441572D01*
X129299703Y-76440825D01*
X128642148Y-76439956D01*
X128034759Y-76438968D01*
X127480291Y-76437864D01*
X126981503Y-76436648D01*
X126541154Y-76435321D01*
X126162000Y-76433889D01*
X125846801Y-76432353D01*
X125598312Y-76430718D01*
X125419294Y-76428986D01*
X125312502Y-76427160D01*
X125280440Y-76425461D01*
X125267838Y-76376636D01*
X125258632Y-76271916D01*
X125254620Y-76132830D01*
X125254573Y-76115597D01*
X125254573Y-75831600D01*
X139029040Y-75841334D01*
G37*
G36*
X129242683Y-77326129D02*
G01*
X129237905Y-77667214D01*
X129222581Y-77940766D01*
X129195231Y-78156160D01*
X129154371Y-78322769D01*
X129098520Y-78449967D01*
X129054800Y-78514298D01*
X128826094Y-78743970D01*
X128565091Y-78906799D01*
X128438297Y-78966966D01*
X128334135Y-79015977D01*
X128243202Y-79055026D01*
X128156094Y-79085308D01*
X128063407Y-79108019D01*
X127955739Y-79124353D01*
X127823686Y-79135506D01*
X127657845Y-79142672D01*
X127448811Y-79147047D01*
X127187181Y-79149825D01*
X126863553Y-79152202D01*
X126619436Y-79154066D01*
X125177134Y-79165906D01*
X125177134Y-77612805D01*
X125579546Y-77612805D01*
X125766189Y-77614768D01*
X125889030Y-77621958D01*
X125961636Y-77636325D01*
X125997575Y-77659821D01*
X126005461Y-77674051D01*
X126015479Y-77737401D01*
X126023370Y-77858183D01*
X126028089Y-78016399D01*
X126028963Y-78123352D01*
X126028963Y-78511408D01*
X126964690Y-78497701D01*
X127277659Y-78492075D01*
X127519918Y-78485176D01*
X127698194Y-78476565D01*
X127819211Y-78465803D01*
X127889696Y-78452451D01*
X127916373Y-78436071D01*
X127916545Y-78435595D01*
X127960456Y-78389649D01*
X127977845Y-78385907D01*
X128056470Y-78352473D01*
X128143664Y-78271071D01*
X128216223Y-78164351D01*
X128226308Y-78143377D01*
X128249083Y-78052390D01*
X128265796Y-77906486D01*
X128274157Y-77728095D01*
X128274695Y-77669507D01*
X128274695Y-77303938D01*
X126735594Y-77293813D01*
X125196494Y-77283689D01*
X125174096Y-76695721D01*
X125727368Y-76670411D01*
X125896567Y-76664525D01*
X126130094Y-76659117D01*
X126414837Y-76654349D01*
X126737685Y-76650386D01*
X127085528Y-76647391D01*
X127445254Y-76645530D01*
X127761662Y-76644959D01*
X129242683Y-76644817D01*
X129242683Y-77326129D01*
G37*
G36*
X134293977Y-79632654D02*
G01*
X135230758Y-79632895D01*
X136195036Y-79633259D01*
X137184036Y-79633749D01*
X138194983Y-79634367D01*
X139096799Y-79635015D01*
X152842226Y-79645580D01*
X152842226Y-80226372D01*
X139058079Y-80233024D01*
X138029148Y-80233466D01*
X137019927Y-80233792D01*
X136033177Y-80234005D01*
X135071657Y-80234108D01*
X134138129Y-80234103D01*
X133235352Y-80233992D01*
X132366087Y-80233779D01*
X131533094Y-80233465D01*
X130739133Y-80233054D01*
X129986964Y-80232547D01*
X129279349Y-80231948D01*
X128619046Y-80231259D01*
X128008817Y-80230483D01*
X127451422Y-80229622D01*
X126949620Y-80228679D01*
X126506173Y-80227656D01*
X126123841Y-80226556D01*
X125805383Y-80225381D01*
X125553561Y-80224135D01*
X125371133Y-80222819D01*
X125260862Y-80221437D01*
X125225533Y-80220117D01*
X125195178Y-80166996D01*
X125179478Y-80038539D01*
X125177134Y-79933487D01*
X125179321Y-79791631D01*
X125189572Y-79708869D01*
X125213424Y-79666895D01*
X125256413Y-79647404D01*
X125264253Y-79645432D01*
X125309081Y-79643893D01*
X125428573Y-79642442D01*
X125619955Y-79641081D01*
X125880453Y-79639812D01*
X126207291Y-79638637D01*
X126597695Y-79637558D01*
X127048891Y-79636579D01*
X127558104Y-79635699D01*
X128122559Y-79634922D01*
X128739482Y-79634250D01*
X129406098Y-79633685D01*
X130119633Y-79633229D01*
X130877312Y-79632883D01*
X131676360Y-79632651D01*
X132514004Y-79632534D01*
X133387468Y-79632534D01*
X134293977Y-79632654D01*
G37*
G36*
X143723780Y-77303049D02*
G01*
X142407317Y-77303049D01*
X142014081Y-77304177D01*
X141687509Y-77307519D01*
X141429750Y-77313011D01*
X141242954Y-77320590D01*
X141129272Y-77330193D01*
X141090854Y-77341757D01*
X141090854Y-77341769D01*
X141059786Y-77376776D01*
X141036727Y-77380488D01*
X140973275Y-77398707D01*
X140872710Y-77445049D01*
X140814089Y-77476820D01*
X140645579Y-77573153D01*
X142184680Y-77573619D01*
X143723780Y-77574086D01*
X143723780Y-77877657D01*
X143719096Y-78050925D01*
X143700012Y-78181437D01*
X143658983Y-78303571D01*
X143604976Y-78418978D01*
X143508559Y-78580334D01*
X143401303Y-78709012D01*
X143296883Y-78790859D01*
X143224129Y-78813110D01*
X143183568Y-78838244D01*
X143181707Y-78848627D01*
X143148574Y-78881143D01*
X143063872Y-78925294D01*
X142997790Y-78952093D01*
X142883762Y-78996695D01*
X142798964Y-79034324D01*
X142775152Y-79047572D01*
X142712345Y-79078075D01*
X142613676Y-79103131D01*
X142473017Y-79123141D01*
X142284241Y-79138505D01*
X142041218Y-79149625D01*
X141737820Y-79156899D01*
X141367918Y-79160730D01*
X141030868Y-79161586D01*
X139735671Y-79161586D01*
X139735671Y-78508850D01*
X141053580Y-78496422D01*
X141426878Y-78491778D01*
X141746520Y-78485481D01*
X142007907Y-78477706D01*
X142206439Y-78468627D01*
X142337518Y-78458420D01*
X142396543Y-78447258D01*
X142399083Y-78445275D01*
X142447064Y-78407297D01*
X142541009Y-78350939D01*
X142618734Y-78309756D01*
X142810791Y-78212958D01*
X141268516Y-78202829D01*
X139726241Y-78192701D01*
X139743256Y-77854354D01*
X139765654Y-77616635D01*
X139804982Y-77440607D01*
X139829554Y-77380488D01*
X139896150Y-77278396D01*
X139990253Y-77167243D01*
X140094001Y-77064569D01*
X140189534Y-76987913D01*
X140258989Y-76954816D01*
X140263277Y-76954573D01*
X140311619Y-76934697D01*
X140316463Y-76920551D01*
X140351521Y-76881837D01*
X140444753Y-76836584D01*
X140578251Y-76792674D01*
X140645579Y-76775707D01*
X140736888Y-76743853D01*
X140789334Y-76706615D01*
X140830492Y-76693920D01*
X140937706Y-76682931D01*
X141113062Y-76673572D01*
X141358646Y-76665767D01*
X141676546Y-76659440D01*
X142068847Y-76654515D01*
X142270355Y-76652735D01*
X143723780Y-76641293D01*
X143723780Y-77303049D01*
G37*
%TO.C,J4*%
X167230000Y-74825000D02*
X167230000Y-74325000D01*
X160670000Y-74585000D02*
X160670000Y-53684000D01*
X160670000Y-53684000D02*
X166990000Y-53684000D01*
X161130000Y-74585000D02*
X161130000Y-53684000D01*
X166490000Y-74825000D02*
X167230000Y-74825000D01*
X166990000Y-74585000D02*
X166990000Y-53684000D01*
X166430000Y-74585000D02*
X166430000Y-53684000D01*
X160670000Y-74585000D02*
X166990000Y-74585000D01*
%TO.C,J1*%
X110900000Y-53445000D02*
X110900000Y-53945000D01*
X111640000Y-53445000D02*
X110900000Y-53445000D01*
X117460000Y-79665000D02*
X111140000Y-79665000D01*
X117460000Y-53685000D02*
X117460000Y-79665000D01*
X117000000Y-53685000D02*
X117000000Y-79665000D01*
X117460000Y-53685000D02*
X111140000Y-53685000D01*
X111700000Y-53685000D02*
X111700000Y-79665000D01*
X111140000Y-53685000D02*
X111140000Y-79665000D01*
%TO.C,RN1*%
X119250000Y-51250000D02*
X119250000Y-74450000D01*
X122050000Y-53960000D02*
X119250000Y-53960000D01*
X122050000Y-74450000D02*
X122050000Y-51250000D01*
X122050000Y-51250000D02*
X119250000Y-51250000D01*
X119250000Y-74450000D02*
X122050000Y-74450000D01*
%TO.C,J2*%
X161130000Y-103160000D02*
X161130000Y-82259000D01*
X167230000Y-103400000D02*
X167230000Y-102900000D01*
X166430000Y-103160000D02*
X166430000Y-82259000D01*
X166990000Y-103160000D02*
X166990000Y-82259000D01*
X160670000Y-103160000D02*
X166990000Y-103160000D01*
X160670000Y-82259000D02*
X166990000Y-82259000D01*
X160670000Y-103160000D02*
X160670000Y-82259000D01*
X166490000Y-103400000D02*
X167230000Y-103400000D01*
%TO.C,RN3*%
X122050000Y-79855000D02*
X119250000Y-79855000D01*
X119250000Y-103055000D02*
X122050000Y-103055000D01*
X119250000Y-79855000D02*
X119250000Y-103055000D01*
X122050000Y-103055000D02*
X122050000Y-79855000D01*
X122050000Y-82565000D02*
X119250000Y-82565000D01*
%TO.C,RN4*%
X158880000Y-77020000D02*
X158880000Y-53820000D01*
X156080000Y-53820000D02*
X156080000Y-77020000D01*
X158880000Y-53820000D02*
X156080000Y-53820000D01*
X156080000Y-77020000D02*
X158880000Y-77020000D01*
X156080000Y-74310000D02*
X158880000Y-74310000D01*
%TO.C,J3*%
X117460000Y-82260000D02*
X117460000Y-103161000D01*
X117000000Y-82260000D02*
X117000000Y-103161000D01*
X111140000Y-82260000D02*
X111140000Y-103161000D01*
X117460000Y-82260000D02*
X111140000Y-82260000D01*
X111640000Y-82020000D02*
X110900000Y-82020000D01*
X110900000Y-82020000D02*
X110900000Y-82520000D01*
X111700000Y-82260000D02*
X111700000Y-103161000D01*
X117460000Y-103161000D02*
X111140000Y-103161000D01*
%TO.C,U4*%
X138075000Y-82520000D02*
X136425000Y-82520000D01*
X136425000Y-82520000D02*
X136425000Y-102960000D01*
X136425000Y-102960000D02*
X141725000Y-102960000D01*
X141725000Y-82520000D02*
X140075000Y-82520000D01*
X141725000Y-102960000D02*
X141725000Y-82520000D01*
X138075000Y-82520000D02*
G75*
G03*
X140075000Y-82520000I1000000J0D01*
G01*
%TO.C,U2*%
X152520000Y-102945000D02*
X152520000Y-82505000D01*
X147220000Y-102945000D02*
X152520000Y-102945000D01*
X148870000Y-82505000D02*
X147220000Y-82505000D01*
X152520000Y-82505000D02*
X150870000Y-82505000D01*
X147220000Y-82505000D02*
X147220000Y-102945000D01*
X148870000Y-82505000D02*
G75*
G03*
X150870000Y-82505000I1000000J0D01*
G01*
%TO.C,U1*%
X130930000Y-71830000D02*
X130930000Y-51390000D01*
X125630000Y-51390000D02*
X125630000Y-71830000D01*
X127280000Y-51390000D02*
X125630000Y-51390000D01*
X125630000Y-71830000D02*
X130930000Y-71830000D01*
X130930000Y-51390000D02*
X129280000Y-51390000D01*
X127280000Y-51390000D02*
G75*
G03*
X129280000Y-51390000I1000000J0D01*
G01*
%TO.C,U5*%
X151240000Y-73720000D02*
X151240000Y-43120000D01*
X138320000Y-43120000D02*
X138320000Y-73720000D01*
X151240000Y-43120000D02*
X145780000Y-43120000D01*
X138320000Y-73720000D02*
X151240000Y-73720000D01*
X143780000Y-43120000D02*
X138320000Y-43120000D01*
X143780000Y-43120000D02*
G75*
G03*
X145780000Y-43120000I1000000J0D01*
G01*
%TD*%
M02*
