M48
; DRILL file {KiCad (6.0.1)} date Wed 26 Jan 2022 09:55:41 PM PST
; FORMAT={-:-/ absolute / metric / decimal}
; #@! TF.CreationDate,2022-01-26T21:55:41-08:00
; #@! TF.GenerationSoftware,Kicad,Pcbnew,(6.0.1)
; #@! TF.FileFunction,MixedPlating,1,2
FMAT,2
METRIC
; #@! TA.AperFunction,Plated,PTH,ViaDrill
T1C0.400
; #@! TA.AperFunction,Plated,PTH,ComponentDrill
T2C0.800
; #@! TA.AperFunction,Plated,PTH,ComponentDrill
T3C1.100
; #@! TA.AperFunction,NonPlated,NPTH,ComponentDrill
T4C1.201
%
G90
G05
T1
X118.435Y-64.702
X122.126Y-61.568
X122.425Y-89.972
X122.56Y-88.703
X123.026Y-58.834
X125.877Y-86.678
X126.433Y-87.869
X127.071Y-95.617
X127.336Y-57.488
X129.483Y-88.14
X129.837Y-70.155
X130.113Y-56.668
X136.209Y-95.207
X139.171Y-89.198
X139.863Y-87.899
X141.438Y-85.887
X143.986Y-92.718
X144.368Y-87.195
X145.969Y-76.749
X147.934Y-88.804
X148.448Y-84.823
X148.607Y-64.467
X150.29Y-64.908
X151.732Y-87.569
X152.118Y-89.324
X154.269Y-70.955
X155.502Y-83.942
X155.578Y-62.771
X155.685Y-88.016
X155.782Y-91.181
T2
X120.65Y-52.69
X120.65Y-55.23
X120.65Y-57.77
X120.65Y-60.31
X120.65Y-62.85
X120.65Y-65.39
X120.65Y-67.93
X120.65Y-70.47
X120.65Y-73.01
X120.65Y-81.295
X120.65Y-83.835
X120.65Y-86.375
X120.65Y-88.915
X120.65Y-91.455
X120.65Y-93.995
X120.65Y-96.535
X120.65Y-99.075
X120.65Y-101.615
X124.47Y-52.72
X124.47Y-55.26
X124.47Y-57.8
X124.47Y-60.34
X124.47Y-62.88
X124.47Y-65.42
X124.47Y-67.96
X124.47Y-70.5
X124.47Y-83.835
X124.47Y-86.375
X124.47Y-88.915
X124.47Y-91.455
X124.47Y-93.995
X124.47Y-96.535
X124.47Y-99.075
X124.47Y-101.615
X132.09Y-52.72
X132.09Y-55.26
X132.09Y-57.8
X132.09Y-60.34
X132.09Y-62.88
X132.09Y-65.42
X132.09Y-67.96
X132.09Y-70.5
X132.09Y-83.835
X132.09Y-86.375
X132.09Y-88.915
X132.09Y-91.455
X132.09Y-93.995
X132.09Y-96.535
X132.09Y-99.075
X132.09Y-101.615
X135.265Y-83.85
X135.265Y-86.39
X135.265Y-88.93
X135.265Y-91.47
X135.265Y-94.01
X135.265Y-96.55
X135.265Y-99.09
X135.265Y-101.63
X137.16Y-44.45
X137.16Y-46.99
X137.16Y-49.53
X137.16Y-52.07
X137.16Y-54.61
X137.16Y-57.15
X137.16Y-59.69
X137.16Y-62.23
X137.16Y-64.77
X137.16Y-67.31
X137.16Y-69.85
X137.16Y-72.39
X142.885Y-83.85
X142.885Y-86.39
X142.885Y-88.93
X142.885Y-91.47
X142.885Y-94.01
X142.885Y-96.55
X142.885Y-99.09
X142.885Y-101.63
X146.06Y-83.835
X146.06Y-86.375
X146.06Y-88.915
X146.06Y-91.455
X146.06Y-93.995
X146.06Y-96.535
X146.06Y-99.075
X146.06Y-101.615
X152.4Y-44.45
X152.4Y-46.99
X152.4Y-49.53
X152.4Y-52.07
X152.4Y-54.61
X152.4Y-57.15
X152.4Y-59.69
X152.4Y-62.23
X152.4Y-64.77
X152.4Y-67.31
X152.4Y-69.85
X152.4Y-72.39
X153.68Y-83.835
X153.68Y-86.375
X153.68Y-88.915
X153.68Y-91.455
X153.68Y-93.995
X153.68Y-96.535
X153.68Y-99.075
X153.68Y-101.615
X157.48Y-55.26
X157.48Y-57.8
X157.48Y-60.34
X157.48Y-62.88
X157.48Y-65.42
X157.48Y-67.96
X157.48Y-70.5
X157.48Y-73.04
X157.48Y-75.58
X157.48Y-83.835
X157.48Y-86.375
X157.48Y-88.915
X157.48Y-91.455
X157.48Y-93.995
X157.48Y-96.535
X157.48Y-99.075
X157.48Y-101.615
X157.48Y-104.155
T3
X114.3Y-55.245
X114.3Y-57.785
X114.3Y-60.325
X114.3Y-62.865
X114.3Y-65.405
X114.3Y-67.945
X114.3Y-70.485
X114.3Y-73.025
X114.3Y-75.565
X114.3Y-78.105
X114.3Y-83.82
X114.3Y-86.36
X114.3Y-88.9
X114.3Y-91.44
X114.3Y-93.98
X114.3Y-96.52
X114.3Y-99.06
X114.3Y-101.6
X163.83Y-55.245
X163.83Y-57.785
X163.83Y-60.325
X163.83Y-62.865
X163.83Y-65.405
X163.83Y-67.945
X163.83Y-70.485
X163.83Y-73.025
X163.83Y-83.82
X163.83Y-86.36
X163.83Y-88.9
X163.83Y-91.44
X163.83Y-93.98
X163.83Y-96.52
X163.83Y-99.06
X163.83Y-101.6
T4
X106.22Y-78.0
X171.275Y-78.0
T0
M30
