M48
; DRILL file {KiCad (6.0.1)} date Fri 11 Feb 2022 09:46:42 PM PST
; FORMAT={-:-/ absolute / metric / decimal}
; #@! TF.CreationDate,2022-02-11T21:46:42-08:00
; #@! TF.GenerationSoftware,Kicad,Pcbnew,(6.0.1)
; #@! TF.FileFunction,MixedPlating,1,2
FMAT,2
METRIC
; #@! TA.AperFunction,Plated,PTH,ViaDrill
T1C0.700
; #@! TA.AperFunction,Plated,PTH,ComponentDrill
T2C0.800
; #@! TA.AperFunction,Plated,PTH,ComponentDrill
T3C1.100
; #@! TA.AperFunction,NonPlated,NPTH,ComponentDrill
T4C1.201
%
G90
G05
T1
X122.65Y-57.8
X122.7Y-88.35
X122.7Y-89.916
X126.238Y-55.245
X126.8Y-87.15
X128.75Y-88.55
X130.302Y-66.675
X130.302Y-68.707
X130.302Y-99.822
X130.45Y-59.15
X135.204Y-66.04
X136.9Y-90.85
X137.0Y-94.0
X138.35Y-89.55
X139.85Y-88.0
X141.224Y-85.1
X144.35Y-65.25
X144.45Y-73.5
X144.526Y-88.011
X144.653Y-90.551
X144.653Y-92.71
X146.544Y-66.49
X147.85Y-94.15
X148.5Y-83.2
X149.35Y-73.6
X149.35Y-94.15
X149.458Y-89.724
X150.323Y-64.77
X150.5Y-82.9
X150.857Y-89.7
X152.146Y-81.407
X155.35Y-85.1
X155.4Y-90.15
X155.4Y-88.65
X155.5Y-67.25
T2
X120.65Y-52.69
X120.65Y-55.23
X120.65Y-57.77
X120.65Y-60.31
X120.65Y-62.85
X120.65Y-65.39
X120.65Y-67.93
X120.65Y-70.47
X120.65Y-73.01
X120.65Y-81.295
X120.65Y-83.835
X120.65Y-86.375
X120.65Y-88.915
X120.65Y-91.455
X120.65Y-93.995
X120.65Y-96.535
X120.65Y-99.075
X120.65Y-101.615
X124.47Y-52.72
X124.47Y-55.26
X124.47Y-57.8
X124.47Y-60.34
X124.47Y-62.88
X124.47Y-65.42
X124.47Y-67.96
X124.47Y-70.5
X124.47Y-83.835
X124.47Y-86.375
X124.47Y-88.915
X124.47Y-91.455
X124.47Y-93.995
X124.47Y-96.535
X124.47Y-99.075
X124.47Y-101.615
X132.09Y-52.72
X132.09Y-55.26
X132.09Y-57.8
X132.09Y-60.34
X132.09Y-62.88
X132.09Y-65.42
X132.09Y-67.96
X132.09Y-70.5
X132.09Y-83.835
X132.09Y-86.375
X132.09Y-88.915
X132.09Y-91.455
X132.09Y-93.995
X132.09Y-96.535
X132.09Y-99.075
X132.09Y-101.615
X135.265Y-83.85
X135.265Y-86.39
X135.265Y-88.93
X135.265Y-91.47
X135.265Y-94.01
X135.265Y-96.55
X135.265Y-99.09
X135.265Y-101.63
X137.16Y-44.45
X137.16Y-46.99
X137.16Y-49.53
X137.16Y-52.07
X137.16Y-54.61
X137.16Y-57.15
X137.16Y-59.69
X137.16Y-62.23
X137.16Y-64.77
X137.16Y-67.31
X137.16Y-69.85
X137.16Y-72.39
X142.885Y-83.85
X142.885Y-86.39
X142.885Y-88.93
X142.885Y-91.47
X142.885Y-94.01
X142.885Y-96.55
X142.885Y-99.09
X142.885Y-101.63
X146.06Y-83.835
X146.06Y-86.375
X146.06Y-88.915
X146.06Y-91.455
X146.06Y-93.995
X146.06Y-96.535
X146.06Y-99.075
X146.06Y-101.615
X152.4Y-44.45
X152.4Y-46.99
X152.4Y-49.53
X152.4Y-52.07
X152.4Y-54.61
X152.4Y-57.15
X152.4Y-59.69
X152.4Y-62.23
X152.4Y-64.77
X152.4Y-67.31
X152.4Y-69.85
X152.4Y-72.39
X153.68Y-83.835
X153.68Y-86.375
X153.68Y-88.915
X153.68Y-91.455
X153.68Y-93.995
X153.68Y-96.535
X153.68Y-99.075
X153.68Y-101.615
X157.48Y-55.26
X157.48Y-57.8
X157.48Y-60.34
X157.48Y-62.88
X157.48Y-65.42
X157.48Y-67.96
X157.48Y-70.5
X157.48Y-73.04
X157.48Y-75.58
X157.48Y-83.835
X157.48Y-86.375
X157.48Y-88.915
X157.48Y-91.455
X157.48Y-93.995
X157.48Y-96.535
X157.48Y-99.075
X157.48Y-101.615
X157.48Y-104.155
T3
X114.3Y-55.245
X114.3Y-57.785
X114.3Y-60.325
X114.3Y-62.865
X114.3Y-65.405
X114.3Y-67.945
X114.3Y-70.485
X114.3Y-73.025
X114.3Y-75.565
X114.3Y-78.105
X114.3Y-83.82
X114.3Y-86.36
X114.3Y-88.9
X114.3Y-91.44
X114.3Y-93.98
X114.3Y-96.52
X114.3Y-99.06
X114.3Y-101.6
X163.83Y-55.245
X163.83Y-57.785
X163.83Y-60.325
X163.83Y-62.865
X163.83Y-65.405
X163.83Y-67.945
X163.83Y-70.485
X163.83Y-73.025
X163.83Y-83.82
X163.83Y-86.36
X163.83Y-88.9
X163.83Y-91.44
X163.83Y-93.98
X163.83Y-96.52
X163.83Y-99.06
X163.83Y-101.6
T4
X105.22Y-78.105
X172.91Y-78.105
T0
M30
